<svg width="16" height="16" viewBox="0 0 16 16" fill="none" xmlns="http://www.w3.org/2000/svg">
  <path d="M11.3334 2.33398H4.66671C2.66671 2.33398 1.33337 3.33398 1.33337 5.66732V10.334C1.33337 12.6673 2.66671 13.6673 4.66671 13.6673H11.3334C13.3334 13.6673 14.6667 12.6673 14.6667 10.334V5.66732C14.6667 3.33398 13.3334 2.33398 11.3334 2.33398ZM11.6467 6.39398L9.56004 8.06065C9.12004 8.41398 8.56004 8.58732 8.00004 8.58732C7.44004 8.58732 6.87337 8.41398 6.44004 8.06065L4.35337 6.39398C4.14004 6.22065 4.10671 5.90065 4.27337 5.68732C4.44671 5.47398 4.76004 5.43398 4.97337 5.60732L7.06004 7.27398C7.56671 7.68065 8.42671 7.68065 8.93337 7.27398L11.02 5.60732C11.2334 5.43398 11.5534 5.46732 11.72 5.68732C11.8934 5.90065 11.86 6.22065 11.6467 6.39398Z" fill="white" />
</svg>