<svg width="16" height="16" viewBox="0 0 16 16" fill="none" xmlns="http://www.w3.org/2000/svg">
<path d="M7.36536 9.96634L6.13203 11.1997C5.87203 11.4597 5.4587 11.4597 5.19203 11.2063C5.1187 11.133 5.04536 11.0663 4.97203 10.993C4.28536 10.2997 3.66536 9.57301 3.11203 8.81301C2.56536 8.05301 2.12536 7.29301 1.80536 6.53967C1.49203 5.77967 1.33203 5.05301 1.33203 4.35967C1.33203 3.90634 1.41203 3.47301 1.57203 3.07301C1.73203 2.66634 1.98536 2.29301 2.3387 1.95967C2.76536 1.53967 3.23203 1.33301 3.72536 1.33301C3.91203 1.33301 4.0987 1.37301 4.26536 1.45301C4.4387 1.53301 4.59203 1.65301 4.71203 1.82634L6.2587 4.00634C6.3787 4.17301 6.46536 4.32634 6.52536 4.47301C6.58536 4.61301 6.6187 4.75301 6.6187 4.87967C6.6187 5.03967 6.57203 5.19967 6.4787 5.35301C6.39203 5.50634 6.26536 5.66634 6.10536 5.82634L5.5987 6.35301C5.52536 6.42634 5.49203 6.51301 5.49203 6.61967C5.49203 6.67301 5.4987 6.71967 5.51203 6.77301C5.53203 6.82634 5.55203 6.86634 5.56536 6.90634C5.68536 7.12634 5.89203 7.41301 6.18536 7.75967C6.48536 8.10634 6.80536 8.45967 7.15203 8.81301C7.2187 8.87967 7.29203 8.94634 7.3587 9.01301C7.62536 9.27301 7.63203 9.69967 7.36536 9.96634Z" fill="white"/>
<path d="M14.6451 12.2204C14.6451 12.407 14.6118 12.6004 14.5451 12.787C14.5251 12.8404 14.5051 12.8937 14.4784 12.947C14.3651 13.187 14.2184 13.4137 14.0251 13.627C13.6984 13.987 13.3384 14.247 12.9318 14.4137C12.9251 14.4137 12.9184 14.4204 12.9118 14.4204C12.5184 14.5804 12.0918 14.667 11.6318 14.667C10.9518 14.667 10.2251 14.507 9.45844 14.1804C8.69177 13.8537 7.9251 13.4137 7.1651 12.8604C6.9051 12.667 6.6451 12.4737 6.39844 12.267L8.57844 10.087C8.7651 10.227 8.93177 10.3337 9.07177 10.407C9.1051 10.4204 9.1451 10.4404 9.19177 10.4604C9.2451 10.4804 9.29844 10.487 9.35844 10.487C9.47177 10.487 9.55844 10.447 9.63177 10.3737L10.1384 9.87369C10.3051 9.70702 10.4651 9.58035 10.6184 9.50035C10.7718 9.40702 10.9251 9.36035 11.0918 9.36035C11.2184 9.36035 11.3518 9.38702 11.4984 9.44702C11.6451 9.50702 11.7984 9.59369 11.9651 9.70702L14.1718 11.2737C14.3451 11.3937 14.4651 11.5337 14.5384 11.7004C14.6051 11.867 14.6451 12.0337 14.6451 12.2204Z" fill="white"/>
</svg>
