<svg width="16" height="16" viewBox="0 0 16 16" fill="none" xmlns="http://www.w3.org/2000/svg">
<path d="M11.3346 14.667H4.66797C4.39464 14.667 4.16797 14.4403 4.16797 14.167C4.16797 13.8937 4.39464 13.667 4.66797 13.667H11.3346C11.608 13.667 11.8346 13.8937 11.8346 14.167C11.8346 14.4403 11.608 14.667 11.3346 14.667Z" fill="white"/>
<path d="M13.5668 3.68035L10.9001 5.58702C10.5468 5.84035 10.0401 5.68702 9.88681 5.28035L8.62681 1.92035C8.41348 1.34035 7.59348 1.34035 7.38015 1.92035L6.11348 5.27368C5.96015 5.68702 5.46015 5.84035 5.10681 5.58035L2.44015 3.67368C1.90681 3.30035 1.20015 3.82702 1.42015 4.44702L4.19348 12.2137C4.28681 12.4803 4.54015 12.6537 4.82015 12.6537H11.1735C11.4535 12.6537 11.7068 12.4737 11.8001 12.2137L14.5735 4.44702C14.8001 3.82702 14.0935 3.30035 13.5668 3.68035ZM9.66681 9.83368H6.33348C6.06015 9.83368 5.83348 9.60702 5.83348 9.33368C5.83348 9.06035 6.06015 8.83368 6.33348 8.83368H9.66681C9.94015 8.83368 10.1668 9.06035 10.1668 9.33368C10.1668 9.60702 9.94015 9.83368 9.66681 9.83368Z" fill="white"/>
</svg>
