<svg width="16" height="16" viewBox="0 0 16 16" fill="none" xmlns="http://www.w3.org/2000/svg">
<path d="M13.9339 6.56667L14.3272 13.16C14.3406 13.34 14.2539 13.46 14.2072 13.5133C14.1539 13.5733 14.0406 13.6667 13.8539 13.6667H12.0339L13.4739 6.56667H13.9339ZM14.6672 4L14.6606 4.01333C14.6739 4.17333 14.6606 4.34 14.6206 4.50667L9.70724 13.5267C9.54724 14.2 8.94724 14.6667 8.25391 14.6667H13.8539C14.7139 14.6667 15.3939 13.94 15.3272 13.08L14.6672 4Z" fill="white"/>
<path d="M7.63479 1.49327C7.70146 1.2266 7.53479 0.953267 7.26812 0.8866C7.00146 0.8266 6.72813 0.9866 6.66146 1.25327L6.32812 2.63327H7.35479L7.63479 1.49327Z" fill="white"/>
<path d="M12.0339 1.47337C12.0939 1.20004 11.9206 0.940036 11.6472 0.880036C11.3806 0.820036 11.1139 0.993369 11.0539 1.2667L10.7539 2.6467H11.7806L12.0339 1.47337Z" fill="white"/>
<path d="M14.5478 3.55362C14.3278 3.02029 13.8078 2.64029 13.1678 2.64029H11.7811L11.4078 4.36695C11.3545 4.60029 11.1478 4.76029 10.9211 4.76029C10.8878 4.76029 10.8478 4.76029 10.8145 4.74695C10.5478 4.68695 10.3745 4.42029 10.4278 4.15362L10.7545 2.63362H7.35447L6.93447 4.36695C6.88114 4.59362 6.67447 4.74695 6.44781 4.74695C6.40781 4.74695 6.36781 4.74029 6.32781 4.73362C6.06114 4.66695 5.89447 4.40029 5.96114 4.12695L6.32114 2.62695H4.9678C4.31447 2.62695 3.73447 3.05362 3.54114 3.68029L0.734472 12.7136C0.441138 13.6803 1.15447 14.667 2.16114 14.667H10.9211C11.6145 14.667 12.2145 14.2003 12.3745 13.527L14.6211 4.50695C14.6611 4.34029 14.6745 4.17362 14.6611 4.01362C14.6478 3.85362 14.6145 3.69362 14.5478 3.55362ZM9.80114 11.167H4.4678C4.19447 11.167 3.9678 10.9403 3.9678 10.667C3.9678 10.3936 4.19447 10.167 4.4678 10.167H9.80114C10.0745 10.167 10.3011 10.3936 10.3011 10.667C10.3011 10.9403 10.0745 11.167 9.80114 11.167ZM10.4678 8.50029H5.13447C4.86114 8.50029 4.63447 8.27362 4.63447 8.00029C4.63447 7.72695 4.86114 7.50029 5.13447 7.50029H10.4678C10.7411 7.50029 10.9678 7.72695 10.9678 8.00029C10.9678 8.27362 10.7411 8.50029 10.4678 8.50029Z" fill="white"/>
</svg>
