<svg width="16" height="16" viewBox="0 0 16 16" fill="none" xmlns="http://www.w3.org/2000/svg">
<path d="M11.332 1.62012H4.66536C2.66536 1.62012 1.33203 2.95345 1.33203 4.95345V8.95345C1.33203 10.9535 2.66536 12.2868 4.66536 12.2868V13.7068C4.66536 14.2401 5.2587 14.5601 5.6987 14.2601L8.66536 12.2868H11.332C13.332 12.2868 14.6654 10.9535 14.6654 8.95345V4.95345C14.6654 2.95345 13.332 1.62012 11.332 1.62012ZM7.9987 9.73345C7.7187 9.73345 7.4987 9.50678 7.4987 9.23345C7.4987 8.96012 7.7187 8.73345 7.9987 8.73345C8.2787 8.73345 8.4987 8.96012 8.4987 9.23345C8.4987 9.50678 8.2787 9.73345 7.9987 9.73345ZM8.8387 6.96678C8.5787 7.14012 8.4987 7.25345 8.4987 7.44012V7.58012C8.4987 7.85345 8.27203 8.08012 7.9987 8.08012C7.72536 8.08012 7.4987 7.85345 7.4987 7.58012V7.44012C7.4987 6.66678 8.06536 6.28678 8.2787 6.14012C8.52536 5.97345 8.60536 5.86012 8.60536 5.68678C8.60536 5.35345 8.33203 5.08012 7.9987 5.08012C7.66536 5.08012 7.39203 5.35345 7.39203 5.68678C7.39203 5.96012 7.16536 6.18678 6.89203 6.18678C6.6187 6.18678 6.39203 5.96012 6.39203 5.68678C6.39203 4.80012 7.11203 4.08012 7.9987 4.08012C8.88537 4.08012 9.60536 4.80012 9.60536 5.68678C9.60536 6.44678 9.04536 6.82678 8.8387 6.96678Z" fill="white"/>
</svg>
