<svg width="16" height="16" viewBox="0 0 16 16" fill="none" xmlns="http://www.w3.org/2000/svg">
  <path d="M10.6654 1.33301H5.33203C2.66536 1.33301 1.33203 2.66634 1.33203 5.33301V13.9997C1.33203 14.3663 1.63203 14.6663 1.9987 14.6663H10.6654C13.332 14.6663 14.6654 13.333 14.6654 10.6663V5.33301C14.6654 2.66634 13.332 1.33301 10.6654 1.33301ZM9.33203 10.1663H4.66536C4.39203 10.1663 4.16536 9.93967 4.16536 9.66634C4.16536 9.39301 4.39203 9.16634 4.66536 9.16634H9.33203C9.60536 9.16634 9.83203 9.39301 9.83203 9.66634C9.83203 9.93967 9.60536 10.1663 9.33203 10.1663ZM11.332 6.83301H4.66536C4.39203 6.83301 4.16536 6.60634 4.16536 6.33301C4.16536 6.05967 4.39203 5.83301 4.66536 5.83301H11.332C11.6054 5.83301 11.832 6.05967 11.832 6.33301C11.832 6.60634 11.6054 6.83301 11.332 6.83301Z" fill="white" />
</svg>