<svg width="16" height="16" viewBox="0 0 16 16" fill="none" xmlns="http://www.w3.org/2000/svg">
<path d="M10.792 1.33301H5.20536C2.7787 1.33301 1.33203 2.77967 1.33203 5.20634V10.7863C1.33203 13.2197 2.7787 14.6663 5.20536 14.6663H10.7854C13.212 14.6663 14.6587 13.2197 14.6587 10.793V5.20634C14.6654 2.77967 13.2187 1.33301 10.792 1.33301ZM5.16536 6.09301C5.16536 5.55301 5.60536 5.10634 6.15203 5.10634C6.69203 5.10634 7.1387 5.54634 7.1387 6.09301C7.1387 6.63301 6.6987 7.07967 6.15203 7.07967C5.60536 7.07301 5.16536 6.63301 5.16536 6.09301ZM5.8787 10.6797C5.75203 10.6797 5.62536 10.633 5.52536 10.533C5.33203 10.3397 5.33203 10.0263 5.52536 9.82634L9.89203 5.45967C10.0854 5.26634 10.4054 5.26634 10.5987 5.45967C10.792 5.65301 10.792 5.97301 10.5987 6.16634L6.23203 10.533C6.13203 10.633 6.00536 10.6797 5.8787 10.6797ZM10.512 10.893C9.97203 10.893 9.52536 10.453 9.52536 9.90634C9.52536 9.36634 9.96537 8.91967 10.512 8.91967C11.052 8.91967 11.4987 9.35967 11.4987 9.90634C11.4987 10.453 11.0587 10.893 10.512 10.893Z" fill="white"/>
</svg>
