<svg width="17" height="16" viewBox="0 0 17 16" fill="none" xmlns="http://www.w3.org/2000/svg">
  <mask id="mask0_2478_99420" style="mask-type:alpha" maskUnits="userSpaceOnUse" x="1" y="1" width="15" height="14">
    <path d="M15.2589 8.65831C15.5886 8.28135 15.5886 7.71865 15.2589 7.34169L14.208 6.14L14.3542 4.55277C14.4002 4.05327 14.0691 3.59697 13.5799 3.48586L12.028 3.13333L11.2153 1.7574C10.9595 1.32432 10.4219 1.14862 9.9597 1.34708L8.5013 1.97333L7.04179 1.3466C6.5801 1.14835 6.04299 1.32346 5.78688 1.75574L4.97464 3.12667L3.42524 3.47432C2.93491 3.58433 2.60238 4.04115 2.64836 4.54156L2.79464 6.13333L1.7415 7.34185C1.41294 7.71888 1.41344 8.28068 1.74267 8.65714L2.79464 9.86L2.64815 11.4541C2.60226 11.9535 2.93339 12.4097 3.42245 12.5208L4.97464 12.8733L5.78576 14.2424C6.04235 14.6755 6.58088 14.8503 7.04294 14.6505L8.5013 14.02L9.96082 14.6467C10.4225 14.845 10.9596 14.6699 11.2157 14.2376L12.028 12.8667L13.5799 12.5141C14.0691 12.403 14.4002 11.9467 14.3542 11.4472L14.208 9.86L15.2589 8.65831ZM6.75464 10.6733L5.16797 9.07333C5.10617 9.01166 5.05713 8.9384 5.02368 8.85775C4.99023 8.7771 4.97301 8.69065 4.97301 8.60333C4.97301 8.51602 4.99023 8.42957 5.02368 8.34892C5.05713 8.26827 5.10617 8.19501 5.16797 8.13333L5.21464 8.08667C5.47464 7.82667 5.9013 7.82667 6.1613 8.08667L7.23464 9.16667L10.668 5.72667C10.928 5.46667 11.3546 5.46667 11.6146 5.72667L11.6613 5.77333C11.9213 6.03333 11.9213 6.45333 11.6613 6.71333L7.71463 10.6733C7.4413 10.9333 7.0213 10.9333 6.75464 10.6733Z" fill="white" />
  </mask>
  <g mask="url(#mask0_2478_99420)">
    <path d="M15.2589 8.65831C15.5886 8.28135 15.5886 7.71865 15.2589 7.34169L14.208 6.14L14.3542 4.55277C14.4002 4.05327 14.0691 3.59697 13.5799 3.48586L12.028 3.13333L11.2153 1.7574C10.9595 1.32432 10.4219 1.14862 9.9597 1.34708L8.5013 1.97333L7.04179 1.3466C6.5801 1.14835 6.04299 1.32346 5.78688 1.75574L4.97464 3.12667L3.42524 3.47432C2.93491 3.58433 2.60238 4.04115 2.64836 4.54156L2.79464 6.13333L1.7415 7.34185C1.41294 7.71888 1.41344 8.28068 1.74267 8.65714L2.79464 9.86L2.64815 11.4541C2.60226 11.9535 2.93339 12.4097 3.42245 12.5208L4.97464 12.8733L5.78576 14.2424C6.04235 14.6755 6.58088 14.8503 7.04294 14.6505L8.5013 14.02L9.96082 14.6467C10.4225 14.845 10.9596 14.6699 11.2157 14.2376L12.028 12.8667L13.5799 12.5141C14.0691 12.403 14.4002 11.9467 14.3542 11.4472L14.208 9.86L15.2589 8.65831ZM6.75464 10.6733L5.16797 9.07333C5.10617 9.01166 5.05713 8.9384 5.02368 8.85775C4.99023 8.7771 4.97301 8.69065 4.97301 8.60333C4.97301 8.51602 4.99023 8.42957 5.02368 8.34892C5.05713 8.26827 5.10617 8.19501 5.16797 8.13333L5.21464 8.08667C5.47464 7.82667 5.9013 7.82667 6.1613 8.08667L7.23464 9.16667L10.668 5.72667C10.928 5.46667 11.3546 5.46667 11.6146 5.72667L11.6613 5.77333C11.9213 6.03333 11.9213 6.45333 11.6613 6.71333L7.71463 10.6733C7.4413 10.9333 7.0213 10.9333 6.75464 10.6733Z" fill="white" />
    <path d="M15.1873 6.71318L4.58733 13.9405C4.53269 13.9777 4.5 14.0396 4.5 14.1057V15.3C4.5 15.4105 4.58954 15.5 4.7 15.5H15.3C15.4105 15.5 15.5 15.4105 15.5 15.3V6.87843C15.5 6.71774 15.3201 6.62266 15.1873 6.71318Z" fill="white" />
    <path d="M3.63162 4.27176L3.94564 4.22729C4.12206 4.20231 4.24062 4.40309 4.13354 4.54551L3.86399 4.904C3.7569 5.04642 3.53109 4.98827 3.50611 4.81185L3.46164 4.49783C3.44615 4.38846 3.52225 4.28725 3.63162 4.27176Z" fill="white" stroke="white" stroke-width="0.2" />
  </g>
</svg>