<svg width="16" height="16" viewBox="0 0 16 16" fill="none" xmlns="http://www.w3.org/2000/svg">
<path d="M13.9386 7.41387V4.4872C13.9386 3.94053 13.5253 3.32053 13.0119 3.11387L9.29859 1.59387C8.46526 1.25387 7.52526 1.25387 6.69193 1.59387L2.97859 3.11387C2.47193 3.32053 2.05859 3.94053 2.05859 4.4872V7.41387C2.05859 10.6739 4.42526 13.7272 7.65859 14.6205C7.87859 14.6805 8.11859 14.6805 8.33859 14.6205C11.5719 13.7272 13.9386 10.6739 13.9386 7.41387ZM8.49859 8.58053V10.3339C8.49859 10.6072 8.27193 10.8339 7.99859 10.8339C7.72526 10.8339 7.49859 10.6072 7.49859 10.3339V8.58053C6.82526 8.3672 6.33193 7.74053 6.33193 7.00053C6.33193 6.08053 7.07859 5.33387 7.99859 5.33387C8.91859 5.33387 9.66526 6.08053 9.66526 7.00053C9.66526 7.7472 9.17193 8.3672 8.49859 8.58053Z" fill="white"/>
</svg>
