<svg width="17" height="16" viewBox="0 0 17 16" fill="none" xmlns="http://www.w3.org/2000/svg">
  <path d="M12.0917 10.4467L9.39836 8H7.59169L4.89836 10.4467C4.14502 11.1267 3.89836 12.1733 4.26502 13.12C4.63169 14.06 5.52502 14.6667 6.53169 14.6667H10.4584C11.4717 14.6667 12.3584 14.06 12.725 13.12C13.0917 12.1733 12.845 11.1267 12.0917 10.4467ZM9.71169 12.0933H7.28502C7.03169 12.0933 6.83169 11.8867 6.83169 11.64C6.83169 11.3933 7.03836 11.1867 7.28502 11.1867H9.71169C9.96502 11.1867 10.165 11.3933 10.165 11.64C10.165 11.8867 9.95836 12.0933 9.71169 12.0933Z" fill="white" />
  <path d="M12.7351 2.87967C12.3684 1.93967 11.4751 1.33301 10.4684 1.33301H6.53507C5.5284 1.33301 4.63507 1.93967 4.2684 2.87967C3.9084 3.82634 4.15507 4.87301 4.9084 5.55301L7.60173 7.99967H9.4084L12.1017 5.55301C12.8484 4.87301 13.0951 3.82634 12.7351 2.87967ZM9.71507 4.81967H7.2884C7.03507 4.81967 6.83507 4.61301 6.83507 4.36634C6.83507 4.11967 7.04173 3.91301 7.2884 3.91301H9.71507C9.9684 3.91301 10.1684 4.11967 10.1684 4.36634C10.1684 4.61301 9.96173 4.81967 9.71507 4.81967Z" fill="white" />
</svg>