<svg width="17" height="16" viewBox="0 0 17 16" fill="none" xmlns="http://www.w3.org/2000/svg">
  <path d="M8.4987 1.3335C4.82536 1.3335 1.83203 4.32683 1.83203 8.00016C1.83203 11.6735 4.82536 14.6668 8.4987 14.6668C12.172 14.6668 15.1654 11.6735 15.1654 8.00016C15.1654 4.32683 12.172 1.3335 8.4987 1.3335ZM10.7387 9.5335C10.932 9.72683 10.932 10.0468 10.7387 10.2402C10.6387 10.3402 10.512 10.3868 10.3854 10.3868C10.2587 10.3868 10.132 10.3402 10.032 10.2402L8.4987 8.70683L6.96536 10.2402C6.86536 10.3402 6.7387 10.3868 6.61203 10.3868C6.48536 10.3868 6.3587 10.3402 6.2587 10.2402C6.06536 10.0468 6.06536 9.72683 6.2587 9.5335L7.79203 8.00016L6.2587 6.46683C6.06536 6.2735 6.06536 5.9535 6.2587 5.76016C6.45203 5.56683 6.77203 5.56683 6.96536 5.76016L8.4987 7.2935L10.032 5.76016C10.2254 5.56683 10.5454 5.56683 10.7387 5.76016C10.932 5.9535 10.932 6.2735 10.7387 6.46683L9.20537 8.00016L10.7387 9.5335Z" fill="white" />
</svg>