<svg width="122" height="24" viewBox="0 0 122 24" fill="none" xmlns="http://www.w3.org/2000/svg">
<path d="M0.0390625 0H26.8644V24H0.0390625V0Z" fill="white" fill-opacity="0.56"/>
<path d="M17.6494 18.819C21.2375 18.819 23.8981 18.0379 23.8981 11.6306C23.8981 6.74886 22.1162 4.83887 18.3756 4.83887H2.85156V6.83429H7.40991V18.819H10.5159V6.82209H17.4053C19.5167 6.82209 20.5175 7.90828 20.5175 11.655C20.5175 15.4018 19.6449 16.8175 17.5579 16.8175H14.5373V7.54825H11.4008V18.819H17.6494Z" fill="#1F213D"/>
<path d="M109.214 14.6388V13.3269C109.045 13.806 108.721 14.215 108.293 14.4892C107.866 14.7633 107.359 14.8868 106.853 14.8402C104.503 14.8402 103.637 13.0096 103.637 10.8738C103.637 8.88446 104.552 7.14534 106.755 7.14534C107.189 7.12082 107.622 7.21116 108.009 7.40721C108.397 7.60327 108.726 7.89812 108.964 8.26204V4.05762H112.503V14.6388H109.214ZM108.158 9.31772C107.414 9.31772 107.286 10.0805 107.286 10.8433C107.286 11.606 107.414 12.4359 108.183 12.4359C108.952 12.4359 109.055 11.6183 109.055 10.9287C109.062 10.0805 108.946 9.31772 108.158 9.31772Z" fill="white" fill-opacity="0.56"/>
<path d="M36.3245 4.82129H41.5113L45.0079 14.6337H41.0781L40.4313 12.5101H37.2337L36.6235 14.6337H32.8828L36.3245 4.82129ZM37.7585 10.1485H39.937L38.8691 6.93265L37.7585 10.1485Z" fill="white" fill-opacity="0.56"/>
<path d="M45.5742 7.30475H48.9182V8.56791C49.136 8.09342 49.4982 7.69987 49.953 7.44344C50.4078 7.18701 50.9319 7.08081 51.4506 7.13999C52.4331 7.13999 53.4583 7.51833 53.7451 8.39095C53.9831 7.54884 55.2218 7.13999 56.0944 7.13999C58.6818 7.13999 58.6818 8.812 58.6818 10.246V14.6335H55.1425V10.4169C55.1425 9.99583 55.1425 9.42222 54.5323 9.42222C53.922 9.42222 53.922 9.99583 53.922 10.4169V14.6335H50.3828V10.4169C50.3828 9.99583 50.3828 9.42222 49.7725 9.42222C49.1623 9.42222 49.1623 9.99583 49.1623 10.4169V14.6335H45.623V7.31085L45.5742 7.30475Z" fill="white" fill-opacity="0.56"/>
<path d="M63.043 11.82C63.0979 12.7354 63.9583 12.9428 64.9957 12.9428C65.8219 12.9727 66.6441 12.8141 67.3999 12.4791V14.3769C66.3263 14.6795 65.2138 14.8213 64.0986 14.7979C61.133 14.7979 59.5586 13.3639 59.5586 10.8376C59.5586 8.31127 61.133 7.13965 64.0986 7.13965C66.9362 7.13965 67.9369 8.90929 67.9369 11.4112V11.8444H63.0552L63.043 11.82ZM64.8736 10.2762C64.8736 9.71478 64.7882 8.82996 63.9888 8.82996C63.1894 8.82996 62.9941 9.70257 63.0369 10.2762H64.8675H64.8736Z" fill="white" fill-opacity="0.56"/>
<path d="M72.1983 7.30379V8.9636C72.6193 7.92622 73.3211 7.13294 74.4317 7.13294C74.6249 7.13093 74.8177 7.15348 75.0053 7.20005V10.1352C74.7468 10.0545 74.4766 10.0174 74.2059 10.0254C73.958 10.0317 73.7138 10.087 73.4874 10.1881C73.2609 10.2892 73.0567 10.4341 72.8866 10.6145C72.7164 10.7949 72.5836 11.0072 72.4958 11.2391C72.4081 11.471 72.3671 11.718 72.3752 11.9659V14.6203H68.8359V7.29769H72.1983V7.30379Z" fill="white" fill-opacity="0.56"/>
<path d="M79.6135 6.53562H76.0742V4.09473H79.6135V6.53562ZM76.0742 7.30449H79.6135V14.6271H76.0742V7.30449Z" fill="white" fill-opacity="0.56"/>
<path d="M81.7827 7.30435V5.62013L85.322 4.54004V7.31045H86.9268V9.42181H85.322V11.4966C85.2997 11.6118 85.3029 11.7305 85.3314 11.8444C85.3598 11.9583 85.4128 12.0646 85.4866 12.1559C85.5604 12.2471 85.6533 12.3211 85.7587 12.3727C85.8642 12.4244 85.9796 12.4523 86.0969 12.4546C86.3788 12.4584 86.6593 12.4151 86.9268 12.3265V14.4378C86.1358 14.6815 85.3136 14.809 84.486 14.8162C82.6553 14.8162 81.7705 13.9008 81.7705 11.9664V9.41571H80.5195V7.30435H81.7705H81.7827Z" fill="white" fill-opacity="0.56"/>
<path d="M91.2608 7.3038V8.96361C91.6818 7.92623 92.3897 7.13294 93.4942 7.13294C93.6874 7.13087 93.8802 7.15342 94.0678 7.20006V10.1352C93.8092 10.0545 93.5391 10.0174 93.2684 10.0254C93.0207 10.0325 92.7769 10.0883 92.5509 10.1897C92.3248 10.2911 92.1209 10.4361 91.9509 10.6163C91.7809 10.7965 91.6481 11.0084 91.56 11.24C91.472 11.4716 91.4304 11.7182 91.4377 11.9659V14.6204H87.8984V7.2977H91.218L91.2608 7.3038Z" fill="white" fill-opacity="0.56"/>
<path d="M95.2322 7.56C96.2195 7.25431 97.2502 7.11209 98.2833 7.13894C100.309 7.13894 102.768 7.50508 102.768 10.1901V14.6447H99.4794V13.5768C99.2247 13.9741 98.869 14.2965 98.4486 14.5109C98.0283 14.7254 97.5584 14.8242 97.0873 14.7972C95.7265 14.7972 94.4023 14.187 94.4023 12.6492C94.4023 10.3975 96.4222 9.95206 98.1857 9.95206C98.6739 9.95206 99.2414 10.0253 99.5648 10.0497C99.5648 9.10995 98.5824 8.99402 97.6975 8.99402C96.8487 9.01346 96.0148 9.22192 95.2567 9.60423V7.56H95.2322ZM99.5465 11.4105H99.1926C98.4603 11.4105 97.6182 11.4776 97.6182 12.2404C97.6109 12.3448 97.6281 12.4496 97.6684 12.5462C97.7088 12.6428 97.7712 12.7286 97.8506 12.7968C97.9301 12.865 98.0244 12.9137 98.126 12.9389C98.2277 12.9641 98.3338 12.9652 98.4359 12.9421C98.5943 12.9308 98.7489 12.8876 98.8903 12.8152C99.0317 12.7428 99.1571 12.6427 99.259 12.5209C99.361 12.399 99.4373 12.2579 99.4836 12.106C99.5298 11.954 99.545 11.7942 99.5282 11.6363V11.4105H99.5465Z" fill="white" fill-opacity="0.56"/>
<path d="M116.836 11.7898C116.891 12.7051 117.751 12.9126 118.789 12.9126C119.615 12.9409 120.437 12.7824 121.193 12.4488V14.3466C120.119 14.649 119.007 14.7909 117.892 14.7676C114.926 14.7676 113.352 13.3336 113.352 10.8073C113.352 8.281 114.926 7.10938 117.892 7.10938C120.729 7.10938 121.73 8.87901 121.73 11.3809V11.8142H116.848L116.836 11.7898ZM118.667 10.2459C118.667 9.6845 118.581 8.79969 117.782 8.79969C116.982 8.79969 116.787 9.6723 116.83 10.2459H118.66H118.667Z" fill="white" fill-opacity="0.56"/>
</svg>
