<svg width="82" height="24" viewBox="0 0 82 24" fill="none" xmlns="http://www.w3.org/2000/svg">
<path fill-rule="evenodd" clip-rule="evenodd" d="M2.06686 0.466258C0.359778 1.40492 0.0955654 2.18527 0.0868908 6.3093C0.0789391 10.1572 0.0966501 10.2403 1.13543 11.2791L2.19192 12.3356H7.30775H12.4236L13.4801 11.2791C14.2539 10.5053 14.5366 9.87672 14.5366 8.92975C14.5366 7.69326 14.4816 7.63687 13.2715 7.63687C12.2551 7.63687 12.0065 7.77639 12.0065 8.3471C12.0065 9.46323 10.8726 9.80552 7.17654 9.80552C2.90179 9.80552 2.60902 9.58576 2.60902 6.37545C2.60902 2.79393 2.40987 2.93815 7.35546 2.93815H11.6631L11.88 4.02247C12.0694 4.97017 12.2504 5.10679 13.3167 5.10679C14.4867 5.10679 14.5362 5.05149 14.5286 3.75139C14.5199 2.31141 13.7768 1.11251 12.4821 0.450355C11.4527 -0.0759017 3.02974 -0.0632517 2.06686 0.466258ZM20.1389 0.722881C16.8588 2.75996 15.854 6.01184 17.4718 9.35371C19.767 14.0951 26.8577 14.0803 29.0148 9.32986C30.5614 5.92292 29.3205 2.27563 26.0304 0.556618C24.615 -0.182888 21.4534 -0.0936131 20.1389 0.722881ZM31.8857 6.16798V12.3356H38.1581C44.2889 12.3356 44.4519 12.3157 45.3725 11.4627C46.5685 10.3542 46.9267 8.93372 46.3867 7.43953C46.0657 6.55183 46.0639 6.04545 46.3791 5.35329C46.9574 4.08428 46.5125 2.139 45.4061 1.09842C44.5115 0.257346 44.2639 0.223371 38.1827 0.113855L31.8857 0V6.16798ZM49.2348 6.19111V12.3356H50.6806H52.1263V7.63687V2.93815H56.6057C60.0173 2.93815 61.1295 3.05381 61.2708 3.42284C61.6655 4.45042 60.9151 4.7186 57.3546 4.82161L53.7528 4.92607L53.6408 6.28147L53.5284 7.63687L55.448 7.6376L57.3672 7.63868L58.8014 9.98696C60.2071 12.2886 60.2671 12.3356 61.7833 12.3356C62.6345 12.3356 63.331 12.2478 63.331 12.1408C63.331 12.0334 62.7617 11.1002 62.066 10.0672C61.3702 9.03384 60.8009 8.08434 60.8009 7.95675C60.8009 7.82916 61.2954 7.51977 61.8997 7.26965C63.8995 6.44123 64.6347 4.24692 63.6422 2.06889C62.8756 0.386381 61.4324 0.0466264 55.0537 0.0466264H49.2348V6.19111ZM68.5314 0.400838C68.1118 0.570353 67.4203 1.15155 66.9953 1.6919C66.2934 2.58394 66.2225 3.11742 66.2225 7.50495V12.3356H67.4637C68.5488 12.3356 68.719 12.2109 68.8191 11.3416L68.9333 10.3477L73.5417 10.2465L78.1501 10.1453V11.2404C78.1501 12.277 78.227 12.3356 79.5958 12.3356H81.0416V7.98675C81.0416 0.726497 80.3863 0.0328916 73.5598 0.069397C71.214 0.0820474 68.9514 0.231322 68.5314 0.400838ZM24.418 2.9161C26.7832 3.81536 27.642 6.86303 26.0871 8.83975C24.7216 10.5757 21.418 10.438 20.1244 8.59108C18.9541 6.91978 19.6994 4.05825 21.5424 3.14887C22.871 2.49358 23.2303 2.4643 24.418 2.9161ZM43.6325 3.84175C43.6325 4.51981 43.3578 4.57077 39.2049 4.66619L34.7772 4.76776V3.84175V2.91574L39.2049 3.01731C43.3578 3.11273 43.6325 3.16369 43.6325 3.84175ZM78.0781 5.20799L78.1869 7.29748L73.5601 7.19592L68.9333 7.09471L68.8162 5.87015C68.7519 5.19643 68.7971 4.25632 68.9163 3.78067C69.1321 2.92044 69.1563 2.91646 73.5514 3.01731L77.9693 3.11887L78.0781 5.20799ZM22.5009 5.08294C21.5987 6.76869 22.5544 8.99336 23.7533 7.99831C24.6478 7.25592 24.217 4.38391 23.2111 4.38391C23.0264 4.38391 22.7069 4.69836 22.5009 5.08294ZM43.7539 8.4971C43.9621 9.58251 43.1644 9.79395 38.8434 9.80009L34.7772 9.80552V8.70999V7.61447L39.2005 7.71603C43.198 7.80784 43.6361 7.88301 43.7539 8.4971ZM15.2594 19.5221C15.2594 19.6978 15.5847 19.9266 15.9823 20.0307C16.5859 20.1883 16.7052 20.5237 16.7052 22.0605C16.7052 23.0733 16.8678 23.9017 17.0666 23.9017C17.2654 23.9017 17.4281 23.0733 17.4281 22.0605C17.4281 20.5237 17.5473 20.1883 18.151 20.0307C19.502 19.6772 18.8807 19.203 17.0666 19.203C16.0727 19.203 15.2594 19.3468 15.2594 19.5221ZM23.4522 19.444C23.3196 19.5763 23.2111 20.5428 23.2111 21.5914C23.2111 23.5457 23.8256 24.5743 24.1812 23.2153C24.4324 22.2546 25.2366 22.2358 25.7412 23.1788C26.2317 24.0951 26.9459 24.1276 26.6578 23.2204C26.5389 22.8456 26.6441 22.0945 26.8917 21.5512C27.2954 20.6657 27.2549 20.4937 26.5013 19.8836C25.679 19.2174 23.9304 18.9655 23.4522 19.444ZM32.1264 21.4327C31.1805 23.6245 31.1379 24.6907 32.0454 23.4492C32.2995 23.1018 32.9595 22.8174 33.5122 22.8174C34.0648 22.8174 34.7248 23.1018 34.9789 23.4492C35.233 23.7969 35.5503 23.9718 35.6841 23.8384C36.0354 23.4868 34.0373 19.203 33.5219 19.203C33.2834 19.203 32.6556 20.2063 32.1264 21.4327ZM39.8374 21.5545V24L41.5177 23.7698C43.6354 23.4795 44.1747 23.0292 44.1747 21.5523C44.1747 20.0704 43.5194 19.5239 41.4635 19.2922L39.8374 19.109V21.5545ZM48.5119 21.5523C48.5119 23.3194 48.6323 23.9219 48.9637 23.8113C49.2565 23.7137 49.4155 22.9178 49.4155 21.5523C49.4155 20.1868 49.2565 19.3909 48.9637 19.2933C48.6323 19.1827 48.5119 19.7852 48.5119 21.5523ZM54.295 21.5523C54.295 22.8777 54.4526 23.9017 54.6564 23.9017C54.8552 23.9017 55.0179 23.3324 55.0179 22.6366C55.0179 21.0391 55.4024 21.0405 56.6248 22.6435C57.1587 23.3429 57.7471 23.8211 57.9329 23.7065C58.4736 23.3722 58.3634 19.1122 57.819 19.2919C57.5707 19.3739 57.2859 19.9862 57.1865 20.6527L57.0058 21.8639L55.9934 20.5334C55.4368 19.8015 54.8267 19.203 54.638 19.203C54.4493 19.203 54.295 20.2602 54.295 21.5523ZM63.3259 20.112C62.6175 20.866 62.5308 21.1869 62.8159 21.9983C63.3129 23.4109 64.8049 24.1695 66.0082 23.6212C66.5532 23.3729 66.9454 22.8976 66.9454 22.4848C66.9454 21.3763 66.259 21.2285 65.8694 22.2535C65.474 23.2934 65.3742 23.3306 64.3915 22.8047C63.5623 22.3609 63.4698 20.922 64.2299 20.2913C64.5382 20.0354 65.1548 19.9425 65.6757 20.0729C66.6631 20.3209 66.9432 19.7795 66.0122 19.4224C64.9358 19.0092 64.1793 19.2033 63.3259 20.112ZM25.9219 20.8294C25.9219 21.304 25.6425 21.5921 25.1087 21.668C24.4415 21.7627 24.2954 21.612 24.2954 20.8294C24.2954 20.0469 24.4415 19.8962 25.1087 19.9909C25.6425 20.0668 25.9219 20.3549 25.9219 20.8294ZM42.884 20.4937C43.669 21.2791 43.5942 21.9535 42.6483 22.616C41.298 23.5623 40.9217 23.3303 40.9217 21.5523C40.9217 20.1868 41.0337 19.9258 41.6189 19.9258C42.002 19.9258 42.5713 20.1814 42.884 20.4937ZM34.0543 21.5737C34.0543 21.8603 33.8104 22.0945 33.5122 22.0945C32.9678 22.0945 32.7691 21.3315 33.201 20.8996C33.5386 20.5623 34.0543 20.9697 34.0543 21.5737Z" fill="white" fill-opacity="0.56"/>
</svg>
