<svg width="152" height="24" viewBox="0 0 152 24" fill="none" xmlns="http://www.w3.org/2000/svg">
<path fill-rule="evenodd" clip-rule="evenodd" d="M10.6274 0.0680269C10.7333 0.0665833 10.8532 0.0511114 10.894 0.0336037C10.9961 -0.0102951 12.8151 -0.0115536 13.1234 0.0320121C14.4448 0.218897 14.9963 0.337194 15.7975 0.605695C17.0257 1.01722 18.1139 1.58594 19.1259 2.3451C19.3172 2.48864 19.5228 2.64207 19.5827 2.68604C20.0244 3.01051 21.1276 4.12748 21.1282 4.25082C21.1283 4.28002 20.9836 4.45491 20.8066 4.63946C20.6296 4.82402 20.3915 5.07494 20.2775 5.19708C19.934 5.5653 19.473 6.05763 18.9246 6.64208C18.6388 6.94663 18.314 7.29497 18.2028 7.41616C18.0917 7.53734 17.8329 7.81217 17.6278 8.02689C17.4228 8.24161 17.1729 8.50878 17.0726 8.6206C16.9723 8.73242 16.7309 8.99059 16.5361 9.19432C16.3413 9.39805 16.0831 9.6721 15.9623 9.80331C15.8416 9.93453 15.6928 10.094 15.6318 10.1575C15.5707 10.2212 15.3375 10.4704 15.1136 10.7114C14.8896 10.9524 14.5629 11.301 14.3875 11.4861C14.2121 11.6712 13.9593 11.9392 13.8257 12.0817L13.5827 12.3408L13.3858 12.2729C13.1929 12.2065 11.5952 11.6067 11.4492 11.546C11.4084 11.5291 11.2752 11.4787 11.1531 11.434C11.0309 11.3893 10.8977 11.3393 10.8569 11.3229C10.8162 11.3065 10.683 11.2566 10.5608 11.2119C10.4387 11.1672 10.3054 11.1172 10.2647 11.1008C10.224 11.0844 10.0907 11.0345 9.9686 10.9898C9.84645 10.9451 9.7132 10.8951 9.67248 10.8787C9.57095 10.8377 9.11305 10.6646 8.45101 10.417C8.14565 10.3027 7.85753 10.1934 7.81078 10.1739C7.76403 10.1544 7.70429 10.1385 7.67805 10.1385C7.65181 10.1385 6.14244 11.6285 4.32386 13.4497C2.50532 15.2708 1.00402 16.7525 0.987586 16.7424C0.868918 16.669 0.407314 15.2724 0.254631 14.5247L0.179196 14.1545C0.150769 14.0146 0.126451 13.8451 0.0279931 13.0996C0.00156498 12.8995 -0.00665217 12.4348 0.00548849 11.8226C0.0267346 10.7501 0.0676723 10.3228 0.216543 9.62028C0.309967 9.17944 0.325106 9.113 0.381219 8.8985C0.602749 8.05191 1.09889 6.82952 1.50427 6.13169C1.54861 6.05537 1.61986 5.93111 1.66261 5.8556C2.10186 5.0799 2.91654 4.0616 3.69343 3.31713C4.31712 2.7195 5.24703 2.00887 5.8591 1.66212C5.93087 1.62148 6.05205 1.55233 6.12838 1.50851C6.92899 1.04883 8.20813 0.545251 9.11727 0.33179C9.21906 0.307879 9.36064 0.274307 9.43189 0.257132C9.50314 0.239958 9.67803 0.205942 9.82054 0.181512C9.96304 0.157046 10.1596 0.122105 10.2573 0.103857C10.355 0.0855716 10.5216 0.0694334 10.6274 0.0680269ZM58.3231 5.29906C59.0512 4.5654 60.3576 4.06056 61.9365 3.9027C63.4115 3.7552 64.9481 3.8967 66.5263 4.32532C66.6687 4.364 66.9858 4.46979 67.0815 4.51058C67.1222 4.52794 67.2554 4.57991 67.3776 4.6261C67.6015 4.71075 68.346 5.08315 68.5224 5.19875C68.5747 5.23306 68.6176 5.28307 68.6176 5.30994C68.6176 5.33677 68.5384 5.45748 68.4417 5.57811C68.3451 5.69877 68.2243 5.85275 68.1734 5.9203C68.0788 6.04582 67.9258 6.23692 67.859 6.31288C67.8385 6.33616 67.6802 6.53918 67.5071 6.764C67.3341 6.98883 67.1803 7.17379 67.1654 7.17505C67.1505 7.17631 67.0339 7.11401 66.9063 7.03658C66.0584 6.52212 64.9676 6.18921 63.9168 6.12425C63.7641 6.11481 63.4969 6.09586 63.3231 6.08213C63.0074 6.05722 62.1877 6.10896 61.7329 6.18251C60.7744 6.33749 60.2693 6.78262 60.5577 7.21813C60.6452 7.35024 61.0136 7.55837 61.2288 7.59723L61.5664 7.65834C61.8855 7.71616 62.3176 7.76727 62.8063 7.80499C64.6026 7.94365 65.6841 8.09596 66.48 8.32234C66.5564 8.34403 66.673 8.37634 66.7391 8.39411C66.9099 8.43997 67.4182 8.64525 67.6367 8.75659C68.3105 9.0999 68.7576 9.5813 68.9926 10.2164C69.0717 10.4299 69.0802 10.5129 69.0802 11.0638C69.0802 11.6059 69.0705 11.7037 68.9935 11.9337C68.6409 12.9874 67.8497 13.6912 66.5263 14.1285C65.9175 14.3297 65.4631 14.4197 64.6015 14.5099C63.9173 14.5814 62.1907 14.5205 61.4923 14.4001C60.8772 14.294 60.6225 14.2385 60.1228 14.1014C59.2968 13.8747 58.284 13.4031 57.5731 12.9139C57.2039 12.66 57.1314 12.5981 57.1475 12.5513C57.1626 12.5078 58.2325 11.2499 58.5127 10.9462L58.6793 10.7658L58.9672 10.9825C59.1256 11.1018 59.3255 11.2382 59.4114 11.2858C60.6403 11.9664 61.7444 12.2596 63.269 12.3103C64.5853 12.3541 65.5557 12.178 65.9298 11.8275C66.3091 11.4721 66.2229 11.0253 65.7273 10.7782C65.3571 10.5936 64.4904 10.4366 63.3331 10.3444C62.1717 10.2519 61.028 10.0755 60.3449 9.88356C60.2838 9.86642 60.1589 9.83156 60.0673 9.80613C59.9757 9.7807 59.8674 9.74676 59.8267 9.73073C59.786 9.71467 59.6527 9.66381 59.5306 9.61772C58.9556 9.40075 58.487 9.10519 58.1276 8.7329C57.2428 7.81639 57.3291 6.30062 58.3231 5.29906ZM31.6774 14.2471V9.21312V4.17919L34.8884 4.17953C38.5574 4.1799 38.6369 4.18426 39.7095 4.44544C39.964 4.5074 40.188 4.5728 40.2073 4.59075C40.2267 4.60867 40.2727 4.62336 40.3096 4.62336C40.3465 4.62336 40.4057 4.63806 40.441 4.65605C40.5066 4.6894 40.5328 4.70102 40.9003 4.8594C41.6417 5.17887 42.4237 5.81533 42.8486 6.44505C43.4487 7.33447 43.7153 8.3337 43.6562 9.47222C43.57 11.1318 42.8081 12.4335 41.4348 13.2672C40.9201 13.5797 40.0096 13.9286 39.4134 14.0418C38.3735 14.2392 38.2316 14.2455 34.8329 14.2463L31.6774 14.2471ZM48.2935 4.99351C48.408 4.77975 48.5484 4.50906 48.6055 4.39202L48.7094 4.17919H50.3486H51.9879L52.2242 4.65112C52.3542 4.91067 52.5538 5.29795 52.6678 5.5117C52.8754 5.90091 53.2094 6.54199 53.7286 7.54748C53.881 7.84267 54.1098 8.28407 54.2369 8.52836C54.6104 9.24584 55.3458 10.6635 55.7922 11.5265C55.9502 11.8319 56.175 12.2649 56.2918 12.4889C56.9637 13.7769 57.1753 14.2026 57.1543 14.2236C57.1414 14.2365 56.4361 14.2471 55.587 14.2471H54.0431L53.5731 13.3061C53.3146 12.7886 53.078 12.3555 53.0473 12.3437C52.9648 12.3121 47.6185 12.3188 47.5739 12.3506C47.5529 12.3656 47.3281 12.7942 47.0742 13.3032L46.6126 14.2285L45.0673 14.2382C44.1348 14.244 43.522 14.2342 43.522 14.2135C43.522 14.1946 43.5777 14.0737 43.6457 13.9448C43.7138 13.8158 43.916 13.4272 44.0952 13.0811C44.2742 12.735 44.516 12.2686 44.6324 12.0447C44.7488 11.8208 44.9818 11.371 45.1502 11.0453C45.3187 10.7196 45.5645 10.2449 45.6965 9.99042C45.8285 9.73595 46.07 9.26957 46.2332 8.95402C46.3964 8.63848 46.5758 8.29702 46.632 8.19523C46.6882 8.09344 46.8921 7.70202 47.0851 7.3254C47.7151 6.0962 48.0815 5.38904 48.2935 4.99351ZM73.1333 6.51046V5.3447V4.17897L78.7981 4.18834L84.463 4.1977V5.34514V6.49258L82.3793 6.51109L80.2955 6.52959L80.277 10.3791L80.2585 14.2285L78.7874 14.2382L77.3162 14.2479L77.3068 10.3887L77.2974 6.52959L75.2153 6.52004L73.1333 6.51046ZM85.8292 14.2471V9.21312V4.17919H89.7548C93.9141 4.17919 93.9524 4.18067 94.7496 4.37074C96.5151 4.7917 97.5627 5.99533 97.5627 7.603C97.5627 8.9052 96.8999 9.93623 95.6935 10.5111C95.4899 10.6081 95.2484 10.7121 95.1567 10.7423C95.0651 10.7724 94.986 10.8196 94.9809 10.8472C94.9758 10.8747 95.0924 11.0316 95.24 11.1958C95.3876 11.3599 95.6416 11.6496 95.8045 11.8394C95.9674 12.0292 96.2325 12.3363 96.3936 12.5217L96.8792 13.0811C96.9852 13.2033 97.2489 13.5057 97.4653 13.7531C97.6817 14.0006 97.8588 14.213 97.8588 14.2251C97.8588 14.2372 97.0873 14.2471 96.1445 14.2471H94.4302L93.9884 13.7229L93.2505 12.8474C92.8423 12.363 92.2614 11.678 92.0538 11.4363C91.9588 11.3256 91.8506 11.1965 91.8135 11.1494L91.7461 11.0638H90.2497H88.7533V12.6554V14.2471H87.2912H85.8292ZM101.912 6.69616C102.5 5.57522 102.914 4.77194 103.072 4.44755L103.203 4.17919H104.84H106.478L106.718 4.63262C106.85 4.88202 107.073 5.3109 107.214 5.58573C107.61 6.35744 108.063 7.23194 108.279 7.64002C108.498 8.05624 108.764 8.56771 109.24 9.49073C109.419 9.83681 109.669 10.3198 109.796 10.5641C109.923 10.8084 110.156 11.2582 110.315 11.5635C110.473 11.8689 110.694 12.2936 110.805 12.5074C111.52 13.8786 111.665 14.1653 111.665 14.2043C111.665 14.2372 111.282 14.2455 110.103 14.2382L108.541 14.2285L108.078 13.3032C107.823 12.7942 107.597 12.3656 107.576 12.3506C107.555 12.3357 106.319 12.3232 104.829 12.3229C102.489 12.3224 102.113 12.3298 102.066 12.377C102.036 12.407 101.811 12.8401 101.566 13.3394L101.12 14.2471H99.5883C98.7456 14.2471 98.0466 14.2375 98.035 14.2258C98.0147 14.2056 98.1177 13.9963 98.5982 13.0811C98.7158 12.8572 98.958 12.3908 99.1364 12.0447C99.5821 11.1805 99.9048 10.5583 100.135 10.12C100.324 9.75938 100.635 9.15823 101.199 8.06568C101.351 7.77049 101.672 7.15421 101.912 6.69616ZM112.859 9.25014C112.853 6.51201 112.857 4.25093 112.867 4.22546C112.889 4.16542 119.045 4.15839 119.631 4.21776C120.001 4.25518 120.099 4.27073 120.567 4.36563C121.192 4.49252 121.886 4.73581 122.381 5.00146C123.013 5.34114 123.745 5.98871 124.078 6.50313C124.388 6.98058 124.634 7.56255 124.724 8.02867C124.746 8.14064 124.781 8.32097 124.803 8.42939C124.853 8.68005 124.854 9.70271 124.804 9.96085C124.784 10.0687 124.749 10.2486 124.727 10.3606C124.666 10.6773 124.484 11.1835 124.318 11.4987C123.655 12.7587 122.375 13.6449 120.678 14.0198C119.684 14.2394 119.39 14.2532 115.977 14.2403L112.868 14.2285L112.859 9.25014ZM126.656 14.2471V9.21312V4.17919H131.968H137.28L137.27 5.29887L137.26 6.41855L133.402 6.42799L129.543 6.43739V7.23305V8.02867H132.726H135.909V9.10186V10.1751L132.735 10.1845L129.561 10.194V11.0823V11.9707L133.494 11.9801L137.427 11.9895V13.1183V14.2471H132.041H126.656ZM139.176 9.25014C139.17 6.51201 139.174 4.25093 139.184 4.22546C139.207 4.16505 146.906 4.15765 147.321 4.21765C148.576 4.39895 149.43 4.77201 150.071 5.41924C150.763 6.11681 151.064 7.14051 150.882 8.17543C150.727 9.05518 150.325 9.68983 149.595 10.2062C149.344 10.3835 148.795 10.6592 148.536 10.7374C148.447 10.7642 148.366 10.8068 148.357 10.8319C148.338 10.8783 148.387 10.9435 148.736 11.3414C148.843 11.4636 149.392 12.0965 149.957 12.748C150.521 13.3994 151.04 13.9918 151.109 14.0643C151.178 14.1369 151.223 14.2076 151.209 14.2216C151.195 14.2356 150.422 14.2471 149.49 14.2471H147.797L147.443 13.8244C147.248 13.5919 147.067 13.3795 147.042 13.3524C147.016 13.3254 146.92 13.2117 146.828 13.1C146.737 12.9882 146.626 12.8549 146.583 12.8039C145.896 11.9974 145.375 11.3808 145.26 11.2396L145.117 11.0638H143.622H142.128V12.6558V14.2479L140.656 14.2382L139.185 14.2285L139.176 9.25014ZM20.7422 8.01016L22.4182 6.00214C22.5925 5.79349 22.748 5.62275 22.7638 5.62275C22.8766 5.62275 23.444 7.13855 23.6437 7.97315C23.7645 8.47809 23.7863 8.58185 23.8267 8.84298C24.0984 10.6014 24.0406 12.1692 23.6426 13.8399C23.5762 14.1185 23.5376 14.2715 23.4977 14.4136C23.4748 14.495 23.4424 14.6116 23.4255 14.6727C23.215 15.4385 22.5823 16.8812 22.1213 17.6469C22.0434 17.7762 21.9797 17.8892 21.9797 17.898C21.9797 17.9517 20.9727 19.3767 20.8716 19.4661C20.86 19.4762 20.7314 19.6261 20.5857 19.7992C20.1992 20.2582 19.3626 21.065 18.852 21.471C17.5808 22.4819 16.2779 23.1656 14.7804 23.6074C14.7194 23.6254 14.5861 23.6598 14.4843 23.6837C14.3825 23.7077 14.241 23.742 14.1697 23.7598C13.8339 23.8439 13.1824 23.9328 12.5356 23.9828C11.8711 24.0341 10.7353 23.9666 10.0241 23.8335L9.61696 23.7573C9.48464 23.7325 9.36053 23.6979 9.34121 23.6804C9.32185 23.6629 9.24275 23.6487 9.16539 23.6487C9.08803 23.6487 9.02474 23.632 9.02474 23.6116C9.02474 23.5913 8.96721 23.5746 8.89692 23.5746C8.82663 23.5746 8.73084 23.5591 8.68409 23.5401C8.63734 23.5211 8.42777 23.452 8.21838 23.3864C8.00899 23.3209 7.82896 23.2531 7.8183 23.2359C7.80764 23.2186 7.77232 23.2045 7.73986 23.2045C7.66282 23.2045 7.33354 23.0478 7.26159 22.9791C7.2064 22.9597 7.15192 22.94 7.0981 22.92C7.09318 22.9347 7.07927 22.9454 7.06298 22.9454C7.04263 22.9454 7.02597 22.9287 7.02597 22.9084C7.02597 22.9033 7.02698 22.8985 7.02882 22.8942C4.62274 21.9863 3.59096 20.6606 2.6684 19.4753C2.52721 19.2938 2.38859 19.1157 2.24798 18.9429L7.93411 13.6064L7.94073 13.609C8.15363 13.3988 8.315 13.2477 8.32839 13.2477C8.34549 13.2477 8.38842 13.2623 8.42377 13.2801C8.45912 13.298 8.55466 13.3335 8.63609 13.3592C8.71752 13.3847 8.85077 13.4353 8.9322 13.4715C9.01363 13.5077 9.14688 13.5577 9.22831 13.5826C9.30974 13.6076 9.443 13.657 9.52443 13.6924C9.60586 13.7278 9.88902 13.8347 10.1537 13.9299C10.4183 14.0251 10.6682 14.1171 10.7089 14.1344C10.7496 14.1517 10.8828 14.2024 11.005 14.2471C11.1271 14.2917 11.2604 14.3417 11.3011 14.3581C11.3418 14.3745 11.4751 14.4245 11.5972 14.4691C11.7194 14.5138 11.8526 14.5638 11.8933 14.5802C11.934 14.5966 12.059 14.6433 12.1709 14.6839C12.2829 14.7246 12.5078 14.8083 12.6706 14.8698C12.8335 14.9313 13.2166 15.0753 13.522 15.1897C13.8273 15.304 14.1596 15.4307 14.2603 15.4711L14.4434 15.5445L14.5194 15.46C14.5612 15.4136 14.8451 15.0759 15.1505 14.7095C15.4558 14.3432 15.741 14.0018 15.7843 13.9509C15.9046 13.8095 17.2532 12.1921 18.778 10.3606C19.0238 10.0654 19.2605 9.78222 19.3039 9.73132C19.3474 9.68043 19.9947 8.9059 20.7422 8.01016ZM94.5372 7.6224C94.5306 7.01578 94.2252 6.66777 93.5432 6.49014C93.3769 6.44679 92.9183 6.43706 91.0464 6.43706H88.7533V7.67907V8.92112L91.0574 8.90735C93.1267 8.89499 93.384 8.88695 93.5816 8.82825C94.269 8.62408 94.5443 8.2767 94.5372 7.6224ZM147.907 7.66449C147.906 7.02495 147.61 6.67006 146.929 6.49288C146.748 6.44605 146.345 6.43706 144.421 6.43706H142.128V7.67703V8.91701H144.27C146.035 8.91701 146.47 8.90694 146.74 8.85982C147.314 8.76003 147.636 8.55819 147.811 8.18942C147.892 8.01782 147.907 7.93365 147.907 7.66449ZM39.3192 6.98657C38.838 6.7365 38.6545 6.6808 37.936 6.5665C37.6691 6.52404 37.2428 6.51109 36.1131 6.51109H34.6386V9.19462V11.8781L36.1839 11.878C38.143 11.8778 38.4888 11.8295 39.2653 11.4479C39.5572 11.3043 39.671 11.2209 39.9353 10.9566C40.4069 10.4849 40.5867 10.0613 40.6247 9.3326C40.6447 8.95084 40.6093 8.66901 40.4983 8.32508C40.3232 7.78278 39.8772 7.27658 39.3192 6.98657ZM120.474 6.96736C120.035 6.75164 119.688 6.64908 119.064 6.54995C118.797 6.50757 115.876 6.49476 115.835 6.53578C115.822 6.54932 115.811 7.75798 115.811 9.22164V11.8828L117.504 11.8683C118.9 11.8562 119.243 11.8431 119.457 11.7934C119.847 11.7027 120.21 11.5782 120.437 11.4576C120.549 11.3982 120.691 11.3237 120.752 11.292C120.914 11.208 121.369 10.739 121.476 10.5456C121.716 10.115 121.809 9.73536 121.81 9.19262C121.81 8.69548 121.754 8.44526 121.538 7.99165C121.367 7.63128 120.889 7.17098 120.474 6.96736ZM51.4395 8.96565C51.1118 8.29761 50.736 7.53035 50.6044 7.26062C50.4727 6.9909 50.3453 6.77059 50.3211 6.77111C50.2968 6.77163 50.2196 6.89241 50.1494 7.03946C50.0792 7.18656 49.7044 7.94753 49.3166 8.73057C48.9287 9.51357 48.6059 10.1673 48.5991 10.1834C48.5923 10.1994 49.3626 10.2125 50.311 10.2125C51.2593 10.2125 52.0352 10.2053 52.0352 10.1964C52.0352 10.1875 51.7671 9.63368 51.4395 8.96565ZM106.098 9.2826C105.852 8.78132 105.475 8.01101 105.262 7.57077C105.048 7.13056 104.853 6.77033 104.829 6.77026C104.805 6.77022 104.67 7.00752 104.529 7.29764C104.387 7.58776 104.009 8.3548 103.689 9.00218C103.368 9.64959 103.114 10.1869 103.123 10.1963C103.133 10.2056 103.906 10.2089 104.843 10.2036L106.546 10.194L106.098 9.2826ZM136.428 17.0878C136.428 16.5094 136.439 16.025 136.452 16.0114C136.466 15.9978 136.599 15.9867 136.748 15.9867H137.02V18.6718V21.3569L136.733 21.3461L136.446 21.3353L136.435 21.0114C136.429 20.8333 136.417 20.6875 136.408 20.6875C136.398 20.6875 136.329 20.756 136.253 20.8396C135.987 21.1344 135.545 21.3735 135.102 21.4624C134.855 21.5121 134.315 21.5133 134.054 21.4647C133.059 21.279 132.427 20.473 132.431 19.3954C132.434 18.7592 132.643 18.2223 133.034 17.847C133.429 17.4671 133.929 17.2827 134.558 17.2841C135.268 17.2857 135.853 17.5137 136.246 17.9422L136.428 18.1395V17.0878ZM74.0583 16.801C73.7169 16.801 73.5555 16.3998 73.8035 16.1681C73.8974 16.0804 73.9511 16.0607 74.0967 16.0607C74.2465 16.0607 74.2933 16.079 74.3889 16.1746C74.6502 16.4359 74.4574 16.801 74.0583 16.801ZM104.361 16.6163C104.258 16.4414 104.294 16.2613 104.461 16.1263C104.572 16.036 104.855 16.0399 104.974 16.1335C105.116 16.2449 105.17 16.4055 105.113 16.5432C104.983 16.8561 104.529 16.9004 104.361 16.6163ZM31.6774 21.3538V18.818V16.2823L34.0926 16.2918L36.5078 16.3013V16.5604V16.8195L34.4384 16.8291C32.9671 16.8359 32.3544 16.8508 32.3186 16.8805C32.2784 16.9139 32.2702 17.0803 32.2782 17.7038L32.2882 18.4852L34.0757 18.4948L35.8632 18.5044L35.8524 18.7724L35.8415 19.0404L34.0853 19.05C32.7368 19.0574 32.3223 19.0703 32.2999 19.1055C32.2619 19.1655 32.2619 20.692 32.3 20.752C32.3225 20.7875 32.8072 20.8001 34.437 20.8075L36.5448 20.8171L36.5557 21.0854L36.5665 21.3538H34.122H31.6774ZM91.2152 16.964C91.3119 16.7827 91.4404 16.5554 91.501 16.4586L91.6111 16.2828L91.9126 16.2834C92.0784 16.2837 92.232 16.2962 92.2538 16.3111C92.2756 16.3261 92.3657 16.4716 92.454 16.6345C92.6184 16.9379 92.7217 17.1261 92.8753 17.4025C92.9233 17.489 93.013 17.6514 93.0744 17.7634C93.1358 17.8754 93.2631 18.1064 93.3571 18.2769C93.4512 18.4473 93.5281 18.5917 93.5281 18.5978C93.5281 18.6039 93.6114 18.7531 93.7132 18.9293C93.815 19.1056 93.8983 19.2553 93.8983 19.2621C93.8983 19.2688 93.9624 19.3883 94.0409 19.5275C94.1845 19.7824 94.3335 20.0529 94.5372 20.4284C94.5979 20.5404 94.6764 20.682 94.7115 20.743C94.7466 20.8041 94.837 20.9665 94.9124 21.1039L95.0493 21.3538H94.6998H94.3502L94.2491 21.1595C93.9272 20.5409 93.6611 20.0709 93.6097 20.0305C93.5647 19.9951 93.1642 19.9843 91.8969 19.9843C90.618 19.9843 90.2346 19.9947 90.2063 20.0305C90.1663 20.081 90.0381 20.3116 89.7794 20.7986C89.6875 20.9716 89.5814 21.1672 89.5437 21.2333L89.4751 21.3533L89.1512 21.3536C88.9731 21.3537 88.8273 21.345 88.8273 21.3343C88.8273 21.3236 89.0125 20.978 89.2388 20.5663C89.8247 19.5006 89.8621 19.4324 89.9799 19.2162C90.4367 18.3781 90.527 18.2137 90.6835 17.9359C90.7619 17.7967 90.8261 17.6766 90.8261 17.6692C90.8261 17.6617 90.8741 17.5741 90.9328 17.4746C90.9915 17.375 91.1186 17.1452 91.2152 16.964ZM118.52 16.6016C118.514 16.4817 118.517 16.3609 118.528 16.333C118.544 16.2906 118.984 16.2839 121.204 16.2918L123.861 16.3013V16.5604V16.8195L122.686 16.8293L121.511 16.8391V19.0964V21.3538H121.215H120.919L120.918 19.1422C120.918 17.9258 120.904 16.91 120.888 16.8849C120.867 16.8505 120.57 16.8367 119.695 16.8293L118.531 16.8195L118.52 16.6016ZM101.116 16.9923C101.116 16.7514 101.127 16.5432 101.141 16.5296C101.154 16.516 101.287 16.5049 101.436 16.5049H101.706L101.716 16.9583L101.727 17.4118L102.634 17.4303L103.54 17.4488V17.6894V17.93L102.634 17.9485L101.727 17.967L101.717 19.1455C101.707 20.4071 101.72 20.5335 101.883 20.7271C102.132 21.0237 102.704 21.0695 103.144 20.8282C103.21 20.7915 103.289 20.7615 103.319 20.7615C103.384 20.7615 103.564 21.1016 103.528 21.1579C103.484 21.2286 103.065 21.4192 102.851 21.466C102.526 21.537 102.029 21.4991 101.779 21.3843C101.515 21.2631 101.293 21.0319 101.205 20.7869C101.143 20.6159 101.135 20.4504 101.124 19.2717L101.113 17.9485H100.726H100.339V17.6894V17.4303H100.727H101.116V16.9923ZM92.3618 17.6709C92.3164 17.5894 92.2086 17.3896 92.1225 17.2267C92.0364 17.0638 91.9524 16.9162 91.9358 16.8986C91.9193 16.8809 91.8773 16.9217 91.8425 16.989C91.8077 17.0563 91.7508 17.1624 91.7161 17.2246C91.6814 17.2868 91.5812 17.471 91.4936 17.6339C91.4059 17.7967 91.2663 18.0549 91.1834 18.2076C90.6541 19.1821 90.537 19.4105 90.5532 19.4367C90.5632 19.4528 91.1866 19.4661 91.9387 19.4661C93.3301 19.4661 93.3884 19.4603 93.2741 19.3347C93.2423 19.2997 93.1274 19.0918 92.825 18.5222C92.6667 18.2238 92.5143 17.9437 92.3618 17.6709ZM38.4013 18.0464C38.5875 17.7587 39.0809 17.4393 39.4953 17.3381C39.9417 17.2292 40.5421 17.2863 40.9164 17.4732C41.1371 17.5834 41.4312 17.9004 41.5464 18.1519C41.5977 18.264 41.645 18.3556 41.6516 18.3556C41.6581 18.3556 41.7144 18.2765 41.7766 18.1798C42.1307 17.6293 42.7939 17.2822 43.4916 17.2822C44.4037 17.2822 44.9937 17.7352 45.171 18.5713C45.2102 18.7563 45.2235 19.1364 45.224 20.086L45.2246 21.3538H44.9285H44.6324L44.632 20.086C44.6316 18.781 44.6196 18.653 44.4714 18.3664C44.2924 18.0203 43.8599 17.8013 43.3554 17.8013C42.7509 17.8013 42.2341 18.0919 41.8889 18.6261L41.7453 18.8483V20.101V21.3538H41.4492H41.153V20.1056C41.153 18.9348 41.1482 18.8419 41.0742 18.6075C40.9086 18.0829 40.4901 17.8013 39.8761 17.8013C39.2497 17.8013 38.6399 18.1704 38.3628 18.7173L38.2659 18.9084V20.1311V21.3538H37.9695H37.673L37.6826 19.4013L37.6922 17.4488L37.9791 17.438L38.2659 17.4272V17.7989C38.2659 18.0033 38.2785 18.1703 38.2937 18.1701C38.3089 18.1699 38.3574 18.1142 38.4013 18.0464ZM47.3071 17.9825C47.6092 17.6559 47.9803 17.4519 48.4819 17.3366C48.5938 17.3109 48.8387 17.2881 49.026 17.286C50.3812 17.2709 51.2198 18.076 51.2198 19.392C51.2198 20.2683 50.8518 20.9259 50.174 21.2609C49.8212 21.4352 49.5233 21.4989 49.0522 21.5005C48.3771 21.5029 47.7936 21.2929 47.3932 20.9035C47.271 20.7847 47.1662 20.6875 47.1602 20.6875C47.1542 20.6875 47.1493 21.1622 47.1493 21.7424V22.7973H46.8532H46.5571V20.1138V17.4303H46.8532H47.1493L47.1497 17.7912L47.1501 18.152L47.3071 17.9825ZM53.1456 17.5884C53.3118 17.4958 53.6222 17.3924 53.9044 17.3357C54.3567 17.2448 55.0617 17.2839 55.543 17.4266C56.1114 17.5952 56.5757 18.0506 56.8108 18.6702C56.9208 18.9601 56.9544 19.5474 56.879 19.8634C56.6599 20.7828 56.0753 21.3089 55.0985 21.4658C54.7428 21.523 53.9881 21.4944 53.6886 21.4123C53.0457 21.2361 52.5238 20.8062 52.3148 20.2804C52.1045 19.7514 52.0975 19.216 52.2922 18.5712C52.3885 18.2524 52.7961 17.783 53.1456 17.5884ZM64.814 18.5407C65.0541 17.9153 65.572 17.5166 66.3782 17.3366C66.6788 17.2695 67.5255 17.2895 67.8218 17.3707C68.7255 17.6185 69.269 18.2832 69.2936 19.171L69.3023 19.4846L67.3051 19.4941C66.2066 19.4994 65.2942 19.5174 65.2776 19.534C65.2334 19.5782 65.3175 19.9361 65.4234 20.1545C65.5998 20.5182 65.8958 20.7565 66.3597 20.9082C66.5588 20.9733 66.6876 20.9867 67.1069 20.9854C67.8145 20.9833 68.158 20.8816 68.6065 20.5413L68.7991 20.3952L68.9767 20.5801C69.0744 20.6819 69.1594 20.7798 69.1657 20.7977C69.1844 20.8507 68.6569 21.186 68.3838 21.2947C68.0376 21.4325 67.6063 21.5017 67.094 21.5018C66.2347 21.5019 65.6389 21.2964 65.1987 20.8482C64.6646 20.3044 64.5049 19.3461 64.814 18.5407ZM76.6786 17.9147C76.9646 17.632 77.2701 17.4581 77.6561 17.3584C77.9819 17.2743 78.5396 17.2633 78.84 17.3351C79.3158 17.4489 79.6672 17.7174 79.8867 18.1352C80.098 18.5372 80.1262 18.7745 80.1277 20.1601L80.129 21.3538H79.8329H79.5368L79.5365 20.1971C79.5364 19.5609 79.5209 18.9462 79.502 18.831C79.393 18.1657 78.9248 17.7997 78.1857 17.8022C77.4784 17.8046 76.7998 18.1798 76.4903 18.7397L76.3906 18.9202V20.1385V21.3569L76.1037 21.3461L75.8168 21.3353V19.392V17.4488L76.1037 17.438L76.3906 17.4272V17.7742C76.3906 17.9651 76.3994 18.1301 76.4102 18.1409C76.4211 18.1517 76.5418 18.0499 76.6786 17.9147ZM81.408 18.5528C81.6488 17.9059 82.1178 17.5043 82.831 17.3341C83.0966 17.2707 83.8158 17.2916 84.1017 17.371C84.4534 17.4686 84.7686 17.6415 84.9912 17.8589C85.106 17.971 85.1999 18.0786 85.1999 18.0981C85.1999 18.1176 85.2166 18.1335 85.2369 18.1335C85.259 18.1335 85.274 17.9917 85.274 17.7819V17.4303H85.5721H85.8703L85.8575 19.4013C85.8459 21.1785 85.8381 21.3923 85.7779 21.5759C85.6023 22.1118 85.2766 22.4756 84.7555 22.7177C84.1779 22.9861 83.1998 23.0171 82.4651 22.7903C82.1205 22.6839 81.7294 22.5034 81.7049 22.4396C81.6836 22.3841 81.9181 21.983 81.9719 21.983C81.9884 21.983 82.0177 21.9981 82.0371 22.0166C82.1599 22.1337 82.618 22.3086 83.0087 22.3875C83.2619 22.4387 83.7727 22.4383 84.0229 22.3868C84.7026 22.2466 85.0427 21.992 85.1951 21.509C85.2722 21.2647 85.3087 20.6875 85.247 20.6875C85.2322 20.6875 85.1614 20.7514 85.0897 20.8294C84.7189 21.2332 84.1649 21.4661 83.5102 21.4935C82.811 21.5229 82.3117 21.3629 81.8847 20.9728C81.2935 20.4326 81.091 19.4045 81.408 18.5528ZM97.1 17.3797C97.2425 17.3475 97.3924 17.3133 97.4331 17.3039C97.4738 17.2944 97.7237 17.2919 97.9883 17.2983C98.68 17.3149 99.0746 17.4334 99.4907 17.7495C99.6985 17.9073 99.9316 18.1472 99.9316 18.2032C99.9316 18.2197 99.8139 18.2937 99.6701 18.3677L99.4087 18.5022L99.2097 18.2983C98.9891 18.0724 98.7124 17.9267 98.3602 17.8511C97.681 17.7052 96.8867 17.9049 96.519 18.314C96.2291 18.6364 96.1194 18.9376 96.1197 19.4105C96.12 19.8865 96.2504 20.2183 96.551 20.5085C96.7521 20.7025 96.9117 20.7979 97.1555 20.8694C97.2471 20.8962 97.3704 20.933 97.4294 20.951C97.5865 20.9988 98.1388 20.9884 98.3981 20.9328C98.743 20.8587 99.0247 20.7034 99.2217 20.4788C99.317 20.3702 99.4074 20.2811 99.4228 20.2808C99.4382 20.2806 99.5371 20.322 99.6426 20.3729C99.7481 20.4238 99.8563 20.4654 99.883 20.4654C100.006 20.4654 99.9197 20.6408 99.6813 20.874C99.1976 21.3473 98.6476 21.5248 97.7666 21.4919C96.9893 21.4629 96.5443 21.299 96.1132 20.8828C95.702 20.4858 95.5137 20.0102 95.5159 19.3735C95.5178 18.7792 95.7013 18.3232 96.0978 17.9278C96.3934 17.6329 96.6842 17.4739 97.1 17.3797ZM111.779 17.9065C112.092 17.5988 112.443 17.438 113.09 17.3059C113.247 17.2738 113.92 17.2841 114.129 17.3219C114.934 17.4673 115.497 17.9021 115.732 18.5592C115.825 18.819 115.89 19.3435 115.841 19.4383C115.81 19.4988 115.676 19.5031 113.811 19.5031H111.813V19.6185C111.813 19.8017 111.963 20.1886 112.107 20.378C112.26 20.5803 112.578 20.8097 112.792 20.8731C112.875 20.8974 112.982 20.9332 113.032 20.9526C113.081 20.972 113.364 20.9876 113.661 20.9873C114.228 20.9868 114.459 20.9405 114.83 20.7528C114.979 20.677 115.25 20.4812 115.302 20.4109C115.331 20.3729 115.7 20.7319 115.7 20.7974C115.7 20.9223 115.009 21.2997 114.571 21.4146C114.195 21.5129 113.124 21.5125 112.76 21.4138C111.859 21.1697 111.35 20.5974 111.222 19.6848C111.131 19.0305 111.351 18.3264 111.779 17.9065ZM128.025 17.4808C128.201 17.4237 128.451 17.3632 128.673 17.3235C128.937 17.2764 129.528 17.2754 129.786 17.3215C130.092 17.3763 130.423 17.4963 130.598 17.616C130.819 17.7671 131.08 18.0631 131.174 18.2673C131.332 18.6142 131.354 18.8023 131.356 19.8362C131.357 20.8094 131.382 21.0501 131.501 21.2722C131.544 21.3533 131.543 21.3538 131.226 21.3538H130.909L130.856 21.2279C130.827 21.1586 130.793 21.0337 130.779 20.9502C130.766 20.8668 130.743 20.7986 130.729 20.7986C130.715 20.7986 130.663 20.8421 130.614 20.8952C130.479 21.0402 130.143 21.2564 129.913 21.3454C129.58 21.4745 129.284 21.5138 128.811 21.4913C127.962 21.451 127.406 21.1825 127.134 20.681C127.016 20.4627 127.008 20.4245 127.009 20.1138C127.01 19.8288 127.025 19.7539 127.107 19.5956C127.394 19.0447 128.082 18.7258 128.984 18.7258C129.616 18.7258 130.18 18.9264 130.552 19.2838C130.649 19.3769 130.736 19.4449 130.746 19.4349C130.78 19.4013 130.765 18.9905 130.723 18.7924C130.579 18.112 130.088 17.8004 129.16 17.8004C128.743 17.8004 128.451 17.8395 128.313 17.9139C128.277 17.9329 128.227 17.9488 128.202 17.9492C128.176 17.9495 128.039 18.0084 127.898 18.08C127.757 18.1516 127.622 18.2027 127.598 18.1936C127.533 18.1684 127.352 17.8418 127.379 17.7977C127.407 17.7526 127.837 17.5419 128.025 17.4808ZM138.757 17.9139C139.071 17.6004 139.418 17.4397 140.073 17.3059C140.23 17.2739 140.903 17.284 141.112 17.3215C142.131 17.5037 142.73 18.121 142.828 19.0883C142.846 19.2631 142.852 19.428 142.842 19.4547C142.827 19.4937 142.437 19.5031 140.827 19.5031C139.21 19.5031 138.843 19.4889 138.796 19.6049C138.777 19.6509 138.809 19.7173 138.833 19.8132C138.911 20.1221 139.022 20.3246 139.223 20.521C139.581 20.8717 139.93 20.9832 140.677 20.9854C141.098 20.9867 141.224 20.9735 141.423 20.9079C141.762 20.7956 141.935 20.708 142.146 20.5404L142.331 20.3939L142.473 20.5315C142.709 20.7598 142.715 20.7949 142.553 20.9354C142.369 21.0944 141.88 21.3291 141.554 21.4148C141.181 21.5128 140.11 21.5124 139.74 21.4141C139.367 21.3149 138.996 21.1091 138.753 20.866C138.002 20.1151 138.004 18.6673 138.757 17.9139ZM147.018 18.2947C147.149 17.7701 147.574 17.4711 148.402 17.3235C148.694 17.2713 149.301 17.2773 149.605 17.3355C149.908 17.3934 150.357 17.5447 150.553 17.6548C150.762 17.7724 150.974 17.92 150.974 17.9482C150.974 17.9914 150.675 18.3186 150.636 18.3186C150.616 18.3186 150.505 18.255 150.389 18.1772C149.963 17.8911 149.586 17.7882 148.957 17.786C148.343 17.7839 148.014 17.8646 147.758 18.0801C147.45 18.3397 147.567 18.7483 147.994 18.9019C148.219 18.9828 148.953 19.0944 149.271 19.0963C149.431 19.0972 149.888 19.1706 150.16 19.2389C150.662 19.3652 151.056 19.6534 151.161 19.9707C151.212 20.1256 151.187 20.5283 151.118 20.6595C150.905 21.0666 150.426 21.3551 149.787 21.4613C149.198 21.5592 148.337 21.4769 147.83 21.2745C147.473 21.1319 146.903 20.7648 146.903 20.6779C146.903 20.6197 147.165 20.3544 147.223 20.3544C147.248 20.3544 147.374 20.426 147.502 20.5136C147.788 20.7084 147.99 20.8072 148.328 20.9171C148.552 20.9902 148.663 21.0012 149.16 21.0005C149.658 20.9998 149.768 20.9884 149.993 20.9145C150.423 20.7732 150.604 20.5854 150.604 20.2809C150.604 19.8565 150.256 19.7092 148.938 19.5768C147.727 19.455 147.184 19.1986 147.032 18.6757C146.983 18.5078 146.981 18.4445 147.018 18.2947ZM71.0975 18.1657C71.3093 17.8204 71.7678 17.5458 72.356 17.4121C72.468 17.3867 72.6387 17.3637 72.7354 17.3611L72.9112 17.3562V17.6087V17.8611L72.5775 17.9055C72.0083 17.9813 71.5917 18.1835 71.2738 18.5383C71.1736 18.6502 71.1043 18.7251 71.0564 18.8119C70.9463 19.0114 70.9495 19.2735 70.9495 20.1913V21.3538H70.6534H70.3572V19.392V17.4303H70.6534H70.9495V17.8744C70.9495 18.1187 70.962 18.3182 70.9772 18.3176C70.9925 18.3171 71.0466 18.2487 71.0975 18.1657ZM124.842 18.1657C125.054 17.8204 125.512 17.5458 126.101 17.4121C126.213 17.3867 126.383 17.3637 126.48 17.3611L126.656 17.3562V17.6087V17.8611L126.322 17.9055C126.138 17.93 125.893 17.9855 125.776 18.0288C125.362 18.1828 124.967 18.5165 124.777 18.8723C124.696 19.0251 124.694 19.0569 124.694 20.1913V21.3538H124.398H124.102V19.392V17.4303H124.398H124.694V17.8744C124.694 18.1187 124.707 18.3182 124.722 18.3176C124.737 18.3171 124.791 18.2487 124.842 18.1657ZM144.6 18.2016C144.827 17.8362 145.311 17.5384 145.879 17.4135C146.004 17.3861 146.178 17.362 146.264 17.3599L146.421 17.3562V17.6097V17.8632L146.102 17.9079C145.367 18.0108 144.864 18.3283 144.573 18.8744L144.458 19.0915L144.461 20.2134L144.464 21.3353H144.175H143.886V19.392V17.4488H144.178H144.469L144.464 17.8374C144.458 18.2969 144.489 18.3808 144.6 18.2016ZM58.2597 19.7807C57.8774 18.7729 57.4023 17.4865 57.4023 17.4593C57.4023 17.4417 57.5369 17.4321 57.7015 17.438L58.0008 17.4488L58.1048 17.7264C58.162 17.8791 58.2783 18.1955 58.3632 18.4297C58.448 18.6638 58.5487 18.9386 58.5869 19.0404C58.6251 19.1422 58.7703 19.5336 58.9096 19.9102C59.0488 20.2868 59.1787 20.5924 59.1982 20.5894C59.2356 20.5834 59.2502 20.5491 59.55 19.7622C59.6547 19.4873 59.8056 19.0918 59.8853 18.8831C60.1333 18.234 60.3168 17.751 60.374 17.5968L60.429 17.4488L60.7244 17.4381L61.0199 17.4274L61.0951 17.6232C61.1365 17.7308 61.2236 17.9605 61.2886 18.1335C61.3536 18.3066 61.4203 18.4815 61.4369 18.5222C61.4771 18.6215 61.7512 19.3407 61.8847 19.6974C62.1222 20.3321 62.2267 20.5964 62.2511 20.6244C62.2781 20.6555 62.2842 20.6408 62.5844 19.8177C62.8173 19.1793 62.9155 18.9145 62.955 18.8183C62.9717 18.7776 63.0545 18.5527 63.139 18.3186C63.2235 18.0845 63.3313 17.793 63.3785 17.6709L63.4645 17.4488L63.7147 17.4377C63.8524 17.4316 63.9857 17.4346 64.011 17.4443C64.0549 17.4611 64.0055 17.6034 63.3959 19.2162C63.3363 19.374 63.2376 19.6363 63.1765 19.7992C63.0332 20.1814 62.8812 20.5852 62.7237 21.0021L62.5979 21.3353H62.2881H61.9785L61.8706 21.0577C61.8113 20.905 61.7489 20.7467 61.7321 20.706C61.7152 20.6653 61.6327 20.4488 61.5488 20.2248C61.4648 20.0009 61.3813 19.7844 61.3633 19.7437C61.3454 19.7029 61.2186 19.3698 61.0816 19.0034C60.8141 18.2875 60.7648 18.1504 60.7317 18.1542C60.7222 18.1553 60.7141 18.1679 60.7026 18.1818C60.6787 18.2105 60.6114 18.3655 60.5528 18.5262C60.4617 18.7766 60.2398 19.3534 60.1415 19.5956C60.125 19.6363 60.075 19.7696 60.0303 19.8917C59.9856 20.0139 59.9349 20.1471 59.9177 20.1878C59.8769 20.2845 59.5267 21.205 59.4989 21.289C59.4807 21.344 59.4294 21.3538 59.1604 21.3538C58.8912 21.3538 58.8403 21.344 58.8226 21.289C58.7996 21.2177 58.5973 20.6757 58.5498 20.558C58.5334 20.5173 58.4866 20.3923 58.446 20.2804C58.4053 20.1684 58.3214 19.9435 58.2597 19.7807ZM73.8366 21.3538V19.3905V17.4272L74.1234 17.438L74.4103 17.4488L74.4199 19.4013L74.4295 21.3538H74.133H73.8366ZM104.447 21.3538V19.392V17.4303H104.743H105.04V19.392V21.3538H104.743H104.447ZM106.034 17.5617C106.016 17.5424 106.002 17.5042 106.002 17.4769C106.002 17.4385 106.075 17.4298 106.326 17.4381L106.65 17.4488L106.882 17.893C107.009 18.1372 107.362 18.8202 107.665 19.4105C108.289 20.6279 108.341 20.724 108.38 20.7243C108.396 20.7244 108.456 20.6288 108.513 20.5117C108.571 20.3946 108.714 20.1157 108.832 19.8917C109.098 19.3834 110.001 17.6259 110.053 17.5139C110.089 17.4372 110.117 17.4308 110.416 17.4306C110.594 17.4304 110.74 17.4394 110.74 17.4505C110.74 17.4616 110.667 17.6073 110.579 17.7744C110.49 17.9414 110.296 18.3112 110.148 18.5962C110 18.8812 109.816 19.231 109.74 19.3735C109.441 19.9329 109.296 20.2079 109.036 20.706C108.887 20.991 108.748 21.2539 108.726 21.2901C108.691 21.3467 108.639 21.3546 108.356 21.3456L108.027 21.3353L107.909 21.1132C107.629 20.5838 107.326 20.0061 107.094 19.5586C106.957 19.2939 106.816 19.0274 106.78 18.9664C106.744 18.9053 106.569 18.5722 106.391 18.2261C106.213 17.88 106.052 17.581 106.034 17.5617ZM50.6283 19.3877C50.6272 18.5433 50.1933 18.0051 49.3887 17.8503C49.0974 17.7943 48.6401 17.7898 48.4448 17.8411C48.1175 17.9271 48.008 17.9664 47.8549 18.0524C47.6471 18.1693 47.3945 18.4013 47.2564 18.602L47.1493 18.7576V19.4046V20.0516L47.3049 20.2493C47.5014 20.4989 47.5029 20.5005 47.7142 20.6451C48.0616 20.8828 48.409 20.9803 48.915 20.9823C50.0009 20.9865 50.6296 20.4014 50.6283 19.3877ZM56.2985 19.1237C56.1782 18.4133 55.7454 17.9961 54.9668 17.8398C54.5045 17.747 53.9598 17.8205 53.5181 18.0352C52.9776 18.298 52.6512 19.0151 52.7705 19.6782C52.9201 20.5103 53.5595 20.9836 54.5337 20.9836C55.0838 20.9836 55.5194 20.837 55.86 20.5371C56.2012 20.2368 56.3861 19.6409 56.2985 19.1237ZM68.4623 18.4036C68.3043 18.1836 67.9959 17.9729 67.6912 17.8767C67.4054 17.7865 66.716 17.7752 66.4223 17.856C66.1352 17.9349 65.8542 18.0897 65.6778 18.2661C65.513 18.4309 65.3418 18.7374 65.3177 18.9108L65.3048 19.0034L66.9867 19.013C67.9118 19.0183 68.681 19.01 68.6962 18.9945C68.7393 18.9503 68.5973 18.5914 68.4623 18.4036ZM85.1669 18.602C84.9163 18.2378 84.5533 17.9883 84.1082 17.8745C83.4338 17.702 82.6648 17.8556 82.2811 18.2393C81.996 18.5244 81.8698 18.8842 81.8691 19.4137C81.8678 20.4121 82.475 20.9866 83.5269 20.9823C84.2457 20.9794 84.8065 20.7055 85.1675 20.1812L85.274 20.0264V19.392V18.7576L85.1669 18.602ZM114.899 18.2838C114.733 18.0995 114.42 17.9212 114.122 17.8413C113.919 17.7868 113.17 17.7951 112.956 17.8542C112.658 17.9363 112.372 18.0996 112.21 18.2806C112.025 18.4863 111.888 18.737 111.877 18.8923L111.869 19.0034H113.553H115.237L115.226 18.8965C115.207 18.7279 115.075 18.4802 114.899 18.2838ZM136.323 18.5923C136.044 18.2071 135.673 17.962 135.204 17.8526C134.932 17.7892 134.466 17.792 134.178 17.8588C133.588 17.9952 133.217 18.3651 133.078 18.956C132.914 19.6509 133.143 20.378 133.624 20.6936C133.912 20.8823 134.169 20.9552 134.614 20.9742C135.343 21.0054 135.871 20.7858 136.26 20.29L136.428 20.0768V19.4068L136.428 18.7369L136.323 18.5923ZM141.882 18.2838C141.716 18.0995 141.403 17.9212 141.106 17.8413C140.906 17.7877 140.199 17.7961 139.958 17.8549C139.667 17.9262 139.425 18.0599 139.221 18.2631C139.029 18.4529 138.869 18.7383 138.858 18.9079L138.852 19.0034H140.536H142.22L142.209 18.8965C142.191 18.7279 142.059 18.4802 141.882 18.2838ZM130.616 19.8265C130.416 19.5988 130.133 19.4214 129.813 19.3224C129.413 19.1987 128.621 19.1862 128.303 19.2987C128.122 19.3625 127.903 19.4873 127.803 19.5833C127.463 19.9074 127.523 20.4697 127.926 20.7473C128.204 20.9389 128.452 20.9955 129.025 20.9981C129.449 20.9999 129.566 20.9872 129.802 20.9137C129.955 20.8661 130.124 20.7957 130.178 20.7573C130.232 20.7189 130.293 20.6875 130.313 20.6875C130.333 20.6875 130.443 20.5866 130.557 20.4633C130.821 20.1775 130.831 20.0708 130.616 19.8265Z" fill="white" fill-opacity="0.56"/>
</svg>
