<svg width="90" height="24" viewBox="0 0 90 24" fill="none" xmlns="http://www.w3.org/2000/svg">
<path fill-rule="evenodd" clip-rule="evenodd" d="M0.0830426 10.2559C0.0830426 10.2559 -0.000124857 10.7126 0.249378 10.9611C0.49888 11.252 1.16278 11.2111 1.16278 11.2111H10.9208V9.34246H2.49153V7.05897H8.13875V5.27351H2.49153V3.0727H10.7131V1.28724H1.12095C1.12095 1.28724 0.498399 1.24542 0.249378 1.53626C-0.000124857 1.82663 0.0416992 2.24199 0.0416992 2.24199L0.0830426 10.2559Z" fill="white" fill-opacity="0.56"/>
<path fill-rule="evenodd" clip-rule="evenodd" d="M15.9019 6.39477L19.3478 12.415L21.6313 11.0863L19.5968 7.51537H23.7076V4.89968H19.5968L21.6313 1.32876L19.3478 0L15.9019 5.97941C15.8192 6.14575 15.8192 6.22844 15.9019 6.39477V6.39477Z" fill="white" fill-opacity="0.56"/>
<path fill-rule="evenodd" clip-rule="evenodd" d="M18.8085 6.39477L15.3207 12.415L13.0372 11.0863L15.1131 7.51537H10.9609V4.89968H15.1131L13.0372 1.32876L15.3207 0L18.7671 5.97941C18.8916 6.14575 18.8917 6.22844 18.8085 6.39477V6.39477Z" fill="white" fill-opacity="0.56"/>
<path fill-rule="evenodd" clip-rule="evenodd" d="M79.1421 10.2564C79.1421 10.2564 79.0585 10.7131 79.3085 11.0039C79.5575 11.2529 80.2209 11.2116 80.2209 11.2116H89.9794V9.3843H81.5506V7.05898H87.1974V5.27352H81.5506V3.0727H89.7722V1.28724H80.2214C80.2214 1.28724 79.5575 1.24542 79.309 1.53626C79.059 1.82663 79.1013 2.24199 79.1013 2.24199L79.1421 10.2564V10.2564ZM31.0593 11.2529H28.6508V3.15587H23.793V1.28772H35.9172V3.15587H31.0593V11.2529ZM65.0657 1.28772H71.5023C75.4467 1.28772 77.5639 2.99001 77.5639 6.27009C77.5639 8.22188 76.6505 9.55016 75.1977 10.4222C74.1593 11.0453 72.7469 11.2529 70.8797 11.2529H65.0657V1.28772V1.28772ZM70.5057 9.25979C73.6194 9.25979 75.114 8.80309 75.114 6.22874C75.114 4.06975 73.8266 3.15587 71.5431 3.15587H67.515V9.25979H70.5057V9.25979ZM54.8096 7.39117L57.1354 3.36355L59.4189 7.39117H54.8096ZM59.3776 2.94867L58.755 1.82759C58.5051 1.4954 58.1315 1.28772 57.7167 1.28772H56.7619C56.347 1.28772 55.9307 1.4954 55.7235 1.82759L55.35 2.45015L50.0768 11.2529H52.5266L53.7727 9.25979H60.4155L61.6616 11.2529H64.4436L59.3776 2.94867V2.94867ZM45.2185 5.81339H39.7789V3.19769H45.2185C46.2568 3.19769 46.8381 3.73756 46.8381 4.48511C46.8381 5.31534 46.2568 5.81339 45.2185 5.81339ZM49.4951 11.2529L46.9626 7.5575C48.4562 7.14214 49.2461 6.10423 49.2461 4.56779C49.2461 2.616 47.7515 1.28772 45.5093 1.28772H37.3704V11.2529H39.7784V7.72336H44.3459L46.7962 11.2529H49.4951Z" fill="white" fill-opacity="0.56"/>
<path fill-rule="evenodd" clip-rule="evenodd" d="M29.3978 13.0391H28.4844V21.1356H29.3978V13.0391ZM31.3491 16.8999H32.263V16.1114H31.3491V14.2842H30.5189V16.1114H29.979V16.8999H30.5189V21.1356H31.3491V16.8999ZM33.3009 12.9141L32.263 15.6961L32.8442 15.9451L34.0898 13.2054L33.3009 12.9141V12.9141ZM37.204 16.8999C36.9545 16.36 36.4151 15.9451 35.8334 15.9451C35.0445 15.9451 34.3388 16.5263 34.3388 17.3984C34.3388 18.9757 36.6223 18.6021 36.6223 19.7232C36.6223 20.1804 36.2488 20.5131 35.7916 20.5131C35.2517 20.5131 35.0027 20.1809 34.7537 19.6819L34.0061 20.0141C34.2551 20.803 34.9613 21.3015 35.7916 21.3015C36.7468 21.3015 37.4944 20.5953 37.4944 19.6405C37.4944 18.8093 36.9131 18.4358 36.3319 18.1873C35.7507 17.9387 35.1695 17.7724 35.1695 17.3152C35.1695 16.984 35.4599 16.734 35.7921 16.734C36.0829 16.734 36.3319 16.984 36.4564 17.2739L37.204 16.8999ZM42.3113 20.6794L40.6917 24.0003H41.6883L45.4251 16.1114H44.4285L42.8094 19.7232L41.0239 16.1114H40.0274L42.3113 20.6794V20.6794ZM47.8336 21.302C49.2868 21.302 50.4906 20.0972 50.4906 18.6449C50.4906 17.1503 49.2868 15.9456 47.8336 15.9456C46.339 15.9456 45.176 17.1503 45.176 18.6449C45.1751 18.9942 45.2432 19.3401 45.3764 19.663C45.5096 19.9858 45.7054 20.2791 45.9523 20.526C46.1993 20.7729 46.4926 20.9686 46.8155 21.1018C47.1383 21.2349 47.4843 21.303 47.8336 21.302V21.302ZM47.8336 16.734C48.872 16.734 49.6195 17.6061 49.6195 18.6026C49.6195 19.641 48.872 20.5135 47.8336 20.5135C46.7538 20.5135 46.0063 19.6415 46.0063 18.6026C46.0063 17.6061 46.7538 16.734 47.8336 16.734ZM51.8617 16.1114H50.9896V19.0185C50.9896 20.3472 51.4881 21.302 52.9827 21.302C54.4774 21.302 55.0163 20.3472 55.0163 19.0185V16.1114H54.1452V18.8935C54.1452 19.7655 54.0615 20.5131 52.9827 20.5131C51.9443 20.5131 51.8617 19.7655 51.8617 18.8935V16.1114ZM56.8022 16.1114H55.9301V21.1356H56.8022V18.6021C56.8022 17.9796 56.8435 16.7335 57.7983 16.7335C58.0069 16.7335 58.1305 16.8585 58.2968 16.9835L58.7117 16.1936C58.4627 16.0696 58.2141 15.9446 57.9228 15.9446C57.3829 15.9446 57.1339 16.2355 56.8017 16.6508V16.1114H56.8022V16.1114ZM62.5739 16.1114H61.7019V21.1356H62.5739V18.5199C62.5739 17.7724 62.6989 16.734 63.695 16.734C64.5262 16.734 64.6084 17.6474 64.6084 18.2709V21.1356H65.4386V18.4786C65.4386 17.6887 65.5636 16.734 66.5597 16.734C67.4318 16.734 67.4731 17.5652 67.4731 18.2286V21.1356H68.3452V18.0632C68.3452 17.0248 68.013 15.9451 66.7256 15.9451C66.103 15.9451 65.5218 16.236 65.1896 16.7763C64.9406 16.2778 64.4007 15.9451 63.8195 15.9451C63.2797 15.9451 62.8648 16.236 62.5734 16.6513V16.1114H62.5739V16.1114ZM71.5839 21.302C73.0372 21.302 74.2419 20.0972 74.2419 18.6449C74.2419 17.1503 73.0785 15.9456 71.5839 15.9456C70.0893 15.9456 68.9269 17.1503 68.9269 18.6449C68.9258 18.9942 68.9938 19.3401 69.1269 19.663C69.2601 19.9859 69.4557 20.2792 69.7027 20.5261C69.9496 20.7731 70.243 20.9688 70.5658 21.1019C70.8887 21.235 71.2347 21.303 71.5839 21.302ZM71.5839 16.734C72.6636 16.734 73.3698 17.6061 73.3698 18.6026C73.3698 19.641 72.6636 20.5135 71.5839 20.5135C70.5051 20.5135 69.7989 19.6415 69.7989 18.6026C69.7989 17.6061 70.5051 16.734 71.5839 16.734ZM75.6947 16.1114H74.8236V21.1356H75.6947V18.7685C75.6947 17.8551 75.7783 16.734 76.9408 16.734C77.9368 16.734 78.0205 17.4815 78.0205 18.3123V21.1356H78.8916V18.1459C78.8916 16.9835 78.5604 15.9451 77.148 15.9451C76.5254 15.9451 76.0682 16.236 75.6947 16.6927V16.1114V16.1114ZM84.3321 18.8098C84.4148 17.3152 83.5422 15.9451 81.9236 15.9451C80.3453 15.9451 79.4738 17.1912 79.4738 18.6858C79.4738 20.1391 80.4285 21.3015 81.9236 21.3015C82.961 21.3015 83.7922 20.7616 84.2898 19.8891L83.5422 19.4329C83.211 20.0554 82.7533 20.5126 82.0063 20.5126C81.0102 20.5126 80.3453 19.7227 80.3453 18.8093H84.3321V18.8098V18.8098ZM80.3867 18.0632C80.5117 17.357 81.1765 16.7335 81.9236 16.7335C82.6707 16.7335 83.2937 17.357 83.4182 18.0632H80.3867Z" fill="white" fill-opacity="0.56"/>
<path fill-rule="evenodd" clip-rule="evenodd" d="M86.4078 20.6793L84.7469 24.0002H85.743L89.4802 16.1113H88.4837L86.864 19.7231L85.0786 16.1113H84.082L86.4078 20.6793V20.6793ZM89.2312 20.0971C88.899 20.0971 88.6077 20.3471 88.6077 20.6793C88.6077 21.0105 88.8985 21.3018 89.2312 21.3018C89.5639 21.3018 89.8124 21.011 89.8124 20.6793C89.8145 20.6023 89.8008 20.5258 89.7724 20.4543C89.7439 20.3828 89.7012 20.3179 89.6468 20.2634C89.5924 20.2089 89.5275 20.1661 89.4561 20.1375C89.3846 20.1089 89.3081 20.0952 89.2312 20.0971V20.0971Z" fill="white" fill-opacity="0.56"/>
</svg>
