<svg width="140" height="20" viewBox="0 0 140 20" fill="none" xmlns="http://www.w3.org/2000/svg">
<g clip-path="url(#clip0_3072_97111)">
<path d="M139.611 3.85589C139.611 4.66454 138.953 5.32115 138.143 5.32115C137.334 5.32115 136.676 4.66551 136.676 3.85589C136.676 3.04626 137.334 2.39062 138.143 2.39062C138.954 2.39062 139.611 3.04626 139.611 3.85589ZM138.143 2.63467C137.468 2.63467 136.921 3.18088 136.921 3.85589C136.921 4.52993 137.467 5.0771 138.143 5.0771C138.819 5.0771 139.367 4.52993 139.367 3.85589C139.367 3.18088 138.819 2.63467 138.143 2.63467ZM138.779 3.54598C138.779 3.76292 138.552 3.96435 138.323 3.96435C138.451 4.00794 138.551 4.12318 138.883 4.66939H138.572C138.327 4.25392 138.239 4.00019 137.978 4.00019H137.81V4.66939H137.558V3.09081H138.194C138.673 3.09081 138.779 3.32808 138.779 3.54598ZM137.81 3.78229H138.153C138.372 3.78229 138.511 3.72224 138.511 3.54211C138.511 3.36295 138.371 3.3029 138.153 3.3029H137.81V3.78229ZM135.405 17.4839H119.27V2.51459H135.127V5.19622H122.891V8.47829H131.299V11.1686H122.891V14.6512H135.405V17.4839ZM16.345 14.6512H3.83153V11.1686H12.2385V8.47829H3.83153V5.19622H16.0676V2.51459H0.210938V17.4839H16.345V14.6512ZM46.8286 5.33665H54.0416V2.51459H36.0231V5.33665H43.1944V17.4839H46.8295V5.33665H46.8286ZM98.1056 2.51459H107.675C113.531 2.51459 116.682 5.06742 116.682 9.98036C116.682 12.939 115.348 14.9165 113.172 16.2491C111.659 17.2031 109.537 17.4829 106.748 17.4829H98.1056V2.51459ZM106.233 14.5098C110.842 14.5098 113.075 13.8358 113.075 9.90966C113.075 6.69732 111.175 5.33568 107.747 5.33568H101.781V14.5098H106.233ZM79.2277 17.4839H75.5925L84.3884 2.51459H87.9693L96.9165 17.4839H92.8226L90.9517 14.5098H81.0443L79.2277 17.4839ZM82.598 11.6626H89.4406L86.0838 5.60297L82.598 11.6626ZM60.0026 17.4839H56.4101V2.51459H68.5104C71.8798 2.51459 74.0863 4.50765 74.0863 7.40913C74.0863 9.7673 72.9467 11.2984 70.715 11.9124L74.4859 17.4829H70.4318L66.8015 12.1797H60.0035V17.4839H60.0026ZM60.0026 9.30341H68.1186C69.6471 9.30341 70.5346 8.54802 70.5346 7.31131C70.5346 6.17629 69.6326 5.38894 68.106 5.38894H60.0035V9.30341H60.0026Z" fill="white" fill-opacity="0.56"/>
<path d="M29.9238 7.98514H36.2484V12.0149H29.9238L33.0866 17.4837L29.5911 19.5L26.4283 14.0292L24.0977 9.99952L26.4283 5.96883L29.5911 0.5L33.0866 2.51437L29.9238 7.98514Z" fill="white" fill-opacity="0.56"/>
<path d="M22.935 7.98514H16.6094V12.0149H22.935L19.7731 17.4837L23.2686 19.5L26.4305 14.0292L28.7611 9.99952L26.4305 5.96883L23.2686 0.5L19.7731 2.51437L22.935 7.98514Z" fill="white" fill-opacity="0.56"/>
</g>
<defs>
<clipPath id="clip0_3072_97111">
<rect width="139.4" height="19" fill="white" transform="translate(0.210938 0.5)"/>
</clipPath>
</defs>
</svg>
