<svg width="110" height="24" viewBox="0 0 110 24" fill="none" xmlns="http://www.w3.org/2000/svg">
<g clip-path="url(#clip0_3072_97117)">
<path d="M12.2006 22.7929C18.2635 22.7929 23.1757 17.8787 23.1757 11.8168C23.1757 5.75599 18.2635 0.842773 12.2006 0.842773C6.13978 0.842773 1.22656 5.75579 1.22656 11.8168C1.22656 17.8787 6.13978 22.7929 12.2006 22.7929Z" fill="#1F213D"/>
<path d="M10.5145 13.6468H14.5537L15.7336 14.4119H10.3362L7.91391 21.8994C5.2378 20.8615 2.76114 18.4572 1.72217 15.755C0.614642 13.1362 0.614642 9.84611 1.74643 7.2163C2.80745 4.51313 5.35567 2.07175 8.06786 1.06886C10.2023 0.184845 13.0585 0.0912312 15.3218 0.78702C17.9194 1.53092 20.372 3.39257 21.7976 5.82292C23.3925 8.48801 23.8405 11.8747 22.8709 14.9163C22.2587 16.9349 20.9972 18.8679 19.2604 20.2503L16.2792 15.2827L20.4293 17.5974C20.4525 17.5974 20.4646 17.5711 20.4525 17.5471L15.0167 12.8544L22.0472 13.9266C22.0714 13.9266 22.0815 13.9156 22.0815 13.9034L22.0352 13.8681L15.4064 11.5436L22.295 9.88039C22.318 9.88039 22.318 9.85834 22.306 9.84611L15.2392 10.3062L20.7725 6.11699C20.7845 6.09374 20.7362 6.08271 20.7252 6.10697L14.5092 9.25817L17.9404 3.20434C17.9404 3.19532 17.9404 3.17006 17.9194 3.18209L13.4361 8.44371L14.2969 1.53112C14.2969 1.51809 14.2716 1.50606 14.2486 1.51809L12.1867 8.23022L10.3815 1.31663C10.3695 1.3056 10.3453 1.29338 10.3322 1.31663L10.8296 8.48801L6.57185 2.94655C6.55882 2.93352 6.54759 2.94655 6.53556 2.95758L9.75632 9.08998L3.66822 5.76358C3.65719 5.76358 3.63294 5.77661 3.63294 5.78764L9.0475 10.2338L2.13592 9.50373C2.11166 9.51676 2.11166 9.538 2.13592 9.54903L8.83722 11.5093L2.1722 13.4676C2.15917 13.4776 2.15917 13.5019 2.1722 13.5129L9.0475 12.7115L3.64496 17.3003C3.63293 17.3003 3.62171 17.3236 3.64496 17.3366L3.71753 17.3134L8.04381 15.048L9.05973 13.4321H10.2146L9.41394 12.8664L12.09 8.57039L10.5114 13.6436L10.5145 13.6468ZM30.4492 19.3005H25.0557L29.3749 3.88349H40.4294L39.3764 7.54225H33.7353L33.0114 10.1668H38.6535L37.7019 13.5345H32.0611L30.4492 19.3005ZM42.9295 19.3007H37.5985L40.7599 8.03778H46.0919L42.9295 19.3007ZM46.3808 6.96352H41.0498L41.9176 3.88369H47.2485L46.3808 6.96352ZM56.7613 19.3003H51.5329L51.9044 18.0398C50.8502 18.9288 49.7761 19.5681 48.0614 19.5681C46.3246 19.5681 45.2303 18.7414 45.2303 16.9856C45.2303 15.0436 45.9955 12.15 47.1311 10.1253C47.9576 8.6161 49.4458 7.83191 51.2026 7.83191C52.7098 7.83191 53.8264 8.49242 54.2602 9.3189L55.7482 3.88429H61.0791L56.7613 19.3003ZM52.7521 11.3848C52.2758 11.3848 51.8017 11.5308 51.5329 12.1913C51.1402 13.1416 50.7888 14.072 50.7888 15.0013C50.7888 15.4363 51.0989 15.8077 51.6153 15.8077C52.0281 15.8077 52.2969 15.6838 52.5244 15.5399L53.5997 11.8399C53.4136 11.5712 53.0825 11.3848 52.7521 11.3848ZM71.814 14.3823H64.4585C64.3135 14.9802 64.1696 15.3942 64.1696 15.8693C64.1696 16.0968 64.2109 16.6757 64.9538 16.6757C65.6979 16.6757 66.029 16.3856 66.3381 15.2913H71.5665C70.905 18.4939 67.1033 19.5884 64.7686 19.5884C61.6061 19.5884 59.1477 19.1343 59.1477 16.0968C59.1477 14.4226 59.9945 11.6538 61.111 10.1869C62.4541 8.43007 64.7888 7.76957 66.9383 7.76957C70.2447 7.76957 72.3932 8.45112 72.3932 11.2611C72.393 11.9437 72.1041 13.4519 71.814 14.3823ZM66.4831 10.6006C65.8216 10.6006 65.3675 11.0547 65.0777 12.1915H67.2685C67.3308 11.9639 67.4134 11.6125 67.4134 11.4051C67.4134 10.7859 67.0409 10.6006 66.4831 10.6006ZM77.1727 19.3005H71.8407L76.16 3.88349H81.492L77.1727 19.3005ZM84.217 19.3007H78.885L82.0464 8.03778H87.3784L84.217 19.3007ZM87.6673 6.96352H82.3363L83.2041 3.88369H88.535L87.6673 6.96352ZM97.2519 8.03778L97.716 10.58H93.6355L92.4374 14.8568C92.3337 15.1881 92.2511 15.6009 92.2511 15.8697C92.2511 16.365 92.4576 16.5312 93.1805 16.5312H94.317L93.5316 19.3009H88.7786C87.208 19.3009 86.609 18.5358 86.609 17.3779C86.609 16.9036 86.6714 16.3862 86.8376 15.8073L89.7302 5.53707H95.0611L94.3583 8.03798H97.2519V8.03778ZM24.9466 21.0321L26.2756 21.031L25.4289 23.8038H24.1039L24.9466 21.0321ZM29.585 21.0343L31.529 21.0333L32.0274 22.8817H32.0406L32.6033 21.0323L33.7571 21.0312L32.9044 23.798L31.0437 23.804L30.5051 21.8287H30.4961L29.9061 23.8L28.7523 23.801L29.585 21.0343ZM36.2767 21.0355L37.7394 21.0345L37.9962 22.7772L39.3343 21.0325L40.6884 21.0315L38.4563 23.7992L36.8314 23.8012L36.2767 21.0355ZM43.236 21.0365L46.2595 21.0335L46.0893 21.5953L44.3505 21.5963L44.1825 22.165L45.8125 22.164L45.6493 22.6977L44.0194 22.6987L43.8512 23.2475L45.608 23.2463L45.4308 23.8072L42.3915 23.8092L43.236 21.0365ZM56.2198 21.7114L55.1849 21.7126L55.3893 21.0399L58.7871 21.0369L58.5828 21.7096L57.5479 21.7104L56.9136 23.7966L55.5856 23.7976L56.2198 21.7114ZM61.5366 21.0329L63.5502 21.0308L63.6468 22.8815H63.6558L64.857 21.0298L66.8786 21.0278L66.0389 23.8016L64.8076 23.8026L65.4389 21.7144H65.4299L63.9337 23.8036L62.6501 23.8046L62.4679 21.7166H62.4547L61.8244 23.7986L60.6969 23.7996L61.5366 21.0329ZM75.3385 21.0343L77.2805 21.0333L77.7809 22.8817H77.7941L78.3568 21.0312H79.5096L78.6659 23.804L76.7812 23.799L76.2586 21.8287H76.2496L75.6466 23.8L74.4918 23.801L75.3385 21.0343ZM82.6955 21.7072L81.6595 21.7082L81.8638 21.0347L85.2628 21.0327L85.0585 21.7052L84.0225 21.7062L83.3891 23.7994L82.0602 23.8004L82.6955 21.7072ZM105.781 17.0351C104.983 17.0351 104.331 17.6854 104.331 18.4848C104.331 19.2833 104.983 19.9345 105.781 19.9345C106.579 19.9345 107.231 19.2831 107.231 18.4848C107.231 17.6854 106.579 17.0351 105.781 17.0351ZM105.781 19.677C105.465 19.677 105.162 19.5514 104.938 19.3278C104.715 19.1043 104.589 18.8011 104.589 18.4849C104.589 18.1688 104.715 17.8656 104.938 17.642C105.162 17.4185 105.465 17.2929 105.781 17.2929C106.097 17.2929 106.4 17.4185 106.624 17.642C106.847 17.8656 106.973 18.1688 106.973 18.4849C106.973 18.8011 106.847 19.1043 106.624 19.3278C106.4 19.5514 106.097 19.677 105.781 19.677Z" fill="white" fill-opacity="0.56"/>
<path d="M106.361 18.1853C106.361 17.8974 106.192 17.7352 105.834 17.7352H105.27V19.2292H105.531V18.618H105.731L106.104 19.2292H106.392L106.002 18.597C106.206 18.5719 106.361 18.4451 106.361 18.1853ZM105.531 18.3855V17.9668H105.731C105.9 17.9638 106.087 17.9738 106.087 18.1742C106.087 18.3757 105.9 18.3857 105.731 18.3857H105.531V18.3855ZM50.331 21.8751C50.3017 21.844 50.2997 21.7915 50.313 21.7492C50.3563 21.6083 50.5315 21.5157 50.8123 21.5157C50.9775 21.5147 51.2321 21.5337 51.3046 21.5922C51.3404 21.6159 51.3672 21.6509 51.3809 21.6915C51.3946 21.7322 51.3943 21.7762 51.3802 21.8167H52.5571C52.696 21.3214 52.3839 21.0023 51.0548 21.0043C49.7924 21.0053 49.0765 21.2761 48.8923 21.8803C48.845 22.0375 48.839 22.2317 48.9699 22.3616C49.295 22.6857 50.763 22.8146 50.8869 22.9898C50.9001 23.0076 50.9088 23.0284 50.9121 23.0504C50.9154 23.0723 50.9133 23.0948 50.9059 23.1157C50.8384 23.3382 50.5232 23.3956 50.2484 23.3956C50.0732 23.3956 49.8457 23.3583 49.7803 23.2859C49.719 23.2135 49.719 23.1017 49.7541 23.0301L48.5219 23.0321C48.399 23.4621 48.3457 23.9089 50.0582 23.9081C51.4949 23.9061 52.1534 23.5547 52.3183 23.0081C52.3999 22.7403 52.3193 22.5913 52.2257 22.4967C51.9066 22.168 50.4849 22.0473 50.331 21.8751ZM69.582 21.0378L72.6055 21.0348L72.4353 21.5966L70.6965 21.5977L70.5283 22.1665L72.1574 22.1655L71.9943 22.6992L70.3654 22.7L70.1972 23.2498L71.953 23.2478L71.7758 23.8085L68.7374 23.8105L69.582 21.0378ZM104.448 8.03849L101.554 14.2795L101.637 8.03849H96.2445L97.2764 19.3014C97.1445 19.9609 96.927 20.3324 96.5133 20.5156C96.0602 20.717 95.0373 20.6808 94.6769 20.6605L94.6115 20.6645L93.7608 23.7251L97.4003 23.7281C99.5498 23.7281 100.604 22.6478 102.133 20.2516L109.903 8.03809H104.448V8.03849ZM88.7085 21.8683C88.6792 21.8372 88.6782 21.7837 88.6904 21.7424C88.7337 21.6015 88.9099 21.5088 89.1898 21.5088C89.3549 21.5078 89.6095 21.5269 89.6821 21.5854C89.7178 21.6091 89.7447 21.6441 89.7584 21.6847C89.772 21.7254 89.7718 21.7694 89.7576 21.8099H90.9345C91.0735 21.3146 90.7613 20.9955 89.4323 20.9975C88.1708 20.9985 87.454 21.2693 87.2708 21.8735C87.2225 22.0306 87.2164 22.2249 87.3473 22.3548C87.6725 22.6789 89.1404 22.8078 89.2643 22.983C89.2776 23.0008 89.2863 23.0216 89.2896 23.0436C89.2929 23.0655 89.2908 23.088 89.2834 23.1089C89.2168 23.3314 88.9007 23.3887 88.6259 23.3887C88.4507 23.3887 88.2231 23.3515 88.1576 23.2791C88.0963 23.2067 88.0963 23.0949 88.1313 23.0233L86.8991 23.0253C86.7762 23.4553 86.7229 23.9021 88.4354 23.9013C89.8721 23.8993 90.5306 23.5479 90.6966 23.0013C90.7772 22.7334 90.6966 22.5845 90.603 22.4899C90.2851 22.1613 88.8626 22.0405 88.7085 21.8683Z" fill="white" fill-opacity="0.56"/>
</g>
<defs>
<clipPath id="clip0_3072_97117">
<rect width="109.29" height="24" fill="white" transform="translate(0.613281)"/>
</clipPath>
</defs>
</svg>
