<svg width="167" height="24" viewBox="0 0 167 24" fill="none" xmlns="http://www.w3.org/2000/svg">
<path d="M21.1522 23.641H18.5039V10.7856H21.1522V23.641ZM31.1386 14.6754C31.7731 15.1995 32.049 16.0271 32.049 17.2133V23.641H29.511V17.8478C29.511 17.3237 29.4282 16.9651 29.3179 16.7168C29.0696 16.2478 28.6282 15.9719 27.911 15.9719C27.0558 15.9719 26.5041 16.3306 26.173 17.0478C26.0351 17.4065 25.9247 17.903 25.9247 18.4823V23.641H23.4695V14.1788H25.8696V15.5857C26.2006 15.1167 26.5041 14.7305 26.7523 14.5098C27.2765 14.1512 27.8834 13.9305 28.711 13.9305C29.7041 13.9029 30.5041 14.1788 31.1386 14.6754ZM33.2352 16.0271V14.2616H34.5594V11.6132H37.0146V14.2616H38.5594V16.0271H37.0146V21.0479C37.0146 21.4617 37.0422 21.6824 37.1525 21.7927C37.2629 21.9031 37.5663 21.9307 38.0629 21.9307C38.1456 21.9307 38.2008 21.9307 38.3112 21.9307C38.3939 21.9307 38.5043 21.9307 38.5594 21.9307V23.779L37.3732 23.8066C36.187 23.8342 35.387 23.6686 34.9732 23.1721C34.6697 22.8686 34.5594 22.4272 34.5594 21.8479V16.0271H33.2352ZM46.201 14.3443C46.863 14.6478 47.4148 15.1168 47.8562 15.7512C48.27 16.303 48.4907 16.9651 48.6286 17.7099C48.7114 18.1513 48.7389 18.7858 48.7114 19.5858H41.7871C41.8147 20.5513 42.1457 21.2134 42.7802 21.572C43.1388 21.7927 43.6354 21.9307 44.132 21.9307C44.6837 21.9307 45.1527 21.7927 45.4837 21.4893C45.6768 21.3514 45.8423 21.1307 46.0079 20.8272H48.5458C48.4631 21.3789 48.1872 21.9583 47.6355 22.5652C46.7803 23.4755 45.6216 23.9721 44.0492 23.9721C42.8078 23.9721 41.6492 23.5583 40.7112 22.7859C39.7733 22.0134 39.2767 20.7169 39.2767 18.9789C39.2767 17.3237 39.7181 16.0823 40.6009 15.1719C41.4836 14.2891 42.5871 13.8478 43.994 13.8478C44.794 13.8754 45.5389 14.0685 46.201 14.3443ZM42.5319 16.4961C42.1733 16.8547 41.9526 17.3513 41.8698 17.9582H46.1458C46.1182 17.2961 45.8975 16.8271 45.4837 16.4409C45.0699 16.1099 44.6009 15.9168 44.0216 15.9168C43.3319 15.9444 42.863 16.1375 42.5319 16.4961ZM55.4149 13.9029C55.4425 13.9029 55.5253 13.9029 55.6356 13.9029V16.4685C55.4977 16.4685 55.3322 16.4409 55.2218 16.4409C55.1115 16.4409 55.0011 16.4409 54.9184 16.4409C53.9252 16.4409 53.2632 16.772 52.9045 17.4064C52.7114 17.7651 52.6011 18.3168 52.6011 19.0892V23.641H50.0907V14.1512H52.4356V15.8064C52.7942 15.1719 53.1252 14.7305 53.4287 14.5098C53.8977 14.096 54.5046 13.9305 55.2218 13.9305C55.3873 13.9029 55.4149 13.9029 55.4149 13.9029ZM60.8219 17.8478C61.2909 17.7651 61.6219 17.7099 61.815 17.6271C62.1737 17.4892 62.3668 17.2685 62.3668 16.9375C62.3668 16.5237 62.2288 16.2754 61.953 16.1375C61.7047 15.9995 61.2909 15.9168 60.7392 15.9168C60.1598 15.9168 59.7185 16.0547 59.4978 16.3582C59.3047 16.5788 59.1943 16.8823 59.1391 17.2409H56.7391C56.7667 16.3857 57.0425 15.7237 57.4288 15.1719C58.0908 14.3167 59.2219 13.9305 60.8219 13.9305C61.8426 13.9305 62.8082 14.1512 63.6082 14.565C64.4082 14.9788 64.822 15.7512 64.822 16.8823V21.241C64.822 21.5445 64.822 21.9031 64.822 22.3445C64.822 22.6755 64.9048 22.8962 64.9599 23.0066C65.0427 23.1169 65.1806 23.2272 65.3186 23.31V23.6686H62.6426C62.5599 23.4755 62.5323 23.31 62.5047 23.1169C62.4771 22.9238 62.4771 22.7583 62.422 22.5376C62.0909 22.8962 61.6771 23.2272 61.2357 23.5031C60.684 23.8066 60.1047 23.9721 59.3874 23.9721C58.5322 23.9721 57.815 23.7238 57.2632 23.2272C56.7115 22.7583 56.408 22.041 56.408 21.1307C56.408 19.9444 56.8494 19.1168 57.7598 18.5927C58.2839 18.2892 58.9736 18.1237 59.9667 17.9582L60.8219 17.8478ZM62.3392 19.0341C62.2013 19.1444 62.0082 19.2272 61.8702 19.2823C61.7323 19.3651 61.5116 19.3927 61.2081 19.4755L60.6564 19.5858C60.1323 19.6961 59.746 19.8065 59.5253 19.9168C59.1115 20.1375 58.946 20.4962 58.946 20.9927C58.946 21.4341 59.0564 21.7376 59.3046 21.9031C59.5253 22.0962 59.8288 22.2065 60.1874 22.2065C60.7392 22.2065 61.2081 22.0686 61.7047 21.7376C62.1461 21.4065 62.3944 20.8548 62.3944 19.9996V19.0341H62.3392ZM72.6566 17.572C72.629 17.2133 72.5187 16.9099 72.298 16.6064C71.9945 16.2478 71.6083 16.0271 71.0014 16.0271C70.1462 16.0271 69.5945 16.4409 69.2635 17.2685C69.1255 17.7099 69.0152 18.2892 69.0152 19.0341C69.0152 19.7237 69.0979 20.2755 69.2635 20.7169C69.5669 21.4893 70.1186 21.9031 70.9462 21.9031C71.5256 21.9031 71.9394 21.7651 72.1876 21.4341C72.4359 21.1031 72.6014 20.6893 72.629 20.2203H75.167C75.0842 20.9927 74.836 21.6824 74.367 22.3445C73.5946 23.4203 72.4635 23.9721 70.8911 23.9721C69.3462 23.9721 68.2427 23.5307 67.4979 22.6203C66.7531 21.71 66.3944 20.5513 66.3944 19.0892C66.3944 17.4616 66.8082 16.1926 67.5807 15.2823C68.3807 14.3719 69.4566 13.9305 70.8911 13.9305C72.0773 13.9305 73.0704 14.1788 73.7877 14.7305C74.5325 15.2823 75.0015 16.1926 75.1394 17.572H72.6566ZM75.9946 16.0271V14.2616H77.3188V11.6132H79.774V14.2616H81.3188V16.0271H79.774V21.0479C79.774 21.4617 79.8016 21.6824 79.9119 21.7927C80.0223 21.9031 80.3257 21.9307 80.8223 21.9307C80.905 21.9307 80.9602 21.9307 81.0706 21.9307C81.1533 21.9307 81.2637 21.9307 81.3188 21.9307V23.779L80.1326 23.8066C78.9464 23.8342 78.1464 23.6686 77.7326 23.1721C77.4291 22.8686 77.3188 22.4272 77.3188 21.8479V16.0271H75.9946ZM85.4569 13.0202H82.9465V10.7305H85.4569V13.0202ZM82.9741 14.1236H85.4844V23.641H82.9741V14.1236ZM93.5398 14.1236H96.1881L92.7673 23.641H90.1466L86.7534 14.1236H89.5397L91.5259 21.1307L93.5398 14.1236ZM103.471 14.3443C104.133 14.6478 104.685 15.1168 105.126 15.7512C105.54 16.303 105.761 16.9651 105.899 17.7099C105.981 18.1513 106.009 18.7858 105.981 19.5858H99.0571C99.0847 20.5513 99.4157 21.2134 100.05 21.572C100.409 21.7927 100.905 21.9307 101.402 21.9307C101.954 21.9307 102.423 21.7927 102.754 21.4893C102.947 21.3514 103.112 21.1307 103.278 20.8272H105.816C105.733 21.3789 105.457 21.9583 104.905 22.5652C104.05 23.4755 102.892 23.9721 101.319 23.9721C100.078 23.9721 98.9192 23.5583 97.9812 22.7859C97.0157 22.0134 96.5467 20.7169 96.5467 18.9789C96.5467 17.3237 96.9881 16.0823 97.8709 15.1719C98.7536 14.2891 99.8571 13.8478 101.264 13.8478C102.036 13.8754 102.809 14.0685 103.471 14.3443ZM99.7468 16.4961C99.3881 16.8547 99.1674 17.3513 99.0847 17.9582H103.361C103.333 17.2961 103.112 16.8271 102.699 16.4409C102.285 16.1099 101.816 15.9168 101.236 15.9168C100.602 15.9444 100.078 16.1375 99.7468 16.4961ZM107.609 10.8684H113.126C114.644 10.8684 115.692 11.3098 116.326 12.1926C116.685 12.7167 116.878 13.3236 116.878 14.0409C116.878 14.8409 116.657 15.503 116.188 16.0271C115.968 16.2754 115.609 16.5513 115.168 16.772C115.83 17.0202 116.299 17.2961 116.63 17.6271C117.209 18.1789 117.485 18.9513 117.485 19.9444C117.485 20.7444 117.237 21.5169 116.713 22.179C115.94 23.1721 114.699 23.6962 112.988 23.6962H107.526V10.8684H107.609ZM112.492 16.2754C113.237 16.2754 113.816 16.1651 114.23 15.9719C114.892 15.6409 115.195 15.0892 115.195 14.234C115.195 13.3788 114.864 12.8271 114.175 12.5512C113.761 12.4133 113.209 12.3029 112.437 12.3029H109.319V16.2754H112.492ZM113.044 22.1514C114.119 22.1514 114.892 21.8479 115.333 21.241C115.637 20.8272 115.775 20.3858 115.775 19.8341C115.775 18.9237 115.361 18.2892 114.533 17.9306C114.092 17.7375 113.513 17.6823 112.768 17.6823H109.292V22.179H113.044V22.1514ZM119.361 14.3167H120.823V15.9444C120.933 15.6133 121.237 15.2547 121.706 14.8133C122.175 14.3719 122.727 14.1512 123.361 14.1512C123.389 14.1512 123.444 14.1512 123.499 14.1512C123.582 14.1512 123.692 14.1512 123.858 14.1788V15.834C123.747 15.834 123.664 15.8064 123.609 15.8064C123.527 15.8064 123.471 15.8064 123.361 15.8064C122.589 15.8064 121.954 16.0547 121.568 16.5788C121.126 17.103 120.933 17.6823 120.933 18.3444V23.7238H119.361V14.3167ZM131.913 15.2271C132.713 16.0271 133.154 17.2133 133.154 18.7582C133.154 20.2755 132.796 21.5169 132.051 22.4824C131.306 23.4755 130.202 23.9445 128.658 23.9445C127.361 23.9445 126.368 23.5031 125.651 22.6479C124.906 21.7651 124.52 20.6341 124.52 19.1444C124.52 17.572 124.933 16.3582 125.706 15.3926C126.478 14.4823 127.554 13.9857 128.878 13.9857C130.065 14.0685 131.113 14.4271 131.913 15.2271ZM130.947 21.4617C131.306 20.6893 131.527 19.8065 131.527 18.841C131.527 17.9582 131.389 17.2685 131.113 16.7168C130.671 15.8616 129.927 15.4202 128.878 15.4202C127.913 15.4202 127.251 15.7788 126.809 16.5237C126.368 17.2685 126.147 18.1513 126.147 19.172C126.147 20.1651 126.368 20.9651 126.809 21.6272C127.251 22.2893 127.913 22.6203 128.878 22.6203C129.844 22.6479 130.561 22.2341 130.947 21.4617ZM134.92 10.8684H136.437V18.3168L140.465 14.3443H142.451L138.865 17.8202L142.672 23.6686H140.685L137.734 18.9237L136.437 20.1651V23.641H134.92V10.8684ZM149.182 14.565C149.817 14.8685 150.286 15.2547 150.589 15.7788C150.893 16.2478 151.113 16.7995 151.224 17.434C151.334 17.8754 151.362 18.5375 151.362 19.503H144.575C144.603 20.4686 144.823 21.1858 145.237 21.7927C145.651 22.3721 146.313 22.6479 147.141 22.6479C147.941 22.6479 148.603 22.3996 149.099 21.8479C149.348 21.5169 149.568 21.1858 149.679 20.7444H151.224C151.196 21.0755 151.03 21.4893 150.81 21.8755C150.589 22.2893 150.341 22.6479 150.037 22.8962C149.568 23.3652 148.961 23.6686 148.272 23.8617C147.913 23.9721 147.472 23.9997 146.975 23.9997C145.844 23.9997 144.851 23.5859 144.023 22.7583C143.196 21.9307 142.81 20.7444 142.81 19.2272C142.81 17.7099 143.223 16.4961 144.023 15.5857C144.823 14.6754 145.899 14.1788 147.196 14.1788C147.941 14.096 148.548 14.234 149.182 14.565ZM149.734 18.234C149.651 17.572 149.513 17.0202 149.292 16.6064C148.851 15.834 148.161 15.4754 147.168 15.4754C146.479 15.4754 145.844 15.7237 145.375 16.2478C144.906 16.772 144.63 17.434 144.603 18.234H149.734ZM153.21 14.3167H154.672V15.9444C154.782 15.6133 155.086 15.2547 155.555 14.8133C156.024 14.3719 156.575 14.1512 157.21 14.1512C157.237 14.1512 157.293 14.1512 157.348 14.1512C157.431 14.1512 157.541 14.1512 157.706 14.1788V15.834C157.596 15.834 157.513 15.8064 157.458 15.8064C157.403 15.8064 157.32 15.8064 157.21 15.8064C156.437 15.8064 155.803 16.0547 155.417 16.5788C154.975 17.103 154.782 17.6823 154.782 18.3444V23.7238H153.21V14.3167ZM160.051 20.7169C160.079 21.241 160.244 21.6272 160.465 21.9307C160.879 22.4548 161.569 22.7031 162.562 22.7031C163.141 22.7031 163.665 22.5927 164.134 22.3445C164.576 22.0962 164.796 21.71 164.796 21.1582C164.796 20.7444 164.603 20.4686 164.244 20.2479C164.024 20.1375 163.555 19.9996 162.893 19.8065L161.651 19.4755C160.851 19.2823 160.244 19.0617 159.858 18.8134C159.169 18.372 158.837 17.8203 158.837 17.0478C158.837 16.165 159.169 15.4754 159.803 14.9236C160.438 14.3719 161.32 14.1236 162.424 14.1236C163.858 14.1236 164.879 14.5374 165.513 15.365C165.927 15.8892 166.093 16.4685 166.093 17.0478H164.631C164.603 16.6892 164.493 16.3857 164.272 16.0823C163.913 15.6685 163.279 15.4478 162.369 15.4478C161.789 15.4478 161.293 15.5581 161.017 15.7788C160.713 15.9995 160.548 16.303 160.548 16.6616C160.548 17.0754 160.769 17.4065 161.182 17.6271C161.403 17.7651 161.762 17.8754 162.203 17.9858L163.279 18.234C164.41 18.4823 165.182 18.7858 165.596 19.0341C166.231 19.4479 166.507 20.0548 166.507 20.91C166.507 21.7652 166.176 22.4548 165.541 23.0341C164.907 23.6135 163.913 23.9445 162.644 23.9445C161.238 23.9445 160.244 23.6135 159.665 22.979C159.086 22.3445 158.782 21.572 158.7 20.6341H160.134V20.7169H160.051Z" fill="white" fill-opacity="0.56"/>
<path d="M11.3577 23.6416H0.902344V12.1104L11.3577 23.6416Z" fill="white" fill-opacity="0.56"/>
<path d="M9.89464 18.0686C11.6163 18.0686 13.0119 16.6729 13.0119 14.9513C13.0119 13.2296 11.6163 11.834 9.89464 11.834C8.17301 11.834 6.77734 13.2296 6.77734 14.9513C6.77734 16.6729 8.17301 18.0686 9.89464 18.0686Z" fill="white" fill-opacity="0.56"/>
<path d="M11.3577 0L0.902344 12.1106V23.6418L11.3577 0Z" fill="white" fill-opacity="0.56"/>
</svg>
