<svg width="145" height="24" viewBox="0 0 145 24" fill="none" xmlns="http://www.w3.org/2000/svg">
<path fill-rule="evenodd" clip-rule="evenodd" d="M17.095 5.54636H12.4828V16.2772L17.095 11.6658V5.54636ZM6.36504 0.000814714V4.61708H17.095L12.4828 0.000814714H6.36504V0.000814714ZM11.5527 16.2772V11.6658H0.820312L5.43576 16.2772H11.5527ZM0.823574 10.7365H5.43576V0L0.823574 4.61301V10.7365ZM32.6842 14.5637C32.6842 15.1734 32.3459 16.075 30.7311 16.075H28.7836V13.1999H30.7311C32.3459 13.1999 32.6842 13.9654 32.6842 14.5637ZM30.5419 11.6601H26.0602V20.9016H28.7836V17.6262H31.1142C33.801 17.6262 35.406 16.3187 35.406 14.6012C35.406 12.6945 33.9909 11.6601 30.5419 11.6601V11.6601ZM114.284 13.601C113.255 13.601 112.325 13.9768 111.768 14.4928H111.733V11.6609H109.45V20.9024H111.733V16.0049C112.259 15.3854 112.992 15.1661 113.6 15.1661C115.232 15.1661 115.259 16.2136 115.259 17.5798V20.9024H117.544V16.8331C117.544 15.2533 117.119 13.601 114.284 13.601V13.601ZM93.2458 13.601C92.2171 13.601 91.2242 13.9751 90.6748 14.4928H90.6398V13.751H88.3899V20.9024H90.6748V16.0049C91.2006 15.3854 91.9359 15.1661 92.5423 15.1661C94.1743 15.1661 94.1996 16.2136 94.1996 17.5798V20.9024H96.4861V16.8331C96.4853 15.2517 96.0826 13.601 93.2458 13.601V13.601ZM107.755 19.1335C107.113 19.2924 106.131 19.5191 104.79 19.5191C102.395 19.5191 100.96 18.2213 100.96 16.3204C100.96 14.4479 102.438 13.1249 104.553 13.041C105.401 13.0136 106.248 13.1097 107.069 13.3263L108.054 11.9144C106.97 11.6316 105.64 11.5256 104.392 11.5256C100.48 11.5256 98.1433 13.4934 98.1433 16.3212C98.1433 19.5989 101.27 20.9986 104.411 21.0817C105.365 21.1037 106.663 20.9733 107.755 20.7279V19.1335V19.1335ZM43.7859 18.2352L41.4276 11.6601H37.0836V20.9024H39.7125V13.5863H39.8666L42.555 20.9024H45.0176L47.7019 13.5863H47.86V20.9024H50.4938V11.6601H46.1661L43.7859 18.2352ZM58.8819 17.3197C58.8819 18.7145 58.1596 19.6682 56.6548 19.6682C55.1549 19.6682 54.4245 18.7145 54.4245 17.3197C54.4245 15.9201 55.1549 14.9615 56.6548 14.9615C58.1596 14.9623 58.8819 15.9209 58.8819 17.3197ZM61.3151 17.3197C61.3151 14.774 59.2748 13.508 56.6548 13.508C54.0373 13.508 51.9937 14.774 51.9937 17.3197C51.9937 19.8541 54.0373 21.1266 56.6548 21.1266C59.2739 21.1266 61.3151 19.8549 61.3151 17.3197ZM75.1036 13.7485V14.4349H75.0702C74.5753 13.9442 73.8009 13.601 72.4437 13.601C69.7912 13.601 68.6377 15.5321 68.6377 17.2823C68.6377 19.3422 69.8238 20.8934 72.2847 20.9774C73.5409 21.0296 74.5118 20.4809 74.9674 20.0473H74.9992V20.3464C74.9992 21.4502 74.5696 22.5229 72.3288 22.5229C71.4345 22.5229 70.4319 22.3729 69.483 21.9148V23.572C70.4172 23.8859 71.459 24 72.6671 24C76.3858 24 77.2597 21.9808 77.2597 20.0562V13.7485H75.1036V13.7485ZM72.9793 19.4644C71.653 19.4644 71.0155 18.4023 71.0155 17.3132C71.0155 16.2242 71.534 15.0666 73.0592 15.0666C74.4042 15.0666 75.0115 16.0554 75.0115 17.2717C75.0115 18.3085 74.4669 19.4644 72.9793 19.4644ZM86.5607 16.4027C86.5607 14.5621 85.4178 13.6002 82.8142 13.6002C81.9656 13.6002 80.7396 13.6939 79.6717 13.9825V15.4123C80.504 15.1098 81.501 14.9615 82.3112 14.9615C83.4639 14.9615 84.3491 15.1082 84.3491 16.5437H83.2267C82.2713 16.5437 80.9597 16.6358 80.2448 16.873C79.4166 17.1486 78.6275 17.7387 78.6275 18.7838C78.6275 20.4646 80.0973 21.0703 81.7496 21.0703C82.9691 21.0703 83.8258 20.798 84.4494 20.1834H84.4828V20.9016H86.5607V16.4027ZM84.3491 18.9778C83.6196 19.5321 82.8794 19.6911 82.224 19.7196C81.4423 19.7432 80.901 19.4954 80.901 18.7512C80.901 17.8757 82.1686 17.729 83.5617 17.729H84.35V18.9778H84.3491V18.9778ZM126.841 16.4027C126.841 14.5621 125.7 13.6002 123.09 13.6002C122.246 13.6002 121.023 13.6939 119.947 13.9825V15.4123C120.784 15.1098 121.785 14.9615 122.59 14.9615C123.749 14.9615 124.631 15.1082 124.631 16.5437H123.515C122.555 16.5437 121.243 16.6358 120.522 16.873C119.7 17.1486 118.909 17.7387 118.909 18.7838C118.909 20.4646 120.375 21.0703 122.026 21.0703C123.25 21.0703 124.11 20.798 124.727 20.1834H124.764V20.9016H126.84V16.4027H126.841V16.4027ZM124.631 18.9778C123.902 19.5321 123.16 19.6911 122.498 19.7196C121.723 19.7432 121.177 19.4954 121.177 18.7512C121.177 17.8757 122.446 17.729 123.843 17.729H124.631V18.9778V18.9778ZM21.0608 11.6601V17.2782C21.0608 18.5474 20.4796 19.3291 19.181 19.3479C18.7637 19.356 17.8776 19.3291 17.104 19.1612V20.9154C17.8849 21.0344 18.8354 21.0695 19.6098 21.0695C22.1979 21.0695 23.7859 19.7 23.7859 17.5847V11.6593H21.0608V11.6601ZM140.213 14.9525C141.299 14.9525 141.818 15.5753 141.985 16.3106C142.01 16.4271 142.025 16.5543 142.02 16.6611H138.225C138.319 15.753 138.96 14.9525 140.213 14.9525ZM143.216 19.2802C142.35 19.5223 141.746 19.6324 140.833 19.6324C139.354 19.6324 138.344 19.0797 138.225 17.927H144.06C144.093 17.5598 144.092 17.1903 144.056 16.8233C143.888 15.0096 142.777 13.601 140.081 13.601C137.317 13.601 136.083 15.4367 136.083 17.3915C136.083 20.0326 138.04 21.0711 140.643 21.0711C141.721 21.0711 142.473 20.9211 143.216 20.7271V19.2802V19.2802ZM131.945 13.601C130.196 13.601 128.437 14.1569 128.437 15.8011C128.437 17.2007 129.612 17.6352 130.933 17.989C132.339 18.3648 132.834 18.4651 132.859 18.9509C132.888 19.4653 132.38 19.7196 131.144 19.7196C130.359 19.7196 129.252 19.5207 128.535 19.2085V20.7206C129.715 21.0247 130.613 21.0711 131.436 21.0711C133.412 21.0711 135.178 20.5103 135.178 18.8058C135.178 17.4045 134.176 16.873 132.555 16.4972C131.371 16.2185 130.707 16.106 130.707 15.6087C130.707 15.0992 131.305 14.9126 132.294 14.9126C133.032 14.9126 133.755 15.1001 134.248 15.2582L135.095 14.0469C134.288 13.7934 133.238 13.601 131.945 13.601V13.601ZM67.3807 13.601C66.4091 13.601 65.501 13.8512 64.9377 14.8384H64.9035V13.751H62.7286V20.9024H65.0934V17.4078C65.0934 16.6578 65.2173 16.2054 65.3746 15.9478C65.6338 15.515 65.9534 15.2761 66.5754 15.1832C66.8892 15.14 67.3465 15.1783 67.6677 15.3634L68.7274 13.8512C68.2996 13.6792 67.8418 13.5942 67.3807 13.601V13.601Z" fill="white" fill-opacity="0.56"/>
</svg>
