<svg width="126" height="32" viewBox="0 0 126 32" fill="none" xmlns="http://www.w3.org/2000/svg">
<path fill-rule="evenodd" clip-rule="evenodd" d="M14.7565 0.365997C13.9265 0.779525 13.076 1.73504 12.8039 2.55956C12.6723 2.95804 12.4995 3.08932 11.7156 3.38587C10.4469 3.86571 9.04402 4.78889 8.26256 5.65797C7.05297 7.00331 6.23858 9.24874 6.23858 11.2386V12.1989L5.2327 12.8444C3.46459 13.9791 2.19718 15.5765 1.55267 17.4825C1.24748 18.3853 1.20531 20.8661 1.47489 22.0705C1.64283 22.8208 1.63344 22.9366 1.37325 23.3217C0.253524 24.9794 0.212842 26.7451 1.26641 27.9758C1.99839 28.8312 2.86911 29.1851 4.24053 29.1851C5.3698 29.1851 5.37859 29.1883 6.09687 29.834C6.98353 30.6311 8.69427 31.4839 9.88956 31.7246C11.7101 32.091 13.8711 31.6575 15.6611 30.567C15.9669 30.3807 16.284 30.2283 16.3661 30.2283C16.448 30.2283 16.876 30.4592 17.3173 30.7413C18.4297 31.4531 19.8123 31.8958 21.194 31.9828C23.488 32.1274 25.4504 31.3626 27.3248 29.5931C27.8593 29.0886 27.979 29.04 28.484 29.1216C28.7937 29.1717 29.3972 29.1292 29.8252 29.027C31.5322 28.6196 32.4871 27.566 32.5882 25.9785C32.6572 24.8959 32.4536 24.1581 31.8373 23.2558C31.4234 22.6502 31.409 22.5778 31.5607 21.8701C31.7902 20.8007 31.7583 18.9597 31.4927 17.9404C30.9744 15.9506 29.6196 14.1944 27.609 12.9061L26.5521 12.229L26.4556 10.909C26.3589 9.5879 26.1866 8.723 25.8813 8.02439C25.1709 6.39964 24.4778 5.48555 23.3193 4.64538C22.3814 3.96526 20.5894 3.10676 20.1074 3.10676C19.9446 3.10676 19.688 2.79784 19.4143 2.27225C18.3498 0.228452 16.5285 -0.517091 14.7565 0.365997ZM16.7863 0.580286C17.798 0.797258 19.0381 2.03024 19.1602 2.9403C19.2059 3.28171 19.3015 3.59688 19.3724 3.64069C19.5427 3.74605 19.5397 5.49107 19.3693 5.49107C19.2965 5.49107 19.1909 5.79939 19.1344 6.17626C19.0517 6.72733 18.894 6.99721 18.3294 7.55469C17.9432 7.93603 17.4797 8.33182 17.2995 8.4342C16.9103 8.65549 15.3288 8.68544 15.3288 8.47145C15.3288 8.38949 15.1747 8.32243 14.9865 8.32243C14.6036 8.32243 13.7252 7.46453 13.3841 6.75773C13.2654 6.51185 13.1072 6.26641 13.0322 6.21247C12.8212 6.06017 12.8464 3.44324 13.061 3.22866C13.1608 3.12881 13.2425 2.89292 13.2425 2.70441C13.2425 2.5159 13.3095 2.36166 13.3915 2.36166C13.4735 2.36166 13.5405 2.2718 13.5405 2.16183C13.5405 1.87064 14.7003 0.734074 15.0795 0.653753C15.2575 0.615902 15.5374 0.556741 15.7013 0.52202C15.8652 0.487298 16.0128 0.451235 16.0293 0.441698C16.0457 0.432161 16.3863 0.4946 16.7863 0.580286ZM16.0074 0.858505C15.9523 0.947619 15.7539 1.02049 15.5666 1.02049C15.3793 1.02049 15.1045 1.15461 14.9562 1.31853C14.8079 1.48245 14.5963 1.61657 14.4861 1.61657C14.3758 1.61657 14.2856 1.71715 14.2856 1.8401C14.2856 1.96304 14.2199 2.06362 14.1394 2.06362C14.0591 2.06362 13.9512 2.23127 13.8998 2.43617C13.8484 2.64107 13.7465 2.80872 13.6735 2.80872C13.6003 2.80872 13.5405 2.94284 13.5405 3.10676C13.5405 3.27068 13.4735 3.4048 13.3915 3.4048C13.3055 3.4048 13.2425 3.87376 13.2425 4.51365C13.2425 5.12358 13.3095 5.66393 13.3915 5.7146C13.4735 5.76526 13.5405 5.97031 13.5405 6.17045C13.5405 6.37058 13.6076 6.5342 13.6895 6.5342C13.7715 6.5342 13.8386 6.62123 13.8386 6.72748C13.8386 7.00361 14.9215 8.02439 15.2145 8.02439C15.3496 8.02439 15.5016 8.09145 15.5523 8.17341C15.6816 8.38264 16.6081 8.35924 17.0073 8.13661C17.6867 7.75795 18.7562 6.62197 18.7562 6.27908C18.7562 6.09146 18.8233 5.93812 18.9052 5.93812C18.9925 5.93812 19.0542 5.42624 19.0542 4.70067C19.0542 3.67735 18.9894 3.33312 18.6792 2.71052C18.2011 1.75143 17.4113 1.02049 16.8528 1.02049C16.6211 1.02049 16.3586 0.947619 16.2695 0.858505C16.1528 0.741823 16.0795 0.741823 16.0074 0.858505ZM16.4464 1.46755C16.4971 1.54951 16.6686 1.61657 16.8277 1.61657C16.9869 1.61657 17.117 1.71715 17.117 1.8401C17.117 1.96304 17.041 2.06362 16.9482 2.06362C16.8553 2.06362 16.6512 2.21145 16.4944 2.39236C16.2695 2.65151 16.0062 2.73391 15.2474 2.7822C14.2938 2.84285 14.2856 2.84016 14.2856 2.45346C14.2856 2.22173 14.3688 2.06362 14.491 2.06362C14.6038 2.06362 14.7796 1.96304 14.8817 1.8401C14.9838 1.71715 15.2227 1.61657 15.4127 1.61657C15.6028 1.61657 15.7997 1.54951 15.8503 1.46755C15.901 1.38559 16.0351 1.31853 16.1484 1.31853C16.2616 1.31853 16.3957 1.38559 16.4464 1.46755ZM12.4974 4.29891C12.4974 4.38087 12.4303 4.44793 12.3484 4.44793C12.2664 4.44793 12.1994 4.59919 12.1994 4.78412C12.1994 5.02285 12.0591 5.17827 11.715 5.32074C10.5542 5.80103 10.3083 5.94781 9.8225 6.45045C9.44205 6.84416 9.22895 6.95816 9.00289 6.88887C8.83495 6.83731 8.6679 6.76846 8.63183 6.73582C8.52424 6.63822 10.0112 5.19303 10.2192 5.19303C10.3248 5.19303 10.4111 5.12731 10.4111 5.04684C10.4111 4.96652 10.5788 4.85863 10.7837 4.80722C10.9886 4.75581 11.1562 4.65388 11.1562 4.58086C11.1562 4.50769 11.3198 4.44793 11.52 4.44793C11.7201 4.44793 11.9252 4.38087 11.9758 4.29891C12.0265 4.21695 12.1645 4.14989 12.2827 4.14989C12.4008 4.14989 12.4974 4.21695 12.4974 4.29891ZM118.636 9.3152C118.534 9.35663 118.45 9.44798 118.45 9.51816C118.45 9.5885 118.175 10.2367 117.838 10.9587C116.803 13.1791 116.423 14.0096 115.434 16.2205C115.269 16.5893 114.907 17.3821 114.631 17.9823C114.229 18.8565 114.129 19.261 114.129 20.0154C114.129 20.7585 114.181 20.9774 114.378 21.0528C114.515 21.1056 115.974 21.1438 117.619 21.1378C119.265 21.1318 120.695 21.1294 120.797 21.1324C120.937 21.1367 120.983 21.662 120.983 23.2464V25.3547L122.138 25.2601C124.141 25.0957 123.989 25.2829 123.95 23.0181L123.916 21.0636L124.679 21.1141C125.376 21.1603 125.449 21.1345 125.53 20.8114C125.579 20.6173 125.599 20.0245 125.574 19.4943L125.528 18.5303L124.746 18.4852L123.964 18.4401V15.4676V12.495L123.554 12.5015C123.106 12.5087 121.9 12.8069 121.64 12.975C121.478 13.079 121.153 15.7484 121.09 17.4871L121.058 18.3812L119.381 18.4234C118.459 18.4465 117.705 18.4058 117.705 18.3328C117.705 18.2598 117.927 17.7714 118.198 17.2475C118.47 16.7235 118.799 16.0267 118.93 15.6989C119.061 15.371 119.476 14.4464 119.852 13.6442C120.228 12.8419 120.536 12.1531 120.536 12.1135C120.536 12.0738 120.805 11.4664 121.132 10.7635C121.46 10.0607 121.691 9.42503 121.645 9.35111C121.559 9.21238 118.968 9.18138 118.636 9.3152ZM95.7992 11.8059C95.7992 13.2147 95.7591 13.5381 95.5844 13.5381C95.4662 13.5381 95.3283 13.471 95.2776 13.3891C95.2269 13.3071 94.9122 13.2401 94.5782 13.2401C92.389 13.2401 91.1772 14.7158 91.1788 17.3801C91.1799 19.1539 91.7874 20.3997 92.9113 20.933C93.5955 21.2577 94.9885 21.2722 95.5756 20.9608C95.9567 20.7587 96.051 20.7542 96.2148 20.931C96.3265 21.0512 96.701 21.1381 97.1089 21.1381L97.8109 21.1382L97.7614 15.8107C97.7342 12.8806 97.6527 10.4218 97.5804 10.3469C97.5081 10.2719 97.0777 10.1798 96.624 10.1421L95.7992 10.0737V11.8059ZM16.3719 10.5577C16.3719 10.6397 16.3048 10.7067 16.2229 10.7067C16.1409 10.7067 16.0739 10.6397 16.0739 10.5577C16.0739 10.4758 16.1409 10.4087 16.2229 10.4087C16.3048 10.4087 16.3719 10.4758 16.3719 10.5577ZM40.0156 11.8616C39.9636 12.4968 39.8177 14.0895 39.6915 15.4008C39.1772 20.7444 39.1684 20.8947 39.3612 21.0172C39.6041 21.1715 40.8337 21.1664 41.0802 21.0101C41.1872 20.9421 41.3022 20.5241 41.3357 20.0809C41.3693 19.6379 41.4763 18.1702 41.5734 16.8195L41.7502 14.3637L41.9533 15.1058C42.0649 15.514 42.2224 16.0826 42.3032 16.3695C43.1369 19.3326 43.3828 20.2237 43.4542 20.542C43.5625 21.0245 43.7415 21.133 44.4346 21.1359C45.1465 21.1387 45.5797 20.9147 45.5797 20.5438C45.5797 20.3866 45.6423 20.1039 45.7186 19.9157C45.795 19.7275 45.9722 19.171 46.1123 18.6793C46.2523 18.1875 46.4882 17.3828 46.6364 16.891C46.7845 16.3993 46.981 15.7034 47.0731 15.3447C47.1749 14.9483 47.2943 14.7461 47.3774 14.8292C47.4527 14.9045 47.5834 16.1369 47.6677 17.5677C47.7522 18.9988 47.8609 20.3875 47.9091 20.6538L47.9972 21.1381H48.9696H49.9421L49.8453 19.6852C49.7397 18.0984 49.5187 15.6756 49.2976 13.677C49.2198 12.9748 49.1561 12.1253 49.1561 11.7892C49.1561 10.7267 49.1287 10.7067 47.6671 10.7067H46.3589L46.0322 11.8616C45.8525 12.4968 45.6478 13.2177 45.5771 13.4636C45.5065 13.7095 45.2648 14.64 45.0401 15.5314C44.5775 17.3661 44.5961 17.3739 44.0097 15.1028C43.8193 14.3652 43.5236 13.2587 43.3529 12.644C43.1819 12.0293 43.0012 11.3419 42.9511 11.1165L42.8601 10.7067H41.4851H40.1101L40.0156 11.8616ZM71.062 11.3651C71.062 12.4749 71.0873 12.495 72.4914 12.495H73.7397L73.7793 16.7793L73.8188 21.0636H74.7874H75.7561L75.7956 16.7793L75.8352 12.495H77.0759H78.3167L78.4894 11.9189C78.5843 11.602 78.6619 11.1997 78.6619 11.0247C78.6619 10.7084 78.6421 10.7067 74.862 10.7067H71.062V11.3651ZM18.1601 11.4816C18.1601 11.7366 18.1203 11.7697 17.9813 11.6307C17.8666 11.5159 17.2793 11.4518 16.3421 11.4518H14.8817V12.346V13.2401H16.5209H18.1601V12.8018C18.1601 12.5607 18.2272 12.3221 18.3091 12.2714C18.5239 12.1387 18.4965 13.1422 18.2793 13.3593C18.1604 13.4782 17.511 13.5381 16.3421 13.5381H14.5837V12.5632C14.5837 11.9955 14.6615 11.5 14.7699 11.3767C14.9085 11.2194 15.3669 11.1636 16.5582 11.1595C18.1111 11.1539 18.1601 11.1638 18.1601 11.4816ZM60.4071 11.3377C60.0792 11.4198 59.731 11.5091 59.6331 11.536C59.5352 11.563 59.4095 11.9874 59.3538 12.4792C59.268 13.2387 59.2051 13.38 58.9358 13.4184C58.6662 13.4569 58.6189 13.5637 58.6189 14.1342C58.6189 14.707 58.6656 14.8115 58.9395 14.8505C59.2513 14.8949 59.2617 14.9681 59.3121 17.4584C59.3583 19.7385 59.3967 20.0647 59.662 20.4231C60.0824 20.9912 60.705 21.2111 61.8086 21.1813C62.9413 21.1509 63.2098 20.9581 63.073 20.2736C62.9833 19.8252 62.9392 19.7969 62.3309 19.7969C61.8441 19.7969 61.6462 19.7257 61.5299 19.5087C61.444 19.3478 61.3757 18.2611 61.3757 17.0499V14.8793H61.9679C62.4731 14.8793 62.5936 14.8146 62.7875 14.4397C63.2155 13.6122 63.1116 13.4102 62.2326 13.3596L61.4502 13.3146V12.2737C61.4502 11.1107 61.4204 11.0839 60.4071 11.3377ZM11.568 11.9232C11.8125 12.1677 11.1397 12.495 10.392 12.495C10.0726 12.495 9.69449 12.5599 9.55218 12.6392C9.15787 12.8593 7.90432 13.2401 7.57454 13.2401C7.41345 13.2401 7.28172 13.3071 7.28172 13.3891C7.28172 13.471 7.1257 13.5381 6.9351 13.5381C6.7445 13.5381 6.43112 13.7058 6.23858 13.9107C6.04605 14.1156 5.81969 14.2832 5.73535 14.2832C5.65115 14.2832 5.36533 14.4935 5.10023 14.7504C4.69296 15.1451 4.64974 15.249 4.82171 15.421C4.93362 15.5329 5.08667 15.6244 5.16177 15.6244C5.23688 15.6244 5.41719 15.7558 5.56263 15.9165C5.70808 16.0771 5.86931 16.1945 5.92102 16.1772C6.1374 16.1051 6.08375 16.4997 5.78378 17.1891C5.53089 17.7701 5.55026 19.2008 5.81105 19.2008C5.92147 19.2008 5.94934 19.0149 5.89197 18.6608C5.84368 18.3638 5.8413 18.1579 5.88675 18.2032C5.93205 18.2485 6.19939 18.1562 6.48089 17.9981C7.26741 17.5564 7.63698 17.6184 7.8778 18.2322C7.99031 18.5191 8.12055 18.7538 8.16734 18.7538C8.25273 18.7538 8.47417 19.2135 8.76714 19.9997C8.91974 20.4091 8.93926 20.4164 9.25876 20.1844C9.44175 20.0516 9.72563 19.8842 9.88956 19.8126C10.0535 19.7407 10.3153 19.5403 10.4715 19.367C10.6276 19.1937 10.8151 19.0518 10.888 19.0518C10.961 19.0518 11.1816 18.891 11.378 18.6946C11.7305 18.342 11.7314 18.334 11.4458 18.0754C11.2865 17.9313 11.1562 17.6937 11.1562 17.5473C11.1562 17.401 11.0892 17.2397 11.0072 17.1891C10.7668 17.0405 10.8361 16.5176 11.11 16.4125C11.2507 16.3586 11.3878 16.3935 11.4204 16.4917C11.4528 16.5884 11.5973 16.6675 11.7419 16.6675C12.3728 16.6675 13.9876 17.8047 13.9876 18.2491C13.9876 18.349 14.0715 18.4592 14.1739 18.4936C14.4761 18.5954 14.0113 19.0518 13.6056 19.0518C13.4155 19.0518 13.2204 19.1159 13.172 19.1943C13.1236 19.2727 13.0023 19.3081 12.9024 19.273C12.8026 19.2379 12.5931 19.3062 12.4367 19.4248C12.1615 19.6337 12.17 19.6753 12.71 20.7536C13.3179 21.9674 13.3423 22.3273 12.8318 22.5518C12.6479 22.6328 12.4974 22.7502 12.4974 22.8126C12.4974 22.8752 12.3633 22.9263 12.1994 22.9263C12.0354 22.9263 11.9013 22.9934 11.9013 23.0753C11.9013 23.3199 11.3693 23.2442 11.1164 22.9636C10.9872 22.8202 10.8354 22.5183 10.7792 22.293C10.7229 22.0677 10.6171 21.8832 10.544 21.8832C10.4709 21.8832 10.4111 21.7957 10.4111 21.6889C10.4111 21.582 10.1763 21.267 9.88926 20.9888C9.48378 20.5958 9.3276 20.5228 9.18887 20.6615C8.97294 20.8775 7.93219 20.8997 7.80329 20.691C7.75262 20.6091 7.45086 20.542 7.1327 20.542C6.81454 20.542 6.51278 20.475 6.46211 20.393C6.41145 20.311 6.06587 20.244 5.69422 20.244C5.13942 20.244 5.00426 20.2984 4.93899 20.548C4.86388 20.8353 4.84421 20.8381 4.58045 20.5994C4.32056 20.3642 4.28256 20.3638 4.02878 20.5934C3.87886 20.729 3.69676 20.84 3.62419 20.84C3.55147 20.84 3.17117 21.1561 2.77895 21.5422C2.15546 22.1565 2.06605 22.2031 2.06605 21.9148C2.06605 21.7336 1.99899 21.5851 1.91703 21.5851C1.71853 21.5851 1.71853 18.355 1.91703 18.2322C1.99899 18.1815 2.06605 17.9468 2.06605 17.7106C2.06605 17.4745 2.12789 17.2429 2.20359 17.1962C2.27929 17.1494 2.38361 16.9177 2.43561 16.6812C2.48747 16.4449 2.66033 16.1334 2.81964 15.9893C2.97894 15.8451 3.10918 15.6658 3.10918 15.5907C3.10918 15.5156 3.21856 15.3447 3.35238 15.2108C3.57725 14.986 3.58694 14.9951 3.47994 15.3322C3.37637 15.6582 3.39008 15.6752 3.60929 15.4932C3.744 15.3813 3.85428 15.2262 3.85428 15.1484C3.85428 14.9693 4.23696 14.5812 4.41369 14.5812C4.48731 14.5812 4.70488 14.4136 4.89741 14.2087C5.08994 14.0038 5.32584 13.8361 5.42181 13.8361C5.51778 13.8361 5.71776 13.702 5.86604 13.5381C6.01431 13.3742 6.24827 13.2401 6.38582 13.2401C6.52336 13.2401 6.68624 13.1897 6.74778 13.1283C6.80918 13.0669 6.90425 13.014 6.95879 13.0109C7.06356 13.0049 8.06944 12.5653 8.50904 12.3334C8.65135 12.2583 8.95878 12.1969 9.19215 12.1969C9.42551 12.1969 9.66394 12.1494 9.72206 12.0913C9.78018 12.0332 10.0863 12.0043 10.4023 12.0271C10.7183 12.0499 11.0212 11.9968 11.0753 11.9092C11.2026 11.7032 11.3523 11.7076 11.568 11.9232ZM20.6021 12.9003C20.6611 12.9593 20.9407 12.9878 21.2234 12.9635C21.5883 12.9319 21.764 12.9891 21.8297 13.1605C21.9518 13.4785 21.7786 13.6397 21.5552 13.4164C21.4582 13.3193 21.0906 13.2401 20.7382 13.2401C20.2679 13.2401 20.0974 13.1806 20.0974 13.0165C20.0974 12.785 20.4139 12.7121 20.6021 12.9003ZM53.2627 13.5451C52.2297 14.0604 51.8449 14.5501 51.4062 15.9074C51.0219 17.0962 51.3533 19.0766 52.0814 19.9418C52.2928 20.1932 52.7707 20.5775 53.1431 20.7956C54.0495 21.3269 55.7171 21.35 56.7858 20.8463C57.8033 20.3668 57.8833 20.2201 57.4727 19.5867C57.133 19.0623 56.8545 18.9211 56.6886 19.1895C56.6418 19.2651 56.2694 19.4381 55.8608 19.5737C54.6445 19.9778 53.6798 19.4992 53.5942 18.4492L53.5522 17.9342L55.713 17.8597L57.8738 17.7852L57.8387 16.742C57.8004 15.6019 57.6335 15.0496 57.1126 14.3404C56.3629 13.3198 54.4898 12.9329 53.2627 13.5451ZM65.5322 13.5831C65.0726 13.7633 64.5418 14.0157 64.3524 14.1442L64.0083 14.3777L64.3586 15.001C64.5513 15.3439 64.7805 15.6241 64.8678 15.6238C64.9551 15.6235 65.3566 15.4558 65.7597 15.2512C67.0623 14.5903 67.9326 14.8016 67.9326 15.7786V16.3695H67.093C66.6312 16.3695 65.9925 16.4477 65.6736 16.5432C64.5684 16.8743 63.76 17.9336 63.76 19.0506C63.76 19.6856 64.3793 20.7027 64.9535 21.0107C65.704 21.413 67.1772 21.3877 67.9209 20.9596L68.49 20.632L68.9806 21.045L69.4713 21.4577L70.0735 20.8555L70.6757 20.2534L70.3592 19.9133C70.0678 19.6004 70.0388 19.3779 69.9935 17.1146C69.9512 14.9951 69.9051 14.5981 69.6607 14.2373C68.976 13.2268 67.1706 12.9407 65.5322 13.5831ZM79.4097 13.4578L78.7418 13.6365L78.7852 17.1265C78.809 19.046 78.8627 20.7338 78.9042 20.8773C78.963 21.0794 79.1427 21.1381 79.703 21.1381C80.9616 21.1381 80.8972 21.2908 80.8972 18.3017V15.646L81.3009 15.3284C81.5748 15.1131 81.8694 15.025 82.2163 15.055C82.716 15.0979 82.7342 15.0797 82.9869 14.2813C83.1294 13.8315 83.2164 13.4132 83.1804 13.3518C83.0804 13.1811 82.111 13.2188 81.7443 13.4077C81.5653 13.5 81.2772 13.704 81.1042 13.8612C80.7916 14.1455 80.7886 14.1446 80.6019 13.6935C80.3971 13.1991 80.385 13.1967 79.4097 13.4578ZM85.5168 13.4192C84.3239 13.9281 83.5796 14.2892 83.5796 14.3589C83.5796 14.5055 84.363 15.6244 84.4655 15.6244C84.5212 15.6244 84.8613 15.4821 85.2215 15.308C86.0336 14.9156 86.9343 14.7824 87.2127 15.0134C87.4472 15.2082 87.6113 15.8767 87.4973 16.1738C87.449 16.2994 87.1542 16.3695 86.6731 16.3695C84.4571 16.3695 83.3273 17.3752 83.4614 19.2284C83.5173 20.0008 83.5916 20.1765 84.0608 20.6456C84.5588 21.1438 84.6728 21.1858 85.6898 21.2482C86.7354 21.3123 87.2203 21.2117 87.7687 20.817C87.9624 20.6775 88.1151 20.7255 88.5608 21.0654L89.113 21.4865L89.4384 21.1242C90.1899 20.2881 90.1893 20.2899 89.8522 19.8164C89.5687 19.4181 89.5403 19.1731 89.5403 17.1141C89.5403 14.4127 89.4164 14.0208 88.4126 13.549C87.6867 13.2077 86.1716 13.1398 85.5168 13.4192ZM101.387 13.5371C100.635 13.9174 99.8979 14.7274 99.6525 15.4436C99.4068 16.1607 99.4086 18.2227 99.6556 18.9438C99.9142 19.6989 100.455 20.3146 101.291 20.8041C101.888 21.154 102.135 21.2069 103.101 21.1925C103.917 21.1801 104.408 21.0867 104.919 20.8459C105.924 20.3729 106.003 20.2318 105.624 19.5898C105.316 19.0678 104.996 18.9079 104.822 19.1895C104.775 19.2651 104.403 19.4381 103.994 19.5737C103.382 19.7769 103.157 19.7893 102.718 19.6443C102.141 19.454 101.612 18.7611 101.612 18.195C101.611 17.8626 101.63 17.8597 103.776 17.8597C105.58 17.8597 105.956 17.8217 106.029 17.6323C106.164 17.2795 105.85 15.4614 105.54 14.8078C105.384 14.4795 104.98 14.0232 104.622 13.7722C103.775 13.1784 102.308 13.0717 101.387 13.5371ZM108.019 13.4599C107.359 13.6377 107.349 13.6505 107.383 14.2227C107.403 14.5428 107.47 16.213 107.532 17.9342L107.646 21.0636L108.228 21.1113C108.548 21.1373 108.967 21.1193 109.159 21.0712L109.509 20.9834V18.3148V15.646L109.902 15.3372C110.14 15.1499 110.513 15.0283 110.851 15.0283C111.395 15.0283 111.413 15.0106 111.63 14.2459C111.753 13.8157 111.824 13.4132 111.79 13.3518C111.693 13.1811 110.723 13.2189 110.356 13.4077C110.177 13.5 109.889 13.704 109.716 13.8612C109.403 14.1455 109.4 14.1446 109.214 13.6935C109.009 13.1986 108.996 13.1963 108.019 13.4599ZM12.1646 15.0904C12.8507 15.992 13.9697 16.5887 15.4501 16.8426C17.3653 17.171 19.4174 16.5028 20.5817 15.1721C21.1655 14.5046 21.2612 14.4504 21.6657 14.5577C22.0224 14.6523 22.1182 14.7668 22.1553 15.143C22.2255 15.8542 21.9753 16.1792 21.2646 16.2991C19.8586 16.5367 18.4296 17.7843 17.5992 19.4989C17.1377 20.452 17.049 20.8034 16.9964 21.8856C16.952 22.8023 16.9979 23.3056 17.1618 23.6981C17.3854 24.2328 17.3821 24.2477 16.9562 24.6271C16.4173 25.1072 16.2171 25.1097 15.7781 24.6424L15.4304 24.2723L15.7149 23.6404C15.9238 23.1762 15.9959 22.6907 15.9867 21.8124C15.9755 20.7722 15.9059 20.4709 15.4516 19.4989C14.5317 17.5308 13.0263 16.2433 11.3392 15.9819C10.6248 15.8712 10.6339 15.8793 10.4923 15.2193C10.398 14.7796 10.4306 14.7221 10.8847 14.5245C11.157 14.4058 11.4312 14.3203 11.494 14.3342C11.5569 14.348 11.8587 14.6884 12.1646 15.0904ZM55.5125 15.0474C55.6228 15.1389 55.713 15.4739 55.713 15.7916V16.3695H54.5836H53.454L53.5593 15.8901C53.6918 15.2864 53.9256 14.9076 54.2185 14.8215C54.546 14.725 55.2781 14.8529 55.5125 15.0474ZM103.306 14.8721C103.631 14.9957 103.99 15.7195 103.994 16.2577C103.995 16.3191 103.459 16.3695 102.803 16.3695C101.473 16.3695 101.413 16.3091 101.847 15.3946C102.144 14.7703 102.604 14.6054 103.306 14.8721ZM95.5384 15.2866C95.758 15.4844 95.7992 15.7922 95.7992 17.2377C95.7992 19.2719 95.6844 19.4989 94.6562 19.4989C94.0832 19.4989 93.9717 19.4418 93.7113 19.0146C93.3633 18.444 93.3151 16.6355 93.625 15.7734C93.936 14.9079 94.8579 14.6733 95.5384 15.2866ZM2.81114 16.2205C2.81114 16.3024 2.88222 16.3695 2.96895 16.3695C3.05568 16.3695 3.08534 16.3024 3.03467 16.2205C2.984 16.1385 2.91307 16.0714 2.87686 16.0714C2.84065 16.0714 2.81114 16.1385 2.81114 16.2205ZM25.6111 17.0401C25.7631 17.2232 25.7528 17.2636 25.5548 17.2636C25.4218 17.2636 25.313 17.163 25.313 17.0401C25.313 16.9171 25.3384 16.8165 25.3694 16.8165C25.4002 16.8165 25.509 16.9171 25.6111 17.0401ZM12.1994 17.7106C12.1994 17.8746 12.1283 18.0087 12.0415 18.0087C11.9548 18.0087 11.9255 18.0762 11.9766 18.1589C12.0345 18.2528 12.1496 18.2288 12.2834 18.095C12.5285 17.8498 12.5701 17.4126 12.3484 17.4126C12.2664 17.4126 12.1994 17.5467 12.1994 17.7106ZM67.9326 18.4812C67.9326 19.4178 67.6478 19.7969 66.9443 19.7969C66.2959 19.7969 65.9209 19.2716 66.0558 18.5525C66.164 17.9759 66.5446 17.7357 67.3737 17.7208L67.9326 17.7106V18.4812ZM87.4541 18.5511C87.4541 19.5071 87.2334 19.7844 86.4664 19.7921C85.8032 19.7989 85.598 19.4741 85.6487 18.4978C85.6696 18.0957 86.2966 17.725 86.9698 17.7166L87.4541 17.7106V18.5511ZM21.9601 19.4989C22.1084 19.6628 22.2912 19.7969 22.3663 19.7969C22.6092 19.7969 22.9287 20.2142 22.9287 20.5314C22.9287 20.7012 22.8775 20.84 22.8149 20.84C22.6952 20.84 22.1836 21.9277 22.1836 22.1823C22.1836 22.2636 22.1166 22.3302 22.0346 22.3302C21.9527 22.3302 21.8856 22.4644 21.8856 22.6283C21.8856 22.8695 21.7862 22.9263 21.364 22.9263C20.7499 22.9263 20.659 22.6694 21.2488 22.6009C21.6603 22.5532 21.7801 22.3961 22.1743 21.3878C22.292 21.0865 22.4428 20.84 22.5096 20.84C22.5762 20.84 22.6307 20.6724 22.6307 20.4675C22.6307 20.2422 22.5458 20.095 22.4157 20.095C22.2973 20.095 22.1027 19.9553 21.9832 19.7847C21.6458 19.3031 21.134 19.4661 20.7745 20.1695C20.607 20.4973 20.3862 20.8542 20.2836 20.9624C20.1813 21.0707 20.0974 21.2552 20.0974 21.3722C20.0974 21.4893 20.0303 21.5851 19.9484 21.5851C19.6151 21.5851 19.8089 22.1779 20.1719 22.269C20.5531 22.3647 20.6938 22.6323 20.3582 22.6234C19.9008 22.6111 19.1663 21.5851 19.615 21.5851C19.7286 21.5851 19.7692 21.5188 20.3132 20.4447C20.4728 20.1294 20.6453 19.8379 20.6966 19.7969C20.7478 19.7559 20.8329 19.6051 20.886 19.4616C21.0161 19.1086 21.6262 19.1298 21.9601 19.4989ZM10.7837 19.7969C10.6354 19.9608 10.4238 20.095 10.3135 20.095C10.0292 20.095 10.0588 20.9076 10.3521 21.1509C10.564 21.3267 10.886 21.927 10.9202 22.21C10.927 22.2668 11.0857 22.4557 11.2729 22.6301C11.5787 22.915 11.6577 22.9272 12.0553 22.7512C12.2985 22.6436 12.4974 22.5049 12.4974 22.4429C12.4974 22.3809 12.598 22.3302 12.7209 22.3302C12.8439 22.3302 12.9445 22.2566 12.9445 22.1665C12.9445 21.9876 12.4888 20.9602 12.3561 20.84C12.2253 20.7216 11.9135 20.1993 11.7556 19.8342C11.576 19.4189 11.1409 19.4022 10.7837 19.7969ZM7.39557 21.3115C7.52745 21.4434 7.4972 21.5473 7.2689 21.7452C6.9351 22.0347 6.98905 22.0994 7.69018 22.2498C8.0134 22.3191 8.32917 22.2756 8.6445 22.1183C9.16264 21.8598 9.81505 21.8051 9.81505 22.02C9.81505 22.5945 9.351 22.7892 8.74941 22.4672C8.36554 22.2618 8.22158 22.3989 8.48624 22.7177C8.63377 22.8955 8.67833 23.3387 8.64718 24.3204C8.62334 25.0667 8.55792 25.7121 8.50144 25.7547C8.44511 25.7973 8.30191 26.0334 8.18343 26.2793C7.85202 26.9667 6.82647 27.9845 6.16407 28.2831C5.10827 28.7591 4.08347 28.955 3.60854 28.7718C3.37488 28.6814 2.96851 28.5652 2.70564 28.5134C2.28108 28.4296 1.98394 28.1649 1.16671 27.1424C0.974628 26.902 0.979248 24.7146 1.17193 24.7146C1.25389 24.7146 1.32095 24.5655 1.32095 24.3833C1.32095 23.9276 3.06075 22.1812 3.51466 22.1812C3.70153 22.1812 3.85428 22.1142 3.85428 22.0322C3.85428 21.9502 4.0179 21.8832 4.21803 21.8832C4.41817 21.8832 4.62322 21.8161 4.67388 21.7342C4.72455 21.6522 4.95925 21.5851 5.19545 21.5851C5.43164 21.5851 5.66993 21.5123 5.72506 21.4232C5.78005 21.334 5.95157 21.2943 6.10626 21.3346C6.26079 21.375 6.42486 21.3473 6.47076 21.2731C6.58952 21.081 7.18992 21.1059 7.39557 21.3115ZM6.76015 21.4361C6.70949 21.5181 6.81007 21.5851 6.98368 21.5851C7.15729 21.5851 7.25788 21.5181 7.20721 21.4361C7.15654 21.3542 7.05595 21.2871 6.98368 21.2871C6.91141 21.2871 6.81082 21.3542 6.76015 21.4361ZM28.8895 21.7342C28.8895 21.8161 29.0245 21.8832 29.1896 21.8832C30.0809 21.8832 32.0189 23.8322 32.0189 24.7287C32.0189 24.8752 32.086 25.0364 32.1679 25.0871C32.2499 25.1378 32.317 25.406 32.317 25.6832C32.317 25.9604 32.2499 26.2286 32.1679 26.2793C32.086 26.3299 32.0189 26.535 32.0189 26.7351C32.0189 26.9352 31.9632 27.0989 31.8951 27.0989C31.827 27.0989 31.6815 27.2665 31.5719 27.4714C31.4622 27.6763 31.3078 27.844 31.2288 27.844C31.1498 27.844 30.9543 27.9948 30.7943 28.1792C30.5243 28.4904 30.384 28.5139 28.8493 28.5066C27.7041 28.5011 27.177 28.4438 27.1359 28.3204C27.1032 28.2222 26.9961 28.142 26.8979 28.142C26.6644 28.142 25.015 26.4739 25.015 26.2377C25.015 26.1375 24.948 26.0557 24.866 26.0557C24.784 26.0557 24.717 25.8921 24.717 25.692C24.717 25.4918 24.6499 25.2868 24.568 25.2361C24.486 25.1855 24.4189 24.8929 24.4189 24.5859C24.4189 24.1438 24.3106 23.923 23.8974 23.5224C23.6105 23.2443 23.3758 22.9515 23.3758 22.8716C23.3758 22.7916 23.2648 22.6037 23.1292 22.4538C22.8942 22.194 22.91 22.1815 23.4645 22.1878C23.7846 22.1914 24.3146 22.2454 24.6425 22.3082C25.1411 22.4036 25.3603 22.356 25.9836 22.0172C26.5885 21.6883 26.932 21.6096 27.8091 21.5987C28.439 21.5908 28.8895 21.6473 28.8895 21.7342ZM26.8032 22.0161C26.8032 22.0891 26.6188 22.1949 26.3934 22.2513C25.8516 22.3864 25.4987 22.7204 25.2163 23.3655C25.0889 23.6567 24.9123 24.0472 24.824 24.2332C24.7061 24.4815 24.7101 24.6183 24.8392 24.7473C24.9359 24.844 25.015 25.0783 25.015 25.268C25.015 26.0444 26.0854 27.2521 27.2503 27.7896C27.7011 27.9977 28.1842 28.2277 28.3238 28.3008C28.4787 28.3821 28.6128 28.377 28.6679 28.288C28.7175 28.2077 29.109 28.142 29.5379 28.142C30.2645 28.142 30.3623 28.0965 30.9722 27.475C31.5766 26.8592 31.6319 26.7372 31.6936 25.8842C31.775 24.7593 31.5435 24.2355 30.4693 23.1135C29.9699 22.5919 29.5574 22.3013 29.2291 22.2398C28.9585 22.189 28.7004 22.0879 28.6556 22.0154C28.5487 21.8424 26.8032 21.8431 26.8032 22.0161ZM3.66145 22.5414C3.35044 22.7532 3.06611 22.9263 3.02975 22.9263C2.77508 22.9263 2.36408 23.51 2.36408 23.8718C2.36408 24.227 2.40164 24.2729 2.57435 24.1295C2.79922 23.9428 2.8402 23.9785 3.2202 24.6943C3.4403 25.1089 3.46817 25.7577 3.26595 25.7577C3.18831 25.7577 3.10456 26.1098 3.07967 26.54C3.04257 27.185 2.97581 27.3482 2.69938 27.4695C2.31714 27.6373 2.25545 27.844 2.58761 27.844C2.71055 27.844 2.81114 27.911 2.81114 27.993C2.81114 28.0749 2.94526 28.142 3.10918 28.142C3.2731 28.142 3.40722 28.2091 3.40722 28.291C3.40722 28.373 3.737 28.44 4.13995 28.44C5.66024 28.44 8.02682 26.7247 8.02682 25.6227C8.02682 25.4607 8.09387 25.2868 8.17583 25.2361C8.35317 25.1264 8.37865 23.9695 8.2037 23.9695C8.13694 23.9695 7.99031 23.7346 7.87765 23.4476C7.4899 22.4593 7.12659 22.2617 5.59348 22.2061C4.32697 22.1602 4.1854 22.1848 3.66145 22.5414ZM27.1013 22.7773C27.1013 22.8593 27.0342 22.9263 26.9523 22.9263C26.8703 22.9263 26.8032 23.1323 26.8032 23.384C26.8032 23.9432 26.5794 24.1855 25.9458 24.3123C25.575 24.3864 25.4621 24.3577 25.4621 24.1893C25.4621 24.0684 25.5291 23.9695 25.6111 23.9695C25.693 23.9695 25.7601 23.8888 25.7601 23.7903C25.7601 23.6917 25.9744 23.3899 26.2364 23.1197C26.7027 22.6386 27.1013 22.4808 27.1013 22.7773ZM9.06995 23.0753C9.06995 23.1573 8.99887 23.2244 8.91214 23.2244C8.82541 23.2244 8.79575 23.1573 8.84642 23.0753C8.89709 22.9934 8.96802 22.9263 9.00423 22.9263C9.04044 22.9263 9.06995 22.9934 9.06995 23.0753ZM19.5013 23.8204C19.5013 23.9024 19.4342 23.9695 19.3523 23.9695C19.2703 23.9695 19.2033 24.0593 19.2033 24.1693C19.2033 24.3948 18.0625 25.6087 17.8506 25.6087C17.5903 25.6087 17.7143 25.3679 18.2346 24.8636C18.5215 24.5855 18.7562 24.284 18.7562 24.1936C18.7562 23.9695 19.0709 23.6714 19.3076 23.6714C19.4141 23.6714 19.5013 23.7385 19.5013 23.8204ZM20.1719 26.9498C20.2226 27.0318 20.1594 27.0989 20.0317 27.0989C19.9039 27.0989 19.7993 27.0318 19.7993 26.9498C19.7993 26.8679 19.8624 26.8008 19.9396 26.8008C20.0168 26.8008 20.1212 26.8679 20.1719 26.9498ZM11.3052 27.6204C11.143 27.8159 11.2711 27.844 12.3302 27.844C13.4908 27.844 13.9864 27.6332 13.1307 27.5036L12.7209 27.4416L13.1125 27.4193C13.5343 27.3951 13.9247 27.7329 13.7681 27.9864C13.7152 28.072 13.583 28.142 13.4742 28.142C13.3656 28.142 13.0845 28.2421 12.8497 28.3646C12.615 28.487 12.2719 28.5876 12.0876 28.5882C11.9033 28.5886 11.7523 28.6561 11.7523 28.7381C11.7523 28.82 11.4546 28.8871 11.0905 28.8871C10.7264 28.8871 10.3873 28.82 10.3366 28.7381C10.2859 28.6561 10.1144 28.5891 9.95527 28.5891C9.55367 28.5891 9.59405 28.3079 10.0664 27.8149C10.353 27.5158 10.6124 27.3969 10.9789 27.3969C11.417 27.3969 11.4639 27.4291 11.3052 27.6204Z" fill="white" fill-opacity="0.56"/>
</svg>
