<svg width="115" height="32" viewBox="0 0 115 32" fill="none" xmlns="http://www.w3.org/2000/svg">
<path d="M11.3647 24.6142L11.1729 24.6929C10.0267 25.0756 8.30955 25.6483 6.81704 26.3761C6.73851 26.4135 6.66504 26.5279 6.66504 26.5279C6.62465 26.6038 6.58371 26.6824 6.55146 26.7589C6.3916 27.1411 6.13163 27.7166 6.05311 27.9827L5.9802 28.178V28.2513L6.01273 28.2921H6.05311L6.23736 28.2162C6.66504 28.0206 7.19619 27.7166 7.73492 27.4505H7.77054C8.75668 26.9899 9.73736 26.5176 10.7124 26.0339C10.7124 26.0339 10.8257 25.958 10.9045 25.8439L11.4382 24.769V24.6932C11.4382 24.6142 11.3975 24.5791 11.365 24.6142H11.3647ZM7.08514 22.9315C7.16366 22.777 7.50244 22.1256 7.58348 21.9733V21.9353C9.91283 17.5333 12.7436 13.3976 15.983 9.60625L16.0643 9.49075C16.1056 9.45141 16.1056 9.41375 16.0643 9.37638C16.0239 9.3376 15.983 9.29826 15.9508 9.3376H15.799C13.6537 9.64531 11.4785 10.0278 9.34129 10.5628C9.10853 10.6401 8.99495 10.7559 8.95428 10.791C7.35044 12.7072 5.8582 14.7358 4.44113 16.8055C4.4874 16.9196 4.4874 17.15 4.4874 17.15C4.4874 17.15 4.82618 19.8294 5.32733 21.8212C4.10264 25.4586 2.95703 30.2816 2.95703 30.2816V30.3603C2.95703 30.3983 2.9977 30.3983 3.02995 30.3983H3.75629C3.79443 30.3983 3.83481 30.3606 3.87548 30.3224L3.90801 30.1678C4.63407 28.178 5.47905 26.1859 6.39189 24.2694C6.62465 23.8462 7.08514 22.9315 7.08514 22.9315Z" fill="white" fill-opacity="0.56"/>
<path d="M17.0983 10.4114V10.2579C17.0983 10.2186 17.0571 10.179 17.0249 10.1436C16.9845 10.1436 16.9435 10.1436 16.9054 10.179L16.83 10.2945C13.0025 14.6985 9.83574 19.5987 7.31961 24.8458L7.23828 24.959V25.0759C7.27053 25.1113 7.27053 25.1113 7.31961 25.1113H7.35186L7.466 25.0759C9.60297 24.1941 11.7862 23.4286 13.9613 22.7773C14.0752 22.739 14.1941 22.6632 14.2676 22.5494C15.2264 20.7115 17.4366 17.1112 17.4366 17.1112C17.5179 16.9957 17.4828 16.8808 17.4828 16.8808C17.4828 16.8808 17.0983 12.5917 17.0983 10.4114Z" fill="white" fill-opacity="0.56"/>
<path d="M21.9874 4.20762C21.4562 3.7462 20.6432 3.51689 19.425 3.48036C18.3604 3.44102 17.0544 3.70967 15.5647 4.16828C15.337 4.24724 15.1827 4.36105 14.9909 4.51167C13.4656 5.92994 12.0162 7.46229 10.6376 8.99408L10.5187 9.10817C10.4834 9.14751 10.4834 9.18404 10.5187 9.22339C10.5563 9.26189 10.5969 9.29842 10.6376 9.26188L10.7896 9.22311C13.0486 8.72543 15.2966 8.38063 17.5152 8.1488C17.6669 8.1488 17.8211 8.18814 17.9322 8.26401C18.0544 8.38063 18.0864 8.49613 18.0864 8.64703C18.0544 10.8698 18.1274 13.0898 18.3144 15.2339V15.3871C18.3144 15.4245 18.3604 15.4638 18.3924 15.4638H18.4336C18.474 15.4638 18.5065 15.4638 18.5065 15.4245L18.585 15.3101C19.8442 13.5122 21.1831 11.7871 22.6346 10.1434C22.7861 9.95092 22.827 9.83543 22.8674 9.68087C23.32 6.88537 22.6346 4.74379 21.9874 4.20762ZM37.9986 15.393C37.2723 14.6674 36.5199 14.4347 35.542 14.4347C34.3551 14.4347 33.2311 14.9574 32.673 15.8108V14.5592H31.1755V24.8153H32.673V18.5206C32.673 16.9565 33.6237 15.7693 35.1216 15.7693C35.9124 15.7693 36.3328 15.9558 36.8931 16.5193L37.9986 15.393ZM46.0381 19.6882C46.0381 18.1033 45.8319 16.6646 44.7867 15.6023C44.0823 14.8936 43.1041 14.435 41.8528 14.435C40.607 14.435 39.6291 14.8936 38.9221 15.6021C37.8845 16.6643 37.6789 18.1031 37.6789 19.688C37.6789 21.2731 37.8845 22.7088 38.9219 23.773C39.6291 24.4812 40.6073 24.9403 41.8525 24.9403C43.1041 24.9403 44.0823 24.4814 44.7867 23.773C45.8319 22.7091 46.0381 21.2731 46.0381 19.6882ZM44.54 19.6882C44.54 20.8339 44.4749 22.1038 43.7298 22.8561C43.2508 23.3358 42.5842 23.6072 41.8528 23.6072C41.1273 23.6072 40.4797 23.3358 40.0083 22.8561C39.255 22.1038 39.1771 20.8339 39.1771 19.6882C39.1771 18.5403 39.255 17.2701 40.0083 16.5193C40.4794 16.0387 41.1273 15.769 41.8528 15.769C42.5842 15.769 43.2508 16.0387 43.7298 16.5193C44.4749 17.2701 44.5402 18.5403 44.5402 19.6882H44.54ZM56.3634 19.6882C56.3634 18.0814 56.1578 16.3729 55.1202 15.3334C54.5809 14.7919 53.6605 14.435 52.6229 14.435C51.4988 14.435 50.5591 14.6846 49.727 15.7473V9.97678H48.2292V24.8153H49.727V23.5859C50.5591 24.6686 51.4988 24.9403 52.6229 24.9403C53.6605 24.9403 54.5809 24.5846 55.1202 24.0419C56.1578 23.0022 56.3634 21.292 56.3634 19.6882ZM54.8655 19.6882C54.8655 21.6885 54.5324 23.6072 52.3088 23.6072C50.0877 23.6072 49.727 21.6885 49.727 19.6882C49.727 17.6869 50.0877 15.7693 52.3088 15.7693C54.5324 15.7693 54.8655 17.6869 54.8655 19.6882ZM60.0582 24.8153V14.5592H58.5604V24.8153H60.0582ZM60.1589 11.642V9.95486H58.4821V11.642H60.1589ZM70.869 24.8153V18.2495C70.869 17.0608 70.5352 16.1017 69.8039 15.393C69.1785 14.7672 68.2875 14.4347 67.1823 14.4347C66.0448 14.4347 65.0448 14.8515 64.3134 15.6852V14.5592H62.8158V24.8153H64.3134V18.499C64.3134 16.7067 65.3106 15.7693 66.8491 15.7693C68.3929 15.7693 69.3711 16.6848 69.3711 18.499V24.8153H70.869ZM81.5468 24.8153V18.2275C81.5468 15.914 80.176 14.435 77.8652 14.435C76.7221 14.435 75.7414 14.8329 74.9968 15.685V9.97678H73.4984V24.8153H74.9968V18.4779C74.9968 16.7067 76.0148 15.769 77.5541 15.769C79.0898 15.769 80.0484 16.6848 80.0484 18.4779V24.8153H81.5468ZM92.0051 19.6882C92.0051 18.1033 91.7939 16.6646 90.754 15.6023C90.0408 14.8936 89.0685 14.435 87.8172 14.435C86.5743 14.435 85.5939 14.8936 84.8838 15.6021C83.8518 16.6643 83.6375 18.1031 83.6375 19.688C83.6375 21.2731 83.8518 22.7088 84.8838 23.773C85.5939 24.4812 86.5743 24.9403 87.8172 24.9403C89.0685 24.9403 90.0408 24.4814 90.754 23.773C91.7939 22.7091 92.0051 21.2731 92.0051 19.6882ZM90.5072 19.6882C90.5072 20.8339 90.4421 22.1038 89.6945 22.8561C89.2096 23.3358 88.543 23.6072 87.8172 23.6072C87.0909 23.6072 86.4467 23.3358 85.9669 22.8561C85.2141 22.1038 85.1356 20.8339 85.1356 19.6882C85.1356 18.5403 85.2141 17.2701 85.9669 16.5193C86.4467 16.0387 87.0909 15.769 87.8172 15.769C88.543 15.769 89.2096 16.0387 89.6945 16.5193C90.4421 17.2701 90.5072 18.5403 90.5072 19.6882ZM102.016 19.6882C102.016 18.1033 101.81 16.6646 100.765 15.6023C100.066 14.8936 99.0884 14.435 97.8371 14.435C96.5908 14.435 95.6076 14.8936 94.909 15.6021C93.863 16.6643 93.6574 18.1031 93.6574 19.688C93.6574 21.2731 93.863 22.7088 94.909 23.773C95.6079 24.4812 96.5908 24.9403 97.8371 24.9403C99.0887 24.9403 100.066 24.4814 100.765 23.773C101.81 22.7091 102.016 21.2731 102.016 19.6882H102.016ZM100.518 19.6882C100.518 20.8339 100.459 22.1038 99.7085 22.8561C99.2346 23.3358 98.5677 23.6072 97.8371 23.6072C97.1057 23.6072 96.4658 23.3358 95.987 22.8561C95.2422 22.1038 95.1547 20.8339 95.1547 19.6882C95.1547 18.5403 95.2422 17.2701 95.987 16.5193C96.466 16.0387 97.1057 15.769 97.8371 15.769C98.5677 15.769 99.2346 16.0387 99.7085 16.5193C100.459 17.2701 100.518 18.5403 100.518 19.6882ZM111.811 24.8153V9.97678H110.313V15.7473C109.479 14.6846 108.541 14.435 107.417 14.435C106.377 14.435 105.459 14.7919 104.92 15.3334C103.88 16.3732 103.674 18.0817 103.674 19.6882C103.674 21.292 103.88 23.0022 104.92 24.0419C105.459 24.5846 106.377 24.9403 107.417 24.9403C108.541 24.9403 109.5 24.6686 110.332 23.5859V24.8153H111.811ZM110.313 19.6882C110.313 21.6885 109.98 23.6072 107.748 23.6072C105.518 23.6072 105.172 21.6885 105.172 19.6882C105.172 17.6869 105.519 15.7693 107.748 15.7693C109.98 15.7693 110.313 17.6869 110.313 19.6882Z" fill="white" fill-opacity="0.56"/>
</svg>
