<svg width="127" height="40" viewBox="0 0 127 40" fill="none" xmlns="http://www.w3.org/2000/svg">
<path fill-rule="evenodd" clip-rule="evenodd" d="M21.1095 4.80194C20.9852 7.44315 20.8071 11.4786 20.7137 13.7698L20.5433 17.9358L21.4265 15.5056C22.8637 11.5501 26.0319 0.750564 25.7958 0.611352C25.6761 0.540878 24.6231 0.374241 23.4563 0.241625L21.3351 0L21.1095 4.80194ZM11.6184 10.4173C10.6235 11.1154 9.80347 11.7709 9.79583 11.8736C9.78819 11.9764 11.7347 13.9014 14.1215 16.1517C16.5082 18.402 18.461 20.1892 18.461 20.1232C18.461 19.807 13.9475 9.63999 13.7052 9.41087C13.5521 9.2661 12.6131 9.7188 11.6184 10.4173ZM26.788 15.8875C24.0027 18.6961 22.4256 20.5138 22.8946 20.3749C23.3282 20.2461 26.1017 18.9682 29.0581 17.5352C32.7377 15.7514 34.3509 14.7988 34.1718 14.5166C33.0793 12.796 31.8715 11.1661 31.6889 11.1661C31.5684 11.1661 29.3629 13.2907 26.788 15.8875ZM11.0352 19.4175C10.5134 22.051 10.4259 22.9682 10.6981 22.9537C10.8623 22.945 12.3086 22.6683 13.9114 22.3388L16.8255 21.7396L15.4657 20.8398C14.7179 20.3447 13.4573 19.6091 12.6644 19.2047L11.223 18.469L11.0352 19.4175ZM45.5396 27.6563V34.7731H46.7443H47.9489L48.0461 30.3468L48.1433 25.9205H49.0112H49.8792L49.9764 30.3468L50.0736 34.7731H51.1046H52.1357V29.8087C52.1357 26.4103 52.0041 24.7127 51.7191 24.4277C51.49 24.1986 50.7401 24.0111 50.0527 24.0111C49.3654 24.0111 48.6155 24.1986 48.3864 24.4277C48.0625 24.7516 47.9698 24.3659 47.9698 22.6919V20.5395H46.7547H45.5396V27.6563ZM54.2812 21.3206C54.3662 21.9195 54.6558 22.1271 55.5205 22.2104C56.5283 22.3076 56.6488 22.2243 56.6488 21.4293C56.6488 20.6405 56.5082 20.5395 55.4094 20.5395C54.3232 20.5395 54.184 20.6357 54.2812 21.3206ZM67.758 27.6563V34.7731H68.7995C69.8278 34.7731 69.841 34.7495 69.841 32.9023C69.841 31.6209 70.0371 30.7891 70.4631 30.2631C71.0824 29.498 71.0887 29.5056 71.9128 32.134C72.7259 34.7259 72.7609 34.7731 73.8944 34.7731C74.529 34.7731 75.0484 34.7068 75.0484 34.6256C75.0484 34.5443 74.4832 32.9047 73.7927 30.9818C72.5995 27.6601 72.5648 27.4418 73.0984 26.6162C74.9797 23.7035 74.9258 24.0111 73.5559 24.0111C72.4565 24.0111 72.2117 24.1982 71.1727 25.8337L70.0145 27.6563L69.9156 24.0979L69.8167 20.5395H68.7873H67.758V27.6563ZM110.806 21.4074C110.806 22.1677 110.956 22.2753 112.021 22.2753C113.086 22.2753 113.236 22.1677 113.236 21.4074C113.236 20.6471 113.086 20.5395 112.021 20.5395C110.956 20.5395 110.806 20.6471 110.806 21.4074ZM40.3322 22.5818C40.3322 23.6383 40.1819 23.9694 39.6379 24.1118C39.2223 24.2204 38.9436 24.5853 38.9436 25.02C38.9436 25.5154 39.1647 25.7469 39.6379 25.7469C40.2892 25.7469 40.3322 25.9785 40.3322 29.4883C40.3322 34.0139 40.6842 34.7731 42.7821 34.7731C44.0007 34.7731 44.151 34.6804 44.151 33.9285C44.151 33.389 43.9003 33.0047 43.4567 32.8637C42.8238 32.6627 42.7623 32.3385 42.7623 29.1953C42.7623 25.9785 42.8089 25.7469 43.4567 25.7469C43.9298 25.7469 44.151 25.5154 44.151 25.02C44.151 24.5853 43.8722 24.2204 43.4567 24.1118C42.9127 23.9694 42.7623 23.6383 42.7623 22.5818C42.7623 21.2727 42.7273 21.2338 41.5473 21.2338C40.3673 21.2338 40.3322 21.2727 40.3322 22.5818ZM27.4872 22.4562C25.2914 22.6964 23.4327 22.9103 23.3567 22.9314C23.2136 22.971 30.9022 26.7884 31.1251 26.7884C31.2622 26.7884 31.4931 25.6942 31.8385 23.4036C31.9611 22.5919 31.9305 21.9486 31.7705 21.9736C31.6104 21.9986 29.683 22.2159 27.4872 22.4562ZM54.3711 24.4617C54.276 24.7096 54.2419 27.0922 54.2951 29.7559L54.3923 34.5995L55.5205 34.7082L56.6488 34.8172V29.414V24.0111H55.5966C55.0175 24.0111 54.4662 24.2139 54.3711 24.4617ZM58.9633 24.2427C58.8359 24.3697 58.7318 26.7912 58.7318 29.6237V34.7731H59.9468H61.1619V30.4708C61.1619 26.8679 61.2511 26.134 61.7111 25.9576C63.1904 25.39 63.2449 25.5431 63.2449 30.26V34.7731H64.46H65.675V30.2763C65.675 24.9061 65.391 24.0111 63.6872 24.0111C63.0369 24.0111 62.1711 24.1899 61.7632 24.4079C61.2067 24.7058 60.9883 24.7058 60.889 24.4079C60.7471 23.9813 59.3449 23.8608 58.9633 24.2427ZM77.9052 24.2434C76.9425 24.6308 76.437 26.4034 76.437 29.3921C76.437 32.4978 76.9401 34.1451 78.0149 34.5575C78.7401 34.8356 81.0772 34.8356 81.8024 34.5575C82.8772 34.1451 83.3803 32.4978 83.3803 29.3921C83.3803 26.2864 82.8772 24.6391 81.8024 24.2267C81.1456 23.9747 78.5457 23.9858 77.9052 24.2434ZM85.4633 29.3921V34.7731H86.5047H87.5462V30.9543C87.5462 27.589 87.6292 27.0526 88.2458 26.436C88.7401 25.9417 89.1987 25.8 89.808 25.9528C90.5881 26.1486 90.6707 26.0663 90.6707 25.0901C90.6707 24.1399 90.5547 24.0111 89.6986 24.0111C89.164 24.0111 88.5197 24.2066 88.2666 24.4451C87.8986 24.7922 87.7747 24.7922 87.6476 24.4451C87.5601 24.2066 87.0328 24.0111 86.4759 24.0111H85.4633V29.3921ZM92.4318 24.9259C91.106 26.6114 91.6264 28.0903 94.2492 30.091C95.4765 31.0269 95.8899 31.5622 95.8115 32.1139C95.6532 33.2244 94.2541 33.3157 93.7674 32.2472C93.4785 31.6129 93.1828 31.4484 92.5488 31.5695C91.4504 31.7796 91.457 32.8137 92.5645 33.9208C93.2192 34.5759 93.782 34.7731 94.9946 34.7731C97.0585 34.7731 97.9611 33.9198 97.9611 31.9691C97.9611 30.4985 97.6396 30.059 94.872 27.7476C94.2461 27.2251 93.7993 26.6002 93.8788 26.359C94.0968 25.6962 95.5001 25.6094 95.7431 26.2434C96.025 26.978 97.9611 26.9856 97.9611 26.252C97.9611 25.957 97.5775 25.3321 97.1088 24.8634C95.866 23.6202 93.4331 23.6528 92.4318 24.9259ZM99.1057 24.9658C99.2102 25.4911 99.6566 27.9122 100.098 30.3468C100.886 34.6968 100.916 34.7731 101.816 34.7731C102.686 34.7731 102.764 34.6239 103.352 31.8223C103.693 30.1993 104.079 28.8714 104.211 28.8714C104.343 28.8714 104.67 30.1604 104.938 31.7355C105.391 34.3996 105.487 34.6068 106.313 34.703C107.183 34.8044 107.224 34.7068 108.312 30.0163C109.667 24.1725 109.674 24.0111 108.539 24.0111C107.526 24.0111 107.513 24.0382 106.973 27.4286C106.749 28.8308 106.449 29.8462 106.304 29.6851C106.16 29.524 105.841 28.1732 105.594 26.6836C105.165 24.0868 105.111 23.9795 104.268 24.0798C103.47 24.175 103.335 24.4343 102.817 26.8735C102.503 28.3524 102.159 29.6497 102.052 29.757C101.945 29.8639 101.667 28.6148 101.435 26.9814L101.014 24.0111H99.9649C99.0057 24.0111 98.9321 24.093 99.1057 24.9658ZM111.038 24.2427C110.91 24.3697 110.806 26.7912 110.806 29.6237V34.7731H112.021H113.236V29.3921V24.0111H112.253C111.711 24.0111 111.165 24.1153 111.038 24.2427ZM115.551 24.2427C115.423 24.3697 115.319 26.7912 115.319 29.6237V34.7731H116.524H117.728L117.826 30.3468L117.923 25.9205H118.791H119.659L119.756 30.3468L119.853 34.7731H120.873H121.894L121.991 30.5575C122.071 27.1272 122.193 26.2763 122.649 25.9892C122.957 25.7952 123.465 25.7344 123.777 25.8542C124.261 26.0399 124.345 26.7152 124.345 30.4228V34.7731H125.387H126.428V30.0635C126.428 27.4734 126.267 25.0519 126.069 24.6825C125.651 23.9021 123.37 23.7369 122.67 24.4364C122.335 24.7721 122.101 24.7721 121.564 24.4364C120.681 23.8851 118.711 23.8899 118.123 24.4451C117.755 24.7922 117.631 24.7922 117.504 24.4451C117.336 23.9896 115.948 23.8455 115.551 24.2427ZM8.89981 28.3038C4.8821 30.4298 1.33584 32.3274 1.01923 32.5204C0.510985 32.8304 0.607496 33.0866 1.84513 34.7093C2.61583 35.7198 3.37438 36.4992 3.53129 36.4409C3.76875 36.3531 8.09925 32.4524 15.49 25.6688C16.2648 24.9575 16.7425 24.3895 16.5516 24.4069C16.3607 24.4239 12.9172 26.1777 8.89981 28.3038ZM17.49 28.6801C16.4787 30.753 15.7757 32.5638 15.9278 32.7037C16.0798 32.8436 17.1026 33.0654 18.2006 33.1963L20.1968 33.4345L20.167 32.4548C20.1506 31.916 19.9555 29.9983 19.733 28.193L19.3289 24.911L17.49 28.6801ZM23.0921 28.0035C23.9538 29.7219 25.7379 33.1241 27.0571 35.564L29.456 40L31.2435 38.6884C32.2267 37.967 33.0255 37.2206 33.0185 37.0297C33.0112 36.8387 30.4228 34.0267 27.2657 30.7808L21.5261 24.879L23.0921 28.0035ZM80.938 26.4183C81.1355 26.7877 81.2973 28.126 81.2973 29.3921C81.2973 31.9948 80.8943 33.0373 79.8878 33.0373C78.9699 33.0373 78.52 31.7667 78.52 29.1731C78.52 26.794 78.9442 25.7469 79.9087 25.7469C80.277 25.7469 80.7401 26.049 80.938 26.4183Z" fill="white" fill-opacity="0.56"/>
</svg>
