<svg width="55" height="24" viewBox="0 0 55 24" fill="none" xmlns="http://www.w3.org/2000/svg">
<path fill-rule="evenodd" clip-rule="evenodd" d="M41.483 0.0503411C41.2937 0.0938816 40.7129 0.214694 40.1923 0.31864C39.1342 0.529803 37.1446 1.39493 36.1279 2.08556C35.1187 2.77119 33.5544 4.36791 32.8458 5.43525C32.2516 6.33067 31.2622 8.55932 31.2491 9.03224C31.2452 9.17818 31.5379 9.24736 32.1581 9.24736H33.073L33.4781 8.25781C35.1468 4.18118 39.2711 1.59009 43.611 1.89212C47.064 2.13237 50.2811 4.24055 51.8455 7.28787L52.4972 8.55743L53.4193 8.55829C54.3395 8.55898 54.3412 8.55795 54.2228 8.08571C54.0079 7.22936 53.0299 5.44368 52.2361 4.4586C50.706 2.559 48.3342 1.01993 45.9575 0.383865C44.9272 0.108166 42.1353 -0.0998994 41.483 0.0503411ZM50.6234 9.7449C49.4012 9.92784 49.1413 10.3233 49.1413 12.0009C49.1413 13.035 49.2121 13.4269 49.452 13.7233C50.1018 14.5257 53.6422 14.5717 54.4261 13.7876C54.7723 13.4415 54.8205 13.223 54.8205 12.0009C54.8205 10.752 54.777 10.5649 54.398 10.1862C54.1657 9.95382 53.7979 9.76297 53.5806 9.76211C53.3634 9.76142 52.7984 9.72872 52.3251 9.68983C51.8519 9.65093 51.086 9.67571 50.6234 9.7449ZM0.09375 10.1939C0.09375 10.605 0.1397 10.6241 1.12633 10.6241H2.15891V12.5172V14.4103H2.6752H3.19149V12.5172V10.6241H4.22407C5.2107 10.6241 5.25665 10.605 5.25665 10.1939V9.76366H2.6752H0.09375V10.1939ZM5.94504 12.087V14.4103H6.46133C6.95852 14.4103 6.97762 14.3815 6.97762 13.6358V12.8614H8.23548C9.65872 12.8614 10.0286 13.0485 10.1077 13.8079C10.1542 14.255 10.2389 14.3316 10.739 14.3795L11.3167 14.4349L11.2129 13.605C11.1055 12.7457 11.1026 12.6471 11.1432 11.2437C11.1819 9.90839 10.8908 9.76366 8.1632 9.76366H5.94504V12.087ZM14.1518 9.89273C13.6386 10.7868 11.7963 14.2469 11.7963 14.317C11.7963 14.3683 12.0598 14.4103 12.3816 14.4103C12.8681 14.4103 13.027 14.3086 13.3223 13.8079L13.6779 13.2056H15.1324H16.587L16.9592 13.8079C17.2673 14.3063 17.433 14.4103 17.9199 14.4103C18.2434 14.4103 18.5081 14.3769 18.5081 14.3361C18.5081 14.2951 17.9601 13.2496 17.2903 12.0128L16.0728 9.76366H15.1493C14.6414 9.76366 14.1926 9.82165 14.1518 9.89273ZM19.0244 12.087V14.4103L20.7023 14.4027C22.7487 14.3936 23.8357 14.2001 24.1341 13.7921C24.2771 13.5964 24.3594 12.9595 24.3594 12.0462C24.3594 10.7493 24.3181 10.5672 23.9369 10.1862C23.5316 9.78069 23.4237 9.76366 21.2694 9.76366H19.0244V12.087ZM25.392 12.087V14.4103H27.8013H30.2107V13.894V13.3777H28.3176H26.4246V12.8614V12.3451H28.3176H30.2107V11.9149V11.4846H28.3176H26.4246V11.0544V10.6241H28.3176H30.2107V10.1939V9.76366H27.8013H25.392V12.087ZM30.8991 10.188C30.8991 10.6099 30.9108 10.6128 32.7426 10.6613L34.5861 10.7102L32.7426 12.0808C31.1613 13.2562 30.8991 13.5202 30.8991 13.9351V14.419L33.6096 14.3715L36.3201 14.3242V13.894C36.3201 13.466 36.3108 13.4636 34.5418 13.4145L32.7636 13.3653L34.5849 11.9718C35.9931 10.8943 36.4062 10.4859 36.4062 10.171V9.76366H33.6526H30.8991V10.188ZM37.2667 12.087V14.4103H39.676H42.0854V13.894V13.3777H40.1923H38.2992V12.8614V12.3451H40.1923H42.0854V11.9149V11.4846H40.1923H38.2992V11.0544V10.6241H40.1923H42.0854V10.1939V9.76366H39.676H37.2667V12.087ZM42.9839 12.0439L43.0319 14.3242L43.5912 14.3781C44.1485 14.432 44.1505 14.429 44.1505 13.6467V12.8614H45.258C46.8557 12.8614 47.2483 13.0493 47.2483 13.8146C47.2483 14.4075 47.2705 14.4299 47.8076 14.3781C48.2743 14.3332 48.376 14.2456 48.4216 13.8491C48.4516 13.5876 48.361 13.1429 48.2204 12.8609C48.0752 12.57 48.033 12.3059 48.1227 12.2505C48.2096 12.1968 48.2808 11.7701 48.2808 11.3024C48.2808 9.88206 48.0487 9.76366 45.2642 9.76366H42.9359L42.9839 12.0439ZM15.6613 11.3707C15.9019 11.7813 16.0987 12.1685 16.0987 12.2312C16.0987 12.2938 15.6728 12.3451 15.1522 12.3451C14.6316 12.3451 14.2057 12.3009 14.2057 12.2467C14.2057 12.1133 15.0827 10.6241 15.1613 10.6241C15.1956 10.6241 15.4207 10.9601 15.6613 11.3707ZM23.1487 10.957C23.2466 11.1401 23.3268 11.6099 23.3268 12.0009C23.3268 13.2615 23.1738 13.3777 21.5138 13.3777H20.057V12.0009V10.6241H21.5138C22.7778 10.6241 22.9942 10.6682 23.1487 10.957ZM53.579 11.0843C53.848 11.4426 53.7706 12.7755 53.4627 13.0834C53.1927 13.3534 51.1586 13.4563 50.721 13.2221C49.9782 12.8246 50.0911 11.0028 50.8733 10.7654C51.6262 10.5369 53.3178 10.7363 53.579 11.0843ZM9.98931 11.3125C9.98931 11.7349 9.96178 11.7436 8.48347 11.7925L6.97762 11.8422V11.3125V10.7828L8.48347 10.8325C9.96178 10.8814 9.98931 10.8902 9.98931 11.3125ZM47.1467 11.0762C47.3593 11.6299 46.9258 11.8288 45.5063 11.8288H44.1505V11.3125V10.7962H45.5949C46.7702 10.7962 47.0593 10.8484 47.1467 11.0762ZM53.4382 14.7073C52.6803 14.7684 52.6504 14.7932 52.368 15.5879C51.6354 17.6505 49.4377 20.074 47.3822 21.0857C44.6052 22.4527 41.0548 22.431 38.2891 21.0305C36.4724 20.1106 34.6207 18.2035 33.7409 16.3464L33.3129 15.4428H32.3526C31.2192 15.4428 31.22 15.426 32.2437 17.508C33.0971 19.2441 35.4457 21.6333 37.1806 22.5303C40.4093 24.1998 43.6041 24.444 46.9576 23.2779C50.059 22.1992 52.8187 19.5647 54.0332 16.5229C54.5891 15.131 54.7064 14.575 54.4366 14.6133C54.3165 14.6304 53.8673 14.6727 53.4382 14.7073Z" fill="white" fill-opacity="0.56"/>
</svg>
