<svg width="161" height="24" viewBox="0 0 161 24" fill="none" xmlns="http://www.w3.org/2000/svg">
<path fill-rule="evenodd" clip-rule="evenodd" d="M132.532 0.330171C130.955 1.13439 131.257 3.44877 132.995 3.88522C134.279 4.2073 135.223 3.4663 135.326 2.05612C135.405 0.977796 135.328 0.815746 134.55 0.413207C133.517 -0.120926 133.423 -0.124949 132.532 0.330171ZM92.3814 0.511471C89.6975 1.20306 88.0276 3.44044 88.3902 5.85884C88.7206 8.06232 90.1954 9.33085 93.7203 10.4428C95.6827 11.062 96.4378 11.8214 95.9717 12.7075C95.7922 13.0482 95.5031 13.4223 95.3293 13.5384C94.7963 13.8941 91.6323 13.7568 90.4198 13.3252C89.1133 12.8597 89.0746 12.8856 88.5453 14.5702C88.0801 16.0508 88.1761 16.151 90.5597 16.6786C93.9432 17.4276 97.4368 16.8874 98.8352 15.3991C99.8101 14.3613 100.401 12.6517 100.184 11.495C99.7388 9.12311 98.8183 8.29993 95.152 6.9952C93.9697 6.57456 92.8235 6.06025 92.6055 5.85223C91.9851 5.26092 92.4314 4.1168 93.4465 3.69644C94.3012 3.34218 95.1526 3.43067 97.9069 4.15932C98.3959 4.28862 98.5654 4.1214 98.8593 3.2192C99.0559 2.61554 99.2791 1.97423 99.3553 1.79408C99.6986 0.981532 94.365 0.000611253 92.3814 0.511471ZM3.79886 0.87867C2.34788 1.295 1.26669 2.16214 0.621072 3.42722C-0.486557 5.59881 -0.363583 5.71316 3.08285 5.71316H6.11296L5.88425 6.79062C5.75869 7.38337 5.6587 8.8378 5.66244 10.023C5.6679 11.8492 5.79489 12.4072 6.49481 13.6801C8.13514 16.6639 7.9297 16.9055 10.9046 8.49502C12.3683 4.35757 13.5638 0.875222 13.5615 0.756845C13.5552 0.438491 4.95936 0.545663 3.79886 0.87867ZM15.0369 2.48423C13.8098 6.00192 13.6486 5.71316 16.8393 5.71316C19.056 5.71316 19.8427 5.59651 20.7515 5.13277C22.0019 4.49492 23.167 2.92498 23.4664 1.47515L23.6592 0.541353L19.6855 0.544801L15.7121 0.548536L15.0369 2.48423ZM31.9729 0.916597C30.9652 1.26972 30.1228 2.20811 29.7953 3.34275C29.6114 3.97946 29.6484 3.98923 32.2139 3.98923H34.8191V10.3103V16.6314H36.8304H38.8416V10.3103V3.98923H40.1489C42.197 3.98923 43.7609 2.95458 44.1657 1.33149L44.3631 0.541353L38.6572 0.557443C35.0159 0.567787 32.5972 0.697944 31.9729 0.916597ZM70.4471 3.72144V6.90153L69.657 6.35102C68.5339 5.56864 67.6242 5.40429 66.2924 5.74362C64.0352 6.31855 62.6854 8.09909 62.4696 10.7867C62.2139 13.9748 63.5643 16.226 66.1502 16.9222C67.4406 17.2696 69.2823 16.9116 69.8742 16.1984C70.3308 15.6482 70.7345 15.6491 70.7345 16.2004C70.7345 16.5358 71.1175 16.6314 72.4584 16.6314H74.1823V8.58639V0.541353H72.3147H70.4471V3.72144ZM102.053 4.56387C102.053 5.80884 101.976 6.00049 101.478 6.00049C100.988 6.00049 100.903 6.19213 100.903 7.29344C100.903 8.36975 100.994 8.58639 101.446 8.58639C101.939 8.58639 101.999 8.87716 102.097 11.7311C102.187 14.3679 102.301 15.006 102.805 15.681C103.674 16.8452 105.622 17.3408 107.663 16.9173L109.236 16.5906V15.4853C109.236 13.774 109.083 13.5867 107.788 13.7099C106.083 13.8726 105.788 13.4763 105.788 11.0243C105.788 8.84814 105.942 8.58639 107.222 8.58639C107.809 8.58639 109.236 7.04404 109.236 6.40935C109.236 6.10105 108.811 6.00049 107.512 6.00049H105.788V4.56387V3.12726H103.92H102.053V4.56387ZM122.74 4.56387C122.74 5.64938 122.634 6.00049 122.309 6.00049C121.99 6.00049 121.878 6.33579 121.878 7.29344C121.878 8.25109 121.99 8.58639 122.309 8.58639C122.654 8.58639 122.741 9.0283 122.747 10.8131C122.759 14.8946 123.527 16.4177 125.834 16.936C126.801 17.1532 129.769 16.8894 130.09 16.5576C130.128 16.5191 130.088 15.8735 130.003 15.123L129.848 13.7582H128.459C126.706 13.7582 126.418 13.2965 126.534 10.664L126.619 8.73005L127.53 8.64185C128.507 8.54703 129.766 7.49284 130.008 6.56737C130.144 6.04675 130.007 6.00049 128.316 6.00049H126.475V4.56387V3.12726H124.607H122.74V4.56387ZM54.3571 5.60743C53.962 5.67064 53.154 5.87033 52.5613 6.05106C51.5057 6.37314 51.4838 6.40877 51.4838 7.80114C51.4838 9.04582 51.5462 9.19552 51.9866 9.0056C53.2302 8.46859 55.0978 8.24477 55.8506 8.54186C56.6191 8.84556 57.7314 10.1922 57.4478 10.4758C57.3665 10.5571 56.7226 10.4781 56.0163 10.3003C54.3576 9.88251 52.5613 10.3379 51.4384 11.4608C50.3552 12.544 50.2707 14.7555 51.2683 15.9123C52.4458 17.2776 54.992 17.4109 56.8346 16.2039C57.442 15.8057 57.5176 15.8048 57.5176 16.1938C57.5176 16.5326 57.8742 16.6314 59.0979 16.6314H60.6782V12.6514C60.6782 8.99611 60.625 8.59156 60.0279 7.69512C59.0278 6.19357 56.5013 5.2635 54.3571 5.60743ZM79.5145 5.8393C77.9316 6.42429 77.0412 7.15265 76.4016 8.38498C74.4702 12.107 76.4275 16.1556 80.5057 16.8742C82.0788 17.1512 85.2822 16.9084 86.0134 16.4565C86.1436 16.376 86.2499 15.7221 86.2499 15.0032C86.2499 13.7091 86.2418 13.6984 85.4597 13.9418C85.0253 14.0771 83.8071 14.188 82.7529 14.1886C81.1192 14.1892 80.7267 14.0863 80.0951 13.4927C79.6877 13.1094 79.3541 12.6894 79.3541 12.5589C79.3541 12.4285 80.9703 12.3216 82.9457 12.3216C86.9688 12.3216 86.7199 12.4802 86.5521 10.023C86.3352 6.8478 82.6742 4.67133 79.5145 5.8393ZM114.408 5.60628C114.012 5.6692 113.205 5.85338 112.612 6.01571C111.547 6.30735 111.534 6.32832 111.534 7.76666C111.534 9.04008 111.597 9.19667 112.037 9.01709C114.138 8.15799 115.775 8.17466 116.759 9.06536C117.046 9.3251 117.281 9.7785 117.281 10.073C117.281 10.6117 117.039 10.6181 115.212 10.125C114.383 9.90147 112.293 10.6089 111.462 11.3947C110.782 12.0377 110.672 12.3673 110.672 13.7619C110.672 15.6315 111.29 16.4519 113.069 16.9429C114.263 17.2727 116.134 16.8897 116.708 16.1984C117.164 15.6482 117.568 15.6491 117.568 16.2004C117.568 16.5323 117.938 16.6314 119.175 16.6314H120.783L120.684 12.5371C120.594 8.79413 120.527 8.36199 119.915 7.5029C118.942 6.13898 116.452 5.28161 114.408 5.60628ZM141.231 5.68558C137.359 6.6711 135.547 11.0657 137.648 14.3788C139.804 17.7784 145.444 17.9195 147.622 14.6282C148.974 12.5845 148.879 9.46273 147.406 7.59082C146.207 6.066 143.282 5.16352 141.231 5.68558ZM155.279 5.99302C154.608 6.29787 154.049 6.71506 154.039 6.92021C154.028 7.12536 153.879 7.00267 153.708 6.64696C153.437 6.08582 153.174 6.00049 151.716 6.00049H150.036V11.316V16.6314H151.903H153.771V13.3913C153.771 9.72965 154.09 8.87372 155.454 8.87372C156.791 8.87372 156.931 9.27424 156.931 13.0974V16.6314H158.799H160.667V12.5997C160.667 8.22063 160.371 6.9452 159.182 6.19874C158.01 5.46262 156.611 5.38878 155.279 5.99302ZM47.1723 6.53261L46.3528 7.35205L46.1833 6.67627C46.029 6.06111 45.8598 6.00049 44.2953 6.00049H42.5768V11.316V16.6314H44.4444H46.312V13.6533C46.312 11.0755 46.3922 10.5735 46.9076 9.91813C47.3906 9.30384 47.7432 9.16104 48.7752 9.16104H50.0472V7.4371V5.71316H49.0195C48.2724 5.71316 47.7679 5.93699 47.1723 6.53261ZM131.647 11.316V16.6314H133.514H135.382V11.316V6.00049H133.514H131.647V11.316ZM82.6713 8.71712C83.7732 9.81872 83.5689 10.023 81.3654 10.023C79.145 10.023 78.8166 9.68425 79.9831 8.5976C80.8235 7.81436 81.8128 7.85832 82.6713 8.71712ZM12.8449 8.65822C12.7794 8.8559 12.124 10.6982 11.3885 12.7526C8.71237 20.2287 7.52343 23.6542 7.52343 23.8883C7.52343 24.0202 8.00843 24.0378 8.60089 23.9277C11.9959 23.2973 14.7875 20.8965 15.8348 17.706C16.6974 15.0787 15.896 11.12 14.1198 9.23287C13.1435 8.19563 13.0179 8.13903 12.8449 8.65822ZM69.4286 9.05214C70.7951 9.57651 71.043 12.4463 69.7972 13.3189C68.9712 13.8976 67.4481 13.8789 66.8521 13.2827C64.8107 11.2413 66.7662 8.03071 69.4286 9.05214ZM144.329 9.42308C144.867 9.85866 145.007 10.2506 145.007 11.316C145.007 12.3814 144.867 12.7733 144.329 13.2088C143.402 13.9599 141.878 13.922 141.14 13.1293C140.342 12.2733 140.336 10.2411 141.129 9.44836C141.866 8.71138 143.435 8.69902 144.329 9.42308ZM57.3817 12.6216C57.6409 13.0408 56.7479 14.3173 56.0031 14.5929C55.1182 14.9201 54.3559 14.6449 54.0031 13.8705C53.5356 12.8442 54.1459 12.3216 55.8118 12.3216C56.5735 12.3216 57.2797 12.4566 57.3817 12.6216ZM117.281 12.9454C117.281 13.8743 116.455 14.6202 115.426 14.6202C114.436 14.6202 113.833 14.1849 113.833 13.4709C113.833 12.6779 114.474 12.3216 115.902 12.3216C117.126 12.3216 117.281 12.3917 117.281 12.9454Z" fill="white" fill-opacity="0.56"/>
</svg>
