<svg width="93" height="16" viewBox="0 0 93 16" fill="none" xmlns="http://www.w3.org/2000/svg">
<g clip-path="url(#clip0_3302_85529)">
<path fill-rule="evenodd" clip-rule="evenodd" d="M2.42575 0.133986C2.48125 0.0530917 2.57458 0 2.68035 0C2.85055 0 2.99553 0.144173 2.99553 0.313738C2.99553 0.341282 2.99171 0.367802 2.98457 0.392904C2.98535 0.391226 2.98611 0.38954 2.98685 0.387846C2.98733 0.386767 2.98845 0.383542 2.99018 0.378322C1.80776 4.66259 7.51391 8.11974 15.8371 8.11974C24.146 8.11974 29.8459 4.67443 28.688 0.400353L28.6887 0.401504C28.6775 0.369712 28.6715 0.33542 28.6715 0.299666C28.6715 0.134179 28.8005 0 28.9684 0C29.0887 0 29.1926 0.0687957 29.2419 0.168599C30.2305 1.53396 30.7982 3.06825 30.8197 4.68991C30.8919 10.3892 24.1778 16 15.818 16C7.45824 16 0.74624 10.3892 0.82093 4.68991C0.843372 3.05453 1.4211 1.508 2.42575 0.133986Z" fill="white" fill-opacity="0.56"/>
<path fill-rule="evenodd" clip-rule="evenodd" d="M35.7969 1.0882C36.2277 1.25284 36.6955 1.34306 37.1845 1.34306C37.6138 1.34306 38.0269 1.27351 38.4129 1.1451L39.7419 12.1277C39.7605 12.2951 39.7605 12.4067 39.8352 12.4067C39.9099 12.4067 39.9099 12.2951 39.9472 12.1277L41.5525 5.59766C41.6645 5.15116 41.9259 4.76048 42.7285 4.76048H44.0166C44.8192 4.76048 45.0806 5.15116 45.1926 5.59766L46.7979 12.1277C46.8352 12.2951 46.8352 12.4067 46.9099 12.4067C46.9846 12.4067 46.9846 12.2951 47.0032 12.1277L48.3434 1.05273C48.7987 1.23984 49.2975 1.34306 49.8205 1.34306C50.2078 1.34306 50.5819 1.28645 50.9348 1.18108L49.2059 13.1509C49.0379 14.323 48.4966 14.6578 47.5259 14.6578H46.5179C45.6779 14.6578 45.2299 14.2485 44.9686 13.1695L43.4939 7.03017C43.4566 6.86273 43.4566 6.82552 43.3819 6.82552C43.3072 6.82552 43.2885 6.86273 43.2512 7.03017L41.7765 13.1695C41.5152 14.2485 41.0672 14.6578 40.2272 14.6578H39.2192C38.2485 14.6578 37.7072 14.323 37.5392 13.1509L35.7969 1.0882Z" fill="white" fill-opacity="0.56"/>
<path fill-rule="evenodd" clip-rule="evenodd" d="M61.2274 9.65397C61.2274 9.95164 61.1154 10.1191 60.8541 10.1191H54.7687V10.1749C54.7687 11.2539 55.2167 12.5376 57.0087 12.5376C58.3714 12.5376 59.6594 12.426 60.4434 12.3516H60.4994C60.6861 12.3516 60.8354 12.4446 60.8354 12.6306V13.8585C60.8354 14.1562 60.7794 14.2864 60.4434 14.3422C59.2301 14.5654 58.5021 14.6585 56.8221 14.6585C54.9554 14.6585 52.3047 13.6538 52.3047 9.98884V8.61215C52.3047 5.70991 53.9287 3.88672 56.7847 3.88672C59.6594 3.88672 61.2274 5.84014 61.2274 8.61215V9.65397ZM58.7447 8.37029V8.29588C58.7447 6.84476 57.9421 6.00758 56.7847 6.00758C55.6274 6.00758 54.7874 6.82616 54.7874 8.29588V8.37029H58.7447Z" fill="white" fill-opacity="0.56"/>
<path fill-rule="evenodd" clip-rule="evenodd" d="M63.3359 0.890352C63.6935 0.998761 64.0729 1.05707 64.466 1.05707C64.9347 1.05707 65.384 0.974164 65.8 0.822266V4.01654C66.4906 3.92352 67.144 3.88631 67.592 3.88631C70.5973 3.88631 72.0533 5.6537 72.0533 8.55593V9.98844C72.0533 12.8907 70.5973 14.6581 67.592 14.6581C66.3973 14.6581 64.9973 14.472 63.8399 14.1743C63.4106 14.0627 63.3359 13.9511 63.3359 13.672V0.890352ZM69.5893 9.98844V8.55593C69.5893 7.0304 69.1973 5.89555 67.592 5.89555C67.144 5.89555 66.3226 5.95136 65.8 6.02578V12.5186C66.1546 12.593 66.92 12.6488 67.592 12.6488C69.1973 12.6488 69.5893 11.514 69.5893 9.98844Z" fill="white" fill-opacity="0.56"/>
<path fill-rule="evenodd" clip-rule="evenodd" d="M82.6397 4.58V10.1557C82.6397 14.2114 79.485 14.6579 78.3837 14.6579H78.2717C77.1703 14.6579 74.0156 14.2114 74.0156 10.1557V4.53125C74.4404 4.69058 74.9006 4.77775 75.3812 4.77775C75.7627 4.77775 76.1314 4.72282 76.4796 4.62046V10.1557C76.4796 12.0906 77.189 12.5371 78.2717 12.5371H78.3837C79.4663 12.5371 80.1757 12.0906 80.1757 10.1557V4.57713C80.564 4.70724 80.9797 4.77775 81.412 4.77775C81.8411 4.77775 82.2539 4.70827 82.6397 4.58Z" fill="white" fill-opacity="0.56"/>
<path fill-rule="evenodd" clip-rule="evenodd" d="M85.0664 0.859321C85.4522 0.987594 85.865 1.05706 86.2941 1.05706C86.7264 1.05706 87.1421 0.986555 87.5304 0.856445V14.1185C87.5304 14.3232 87.3811 14.5092 87.1758 14.5092H85.4397C85.2344 14.5092 85.0664 14.3232 85.0664 14.1185V0.859321Z" fill="white" fill-opacity="0.56"/>
<path fill-rule="evenodd" clip-rule="evenodd" d="M90.1406 0.827148C90.5525 0.97573 90.9969 1.05674 91.4602 1.05674C91.8586 1.05674 92.2429 0.996859 92.6046 0.885639V14.1182C92.6046 14.3229 92.4553 14.5089 92.25 14.5089H90.514C90.3086 14.5089 90.1406 14.3229 90.1406 14.1182V0.827148Z" fill="white" fill-opacity="0.56"/>
</g>
<defs>
<clipPath id="clip0_3302_85529">
<rect width="92" height="16" fill="white" transform="translate(0.820312)"/>
</clipPath>
</defs>
</svg>
