<svg width="40" height="40" viewBox="0 0 40 40" fill="none" xmlns="http://www.w3.org/2000/svg">
  <path d="M36.6667 14.1663C36.6667 20.1497 31.8167 24.9997 25.8333 24.9997C25.55 24.9997 25.25 24.983 24.9667 24.9664C24.55 19.683 20.3166 15.4497 15.0333 15.033C15.0166 14.7497 15 14.4497 15 14.1663C15 8.18301 19.85 3.33301 25.8333 3.33301C31.8167 3.33301 36.6667 8.18301 36.6667 14.1663Z" stroke="white" stroke-width="2" stroke-linecap="round" stroke-linejoin="round" />
  <path d="M24.9987 25.8333C24.9987 31.8167 20.1487 36.6667 14.1654 36.6667C8.18203 36.6667 3.33203 31.8167 3.33203 25.8333C3.33203 19.85 8.18203 15 14.1654 15C14.4487 15 14.7487 15.0166 15.032 15.0333C20.3153 15.45 24.5487 19.6834 24.9654 24.9667C24.982 25.25 24.9987 25.55 24.9987 25.8333Z" stroke="white" stroke-width="2" stroke-linecap="round" stroke-linejoin="round" />
  <path d="M9.31536 3.33301H4.9987C4.08203 3.33301 3.33203 4.08301 3.33203 4.99967V9.31633C3.33203 10.7997 5.13202 11.5497 6.18202 10.4997L10.4987 6.18299C11.532 5.13299 10.7987 3.33301 9.31536 3.33301Z" stroke="white" stroke-width="2" stroke-linecap="round" stroke-linejoin="round" />
  <path d="M30.6816 36.6674H34.9982C35.9149 36.6674 36.6649 35.9174 36.6649 35.0007V30.6841C36.6649 29.2008 34.8649 28.4508 33.8149 29.5008L29.4982 33.8174C28.4649 34.8674 29.1982 36.6674 30.6816 36.6674Z" stroke="white" stroke-width="2" stroke-linecap="round" stroke-linejoin="round" />
</svg>