<svg width="20" height="20" viewBox="0 0 20 20" fill="none" xmlns="http://www.w3.org/2000/svg">
<path d="M13.8614 5.29138L13.8629 5.29149C15.1334 5.3931 16.1002 5.8556 16.7929 6.66928C15.5217 7.63692 14.8695 8.92628 14.8768 10.5652C14.8766 10.5539 14.8748 10.65 14.8759 10.7216C14.8775 10.8173 14.8832 10.9477 14.8996 11.1048C14.9323 11.4183 15.0078 11.8416 15.1795 12.3098C15.495 13.1707 16.1324 14.1715 17.39 14.911C17.1046 15.6883 16.6118 16.746 15.9881 17.6586C15.6207 18.1961 15.2208 18.6639 14.8076 18.9946C14.3946 19.3252 14.0018 19.4926 13.6356 19.4992C13.1569 19.4984 12.7749 19.3439 12.2762 19.1424L12.2621 19.1366C11.7643 18.9354 11.1727 18.7012 10.3914 18.7012C9.59593 18.7012 8.98505 18.9242 8.47552 19.1251C8.43995 19.1392 8.4051 19.153 8.37093 19.1665C7.89958 19.3531 7.55501 19.4895 7.15619 19.4994L7.15269 19.4995C6.80969 19.5103 6.41839 19.3506 5.98527 18.9964C5.55598 18.6454 5.13264 18.141 4.7396 17.562C3.95377 16.4042 3.34597 15.0334 3.086 14.2515C2.69331 13.0511 2.5 11.8949 2.5 10.7832C2.5 7.07519 4.81972 5.37225 6.89549 5.33636C7.36644 5.33738 7.93688 5.52221 8.53198 5.7446C8.61139 5.77428 8.69206 5.8049 8.77267 5.83551C8.97736 5.91323 9.18174 5.99083 9.36456 6.05246C9.60976 6.13512 9.88998 6.21612 10.1396 6.21612C10.3936 6.21612 10.6925 6.11522 10.9422 6.02389C11.068 5.97788 11.2034 5.92536 11.3412 5.8719C11.3537 5.86704 11.3663 5.86217 11.3789 5.8573C11.5315 5.79811 11.6894 5.73721 11.8532 5.67756C12.5208 5.43448 13.2228 5.23845 13.8614 5.29138ZM11.4882 1.87945L11.4883 1.87948L11.4924 1.87444C11.9778 1.28176 12.7656 0.782864 13.5077 0.585653C13.4846 1.15606 13.3184 2.00481 12.5823 2.92343C11.9399 3.71056 11.2347 4.16687 10.5101 4.25986C10.553 3.36652 10.9141 2.5622 11.4882 1.87945Z" fill="white" stroke="white"/>
</svg>
