<svg width="21" height="20" viewBox="0 0 21 20" fill="none" xmlns="http://www.w3.org/2000/svg">
<g clip-path="url(#clip0_3424_47121)">
<path d="M14.6348 4.74275C13.5273 3.85651 12.1781 3.40593 10.7047 3.40593C7.05971 3.40593 4.10097 6.41914 4.10097 9.99391C4.10097 13.5671 7.05912 16.587 10.7047 16.587C13.9581 16.587 16.2807 14.7426 16.7583 12.114L16.8654 11.5246H16.2663H11.2047V8.62475H19.8811C19.9586 9.13947 20 9.67266 20 10.2245C20 12.965 19.066 15.2774 17.457 16.9029C15.8488 18.5276 13.5329 19.5 10.7047 19.5H10.7046C9.42866 19.5004 8.16539 19.2544 6.98705 18.7763C5.80872 18.2982 4.73873 17.5976 3.83794 16.7148C2.93718 15.8321 2.22328 14.7847 1.73653 13.6327C1.2498 12.4807 0.999613 11.2464 1 10.0002L1 9.99984C0.999613 8.75362 1.2498 7.51929 1.73653 6.36729C2.22328 5.21527 2.93718 4.16785 3.83794 3.28516C4.73873 2.40244 5.80872 1.70179 6.98705 1.22371C8.16539 0.74562 9.42866 0.499619 10.7046 0.5H10.7047C13.1271 0.5 15.1723 1.30298 16.7914 2.62939L14.6348 4.74275Z" fill="white" stroke="white"/>
</g>
<defs>
<clipPath id="clip0_3424_47121">
<rect width="20" height="20" fill="white" transform="translate(0.5)"/>
</clipPath>
</defs>
</svg>
