<svg width="20" height="20" viewBox="0 0 20 20" fill="none" xmlns="http://www.w3.org/2000/svg">
<path d="M17.7535 8.47183H17.7788L17.804 8.46927C18.7198 8.37626 19.5 9.11605 19.5 10.1268C19.5 10.8186 19.113 11.4108 18.5256 11.7091L18.252 11.8481V12.1549V12.7887C18.252 14.2973 17.4002 15.713 15.9185 16.7709C14.4375 17.8283 12.358 18.5 10.0156 18.5C7.6732 18.5 5.59366 17.8283 4.11269 16.7709C2.63096 15.713 1.77925 14.2973 1.77925 12.7887V12.1549V11.6549H1.29385C1.29272 11.6545 1.29141 11.654 1.28992 11.6533C1.27376 11.6464 1.24825 11.6324 1.21405 11.6076C1.14285 11.556 1.076 11.4894 1.01152 11.4239C0.329494 10.7311 0.329494 9.64914 1.01152 8.95643C1.68928 8.26804 2.7413 8.26804 3.41906 8.95643L3.72082 9.26292L4.06896 9.01035C5.72979 7.80545 7.62363 7.20423 9.64119 7.20423H9.77575H10.0396H10.39C12.3903 7.20423 14.2935 7.92149 15.9825 9.02429L16.3251 9.24798L16.6121 8.95643C16.8923 8.67184 17.3879 8.47183 17.7535 8.47183ZM15.1334 2.64789V2.25725L15.2068 2.10816C15.386 1.74405 15.7268 1.5 16.131 1.5C16.7746 1.5 17.2535 1.95389 17.2535 2.52113C17.2535 3.19375 16.7957 3.66901 16.2558 3.66901C15.6123 3.66901 15.1334 3.21513 15.1334 2.64789ZM11.3904 1.18983C11.3904 1.18986 11.3904 1.19061 11.3902 1.19201L11.3904 1.18983ZM14.0401 16.3718L14.1498 16.2975L14.2083 16.1786C14.2948 16.003 14.3677 15.7712 14.3329 15.5237C14.2936 15.2445 14.1259 15.0125 13.8613 14.8781C13.68 14.7861 13.478 14.7289 13.2761 14.7289C13.0905 14.7289 12.8703 14.7793 12.6928 14.9369C11.9044 15.5008 10.9139 15.8235 9.94687 15.7144L9.8908 15.7081L9.83473 15.7144C8.8677 15.8236 7.87716 15.5008 7.08872 14.9368C6.91721 14.7846 6.70237 14.7289 6.52106 14.7289C6.326 14.7289 6.09213 14.7934 5.91516 14.9731L5.85852 15.0307L5.82286 15.1031C5.73297 15.2857 5.67785 15.4877 5.67785 15.6884C5.67785 15.8851 5.73306 16.1236 5.91516 16.3085L5.95 16.3439L5.99111 16.3718C7.19193 17.1848 8.53017 17.5943 9.99278 17.5986C11.5144 17.7321 12.8701 17.164 14.0401 16.3718ZM6.52106 9.75352C5.5159 9.75352 4.5234 10.5918 4.5234 11.7746C4.5234 12.9308 5.36398 13.7958 6.52106 13.7958C7.06086 13.7958 7.55682 13.5269 7.90699 13.1712C8.25765 12.8151 8.51872 12.3148 8.51872 11.7746C8.51872 10.7728 7.70445 9.75352 6.52106 9.75352ZM11.3877 11.7746C11.3877 12.7765 12.2019 13.7958 13.3853 13.7958C14.4574 13.7958 15.5379 12.9953 15.3827 11.7393C15.3638 10.749 14.5548 9.75352 13.3853 9.75352C12.8455 9.75352 12.3496 10.0224 11.9994 10.3781C11.6487 10.7342 11.3877 11.2345 11.3877 11.7746Z" fill="white" stroke="white"/>
</svg>
