<svg width="20" height="20" viewBox="0 0 20 20" fill="none" xmlns="http://www.w3.org/2000/svg">
  <path d="M4.78313 13.3337C4.8748 12.9253 4.70813 12.342 4.41647 12.0503L2.39147 10.0253C1.75813 9.39199 1.50813 8.71699 1.69147 8.13366C1.88313 7.55033 2.4748 7.15033 3.35813 7.00033L5.95813 6.56699C6.33313 6.50033 6.79147 6.16699 6.96647 5.82533L8.3998 2.95033C8.81647 2.12533 9.38313 1.66699 9.9998 1.66699C10.6165 1.66699 11.1831 2.12533 11.5998 2.95033L13.0331 5.82533C13.1415 6.04199 13.3665 6.25033 13.6081 6.39199L4.63313 15.367C4.51647 15.4837 4.31647 15.3753 4.3498 15.2087L4.78313 13.3337Z" fill="#F2B007" />
  <path d="M15.582 12.0496C15.282 12.3496 15.1154 12.9246 15.2154 13.3329L15.7904 15.8413C16.032 16.8829 15.882 17.6663 15.3654 18.0413C15.157 18.1913 14.907 18.2663 14.6154 18.2663C14.1904 18.2663 13.6904 18.1079 13.1404 17.7829L10.6987 16.3329C10.3154 16.1079 9.68203 16.1079 9.2987 16.3329L6.85703 17.7829C5.93203 18.3246 5.14036 18.4163 4.63203 18.0413C4.44036 17.8996 4.2987 17.7079 4.20703 17.4579L14.3404 7.32459C14.7237 6.94126 15.2654 6.76626 15.7904 6.85792L16.632 6.99959C17.5154 7.14959 18.107 7.54959 18.2987 8.13292C18.482 8.71626 18.232 9.39126 17.5987 10.0246L15.582 12.0496Z" fill="#F2B007" />
</svg>