<svg width="17" height="16" viewBox="0 0 17 16" fill="none" xmlns="http://www.w3.org/2000/svg">
  <path d="M11.832 2.33325H5.16536C3.16536 2.33325 1.83203 3.33325 1.83203 5.66659V10.3333C1.83203 12.6666 3.16536 13.6666 5.16536 13.6666H11.832C13.832 13.6666 15.1654 12.6666 15.1654 10.3333V5.66659C15.1654 3.33325 13.832 2.33325 11.832 2.33325ZM12.1454 6.39325L10.0587 8.05992C9.6187 8.41325 9.0587 8.58659 8.4987 8.58659C7.9387 8.58659 7.37203 8.41325 6.9387 8.05992L4.85203 6.39325C4.6387 6.21992 4.60536 5.89992 4.77203 5.68659C4.94536 5.47325 5.2587 5.43325 5.47203 5.60659L7.5587 7.27325C8.06536 7.67992 8.92536 7.67992 9.43203 7.27325L11.5187 5.60659C11.732 5.43325 12.052 5.46659 12.2187 5.68659C12.392 5.89992 12.3587 6.21992 12.1454 6.39325Z" fill="white" />
</svg>